<svg width="18" height="18" viewBox="0 0 18 18" fill="none" xmlns="http://www.w3.org/2000/svg">
<path d="M7.35092 0.83134L0.810252 4.03215C0.245541 4.3085 0.245541 5.11338 0.810253 5.38973L7.35092 8.59054C8.10069 8.95745 9.31632 8.95745 10.0661 8.59054L16.6068 5.38973C17.1715 5.11338 17.1715 4.3085 16.6068 4.03215L10.0661 0.83134C9.31632 0.464423 8.10069 0.464423 7.35092 0.83134Z" fill="#CFBB85"/>
<path d="M2.68588 7.35463L7.35092 9.63756C8.10069 10.0045 9.31632 10.0045 10.0661 9.63756L14.7311 7.35463L16.6068 8.27251C17.1715 8.54886 17.1715 9.35374 16.6068 9.63009L10.0661 12.8309C9.31632 13.1978 8.10069 13.1978 7.35092 12.8309L0.810253 9.63009C0.245541 9.35374 0.245541 8.54886 0.810252 8.27251L2.68588 7.35463Z" fill="#CFBB85"/>
<path d="M7.35092 13.8774L2.68588 11.5945L0.810252 12.5123C0.245541 12.7887 0.245541 13.5936 0.810253 13.8699L7.35092 17.0707C8.10069 17.4376 9.31632 17.4376 10.0661 17.0707L16.6068 13.8699C17.1715 13.5936 17.1715 12.7887 16.6068 12.5123L14.7311 11.5945L10.0661 13.8774C9.31632 14.2443 8.10069 14.2443 7.35092 13.8774Z" fill="#CFBB85"/>
</svg>
