<svg width="14" height="22" viewBox="0 0 14 22" fill="none" xmlns="http://www.w3.org/2000/svg">
<path d="M0.244523 0.596882C2.65382 0.596882 5.04463 0.557782 7.43402 0.613232C8.63689 0.640957 9.79639 0.990008 10.8414 1.6156C13.2991 3.08644 13.9545 5.02222 13.6688 7.52031C13.4007 9.85987 11.937 11.2504 9.84474 12.0736C8.75419 12.5023 7.60748 12.6658 6.43802 12.6701C6.25176 12.6708 6.06479 12.6701 5.82735 12.6701C5.82735 12.8499 5.82735 12.9864 5.82735 13.1236C5.82806 17.5418 5.8437 12.4699 5.82237 16.8882C5.81242 18.9967 6.80841 20.4107 8.68097 21.2566C9.15088 21.4692 9.65776 21.6007 10.1497 21.8225C9.6208 21.7429 9.0869 21.6874 8.56437 21.578C7.51222 21.3583 6.53755 20.9303 5.62047 20.3773C4.03868 19.4232 2.33888 18.8702 0.484812 18.819C0.425806 18.8175 0.3668 18.8126 0.307794 18.8055C0.285045 18.8026 0.263717 18.7905 0.216797 18.7728C0.248788 18.7358 0.268694 18.6896 0.300685 18.6789C1.6237 18.2275 2.06944 17.1825 2.10854 15.9128C2.14693 14.6581 2.11708 14.521 2.11708 13.2655C2.11779 7.14113 2.11779 9.38855 2.1185 3.26488C2.1185 1.93906 1.58389 1.15707 0.337653 0.660862C0.306372 0.648066 0.28149 0.622474 0.244523 0.596882ZM7.75393 9.72552C7.66009 9.72552 7.56554 9.71912 7.4717 9.72694C7.11197 9.75466 6.7878 10.1229 6.834 10.4478C6.87524 10.7378 7.26624 10.9333 7.6345 10.8459C7.69208 10.8324 7.75677 10.8231 7.80227 10.7904C8.17053 10.5231 8.60561 10.3084 8.88784 9.96793C9.78075 8.88879 10.1078 7.60491 10.0097 6.22221C9.87957 4.38383 9.13097 2.84261 7.64161 1.72863C7.24989 1.43503 6.74656 1.25731 6.26741 1.12366C5.86716 1.01205 5.82948 1.09096 5.82948 1.51252C5.82806 4.12791 5.82806 6.7433 5.82735 9.35869C5.82735 10.1755 5.82166 10.9916 5.83232 11.8084C5.83375 11.9144 5.90484 12.0999 5.96811 12.1113C6.32072 12.1724 6.63779 12.0466 7.02382 11.849C6.34632 11.6862 6.09679 11.2675 6.06551 10.7137C6.03991 10.2566 6.23115 9.87836 6.64206 9.65087C7.01173 9.44471 7.39136 9.39495 7.75393 9.72552Z" fill="#CFBB85"/>
</svg>
