<svg width="20" height="15" viewBox="0 0 20 15" fill="none" xmlns="http://www.w3.org/2000/svg">
<path fill-rule="evenodd" clip-rule="evenodd" d="M9.70866 4.57818V10.6426H6.61107C6.14741 10.6426 5.28915 10.7879 4.61832 11.6499C3.94749 12.5119 2.5862 14.2165 1.43198 14.1196C0.27776 14.0228 0.0509496 12.6087 0.11014 10.9719C0.169331 9.33512 0.790943 6.28427 1.75772 3.39807C2.72451 0.51187 4.97376 0.279424 5.92081 0.356906C6.26394 0.384979 6.58367 0.474045 6.95047 0.576222C7.59602 0.756054 8.38737 0.976496 9.70866 0.976496V3.45458H9.70913V0.976496C11.0304 0.976496 11.8218 0.756054 12.4673 0.576222C12.8341 0.474045 13.1538 0.384979 13.497 0.356906C14.444 0.279424 16.6933 0.51187 17.6601 3.39807C18.6268 6.28427 19.2485 9.33512 19.3076 10.9719C19.3668 12.6087 19.14 14.0228 17.9858 14.1196C16.8316 14.2165 15.4703 12.5119 14.7995 11.6499C14.1286 10.7879 13.2704 10.6426 12.8067 10.6426H9.70913V4.57818H9.70866ZM4.62551 7.65726C5.6311 7.65726 6.4463 6.84206 6.4463 5.83647C6.4463 4.83088 5.6311 4.01568 4.62551 4.01568C3.61991 4.01568 2.80472 4.83088 2.80472 5.83647C2.80472 6.84206 3.61991 7.65726 4.62551 7.65726ZM13.0206 5.83684C13.0206 6.35031 12.6043 6.76656 12.0909 6.76656C11.5774 6.76656 11.1611 6.35031 11.1611 5.83684C11.1611 5.32336 11.5774 4.90711 12.0909 4.90711C12.6043 4.90711 13.0206 5.32336 13.0206 5.83684ZM15.7911 6.76656C16.3045 6.76656 16.7208 6.35031 16.7208 5.83684C16.7208 5.32336 16.3045 4.90711 15.7911 4.90711C15.2776 4.90711 14.8613 5.32336 14.8613 5.83684C14.8613 6.35031 15.2776 6.76656 15.7911 6.76656ZM13.9412 4.91579C13.4277 4.91579 13.0114 4.49954 13.0114 3.98606C13.0114 3.47259 13.4277 3.05634 13.9412 3.05634C14.4546 3.05634 14.8709 3.47259 14.8709 3.98606C14.8709 4.49954 14.4546 4.91579 13.9412 4.91579ZM13.0114 7.68636C13.0114 8.19983 13.4277 8.61608 13.9412 8.61608C14.4546 8.61608 14.8709 8.19983 14.8709 7.68636C14.8709 7.17288 14.4546 6.75663 13.9412 6.75663C13.4277 6.75663 13.0114 7.17288 13.0114 7.68636Z" fill="#CFBB85"/>
</svg>
