<svg class="mask">
  <path fill="#C4C4C4" d="m1083.33,0.75244l10.42,0l0,10.80276l11.08,0l0,10.8027l11.08,0l0,10.8026l11.08,0l0,10.8028l11.08,0l0,10.8026l11.08,0l0,10.9492l0,3.4048l0,374.6401l0,17.382l0,28.06l0,3.405l0,10.949l-11.08,0l0,10.803l-11.08,0l0,10.803l-11.08,0l0,10.802l-11.08,0l0,10.803l-11.08,0l0,10.803l-10.42,0l-3.93,0l-879.096,0l-32.166,0l-101.4842,0l-10.4233,0l0,-10.803l-11.0792,0l0,-10.803l-11.0781,0l0,-10.802l-11.0791,0l0,-10.803l-11.0771,0l0,-10.803l-11.07911,0l0,-10.949l0,-3.405l0.00056,-33.559l0,-24.727l-0.00056,-361.7961l0,-3.4047l0,-10.9493l11.07911,0l0,-10.8027l11.0771,0l0,-10.8026l11.0791,0l0,-10.8028l11.0781,0l0,-10.8026l11.0792,0l0,-10.8027l10.4233,0l3.9307,0l106.2765,-0.00006l902.539,0l3.93,0zm-1060.3292,546.01556l0,-10.801l-11.0775,0l0,-10.801l-11.08443,0l0,10.801l11.08443,0l0,10.801l-10.97811,0l0,10.802l10.97811,0l0,-10.802l11.0775,0zm0,0l0,10.695l11.0776,0l0,-10.695l-11.0776,0zm0,-524.4129l0,-10.8012l11.0776,0l0,-10.69494l-11.0776,0l0,10.69494l-11.0775,0l0,-10.80146l-10.97811,0l0,10.80146l10.97811,0l0,10.8012l-11.08443,0l0,10.8012l11.08443,0l0,-10.8012l11.0775,0zm1103.9892,-10.801l0,10.8013l11.07,0l0,10.8012l11.09,0l0,-10.8012l-11.09,0l0,-10.8013l10.98,0l0,-10.80141l-10.98,0l0,10.80141l-11.07,0zm0,0l0,-10.69489l-11.08,0l0,10.69489l11.08,0zm0,524.4129l0,10.801l-11.08,0l0,10.695l11.08,0l0,-10.695l11.07,0l0,10.802l10.98,0l0,-10.802l-10.98,0l0,-10.801l11.09,0l0,-10.801l-11.09,0l0,10.801l-11.07,0z" clip-rule="evenodd" fill-rule="evenodd"/>
</svg>
