<svg width="283" height="247" viewBox="0 0 283 247" fill="none" xmlns="http://www.w3.org/2000/svg">
<g opacity="0.6">
<path d="M73.4378 55.0264C70.7866 63.863 90.7321 85.7234 104.597 99.0135C103.68 102.459 100.789 109.566 95.9222 112.486C89.6767 116.233 95.9222 146.212 90.9258 153.706C85.9293 161.201 89.6767 167.446 88.4276 176.19C87.1785 184.934 62.1962 183.685 49.7051 183.685C37.214 183.685 19.7267 191.18 7.23558 196.176C-5.25554 201.172 3.48764 223.656 2.23853 236.148C1.23924 246.14 7.65175 246.973 10.9829 246.141L38.4629 211.165C56.3668 210.333 93.4238 207.918 98.4203 204.92C103.417 201.922 125.484 179.521 135.894 168.696L172.118 191.18C179.613 201.172 194.602 222.407 194.602 227.404C194.602 232.4 217.919 239.479 229.577 242.393L269.549 228.653L282.04 203.671L252.061 209.916L230.826 223.656L223.331 202.422L204.595 146.212L164.623 101.244C169.203 92.9162 180.612 73.5133 189.605 62.5211C200.847 48.7809 183.36 23.7987 180.862 15.0549C178.363 6.31111 162.125 3.81288 149.634 1.31466C137.143 -1.18356 115.908 3.8129 99.6694 6.31112C83.4309 8.80934 77.1854 42.5352 73.4378 55.0264Z" fill="#C4C4C4"/>
<path d="M73.4378 55.0264C70.7866 63.863 90.7321 85.7234 104.597 99.0135C103.68 102.459 100.789 109.566 95.9222 112.486C89.6767 116.233 95.9222 146.212 90.9258 153.706C85.9293 161.201 89.6767 167.446 88.4276 176.19C87.1785 184.934 62.1962 183.685 49.7051 183.685C37.214 183.685 19.7267 191.18 7.23558 196.176C-5.25554 201.172 3.48764 223.656 2.23853 236.148C1.23924 246.14 7.65175 246.973 10.9829 246.141L38.4629 211.165C56.3668 210.333 93.4238 207.918 98.4203 204.92C103.417 201.922 125.484 179.521 135.894 168.696L172.118 191.18C179.613 201.172 194.602 222.407 194.602 227.404C194.602 232.4 217.919 239.479 229.577 242.393L269.549 228.653L282.04 203.671L252.061 209.916L230.826 223.656L223.331 202.422L204.595 146.212L164.623 101.244C169.203 92.9162 180.612 73.5133 189.605 62.5211C200.847 48.7809 183.36 23.7987 180.862 15.0549C178.363 6.31111 162.125 3.81288 149.634 1.31466C137.143 -1.18356 115.908 3.8129 99.6694 6.31112C83.4309 8.80934 77.1854 42.5352 73.4378 55.0264Z" fill="#1D1D40"/>
</g>
</svg>
