<svg width="283" height="247" fill="none" xmlns="http://www.w3.org/2000/svg"><g opacity=".6"><path d="M73.438 55.026c-2.651 8.837 17.294 30.697 31.159 43.987-.917 3.446-3.808 10.553-8.675 13.473-6.245 3.747 0 33.726-4.996 41.22-4.997 7.495-1.25 13.74-2.498 22.484-1.25 8.744-26.232 7.495-38.723 7.495s-29.978 7.495-42.47 12.491c-12.49 4.996-3.747 27.48-4.996 39.972-1 9.992 5.413 10.825 8.744 9.993l27.48-34.976c17.904-.832 54.96-3.247 59.957-6.245s27.064-25.399 37.474-36.224l36.224 22.484c7.495 9.992 22.484 31.227 22.484 36.224 0 4.996 23.317 12.075 34.975 14.989l39.972-13.74 12.491-24.982-29.979 6.245-21.235 13.74-7.495-21.234-18.736-56.21-39.972-44.968c4.58-8.328 15.989-27.73 24.982-38.723 11.242-13.74-6.245-38.722-8.743-47.466-2.499-8.744-18.737-11.242-31.228-13.74-12.491-2.499-33.726 2.498-49.965 4.996C83.431 8.81 77.185 42.535 73.438 55.026z" fill="#C4C4C4"/><path d="M73.438 55.026c-2.651 8.837 17.294 30.697 31.159 43.987-.917 3.446-3.808 10.553-8.675 13.473-6.245 3.747 0 33.726-4.996 41.22-4.997 7.495-1.25 13.74-2.498 22.484-1.25 8.744-26.232 7.495-38.723 7.495s-29.978 7.495-42.47 12.491c-12.49 4.996-3.747 27.48-4.996 39.972-1 9.992 5.413 10.825 8.744 9.993l27.48-34.976c17.904-.832 54.96-3.247 59.957-6.245s27.064-25.399 37.474-36.224l36.224 22.484c7.495 9.992 22.484 31.227 22.484 36.224 0 4.996 23.317 12.075 34.975 14.989l39.972-13.74 12.491-24.982-29.979 6.245-21.235 13.74-7.495-21.234-18.736-56.21-39.972-44.968c4.58-8.328 15.989-27.73 24.982-38.723 11.242-13.74-6.245-38.722-8.743-47.466-2.499-8.744-18.737-11.242-31.228-13.74-12.491-2.499-33.726 2.498-49.965 4.996C83.431 8.81 77.185 42.535 73.438 55.026z" fill="#1D1D40"/></g></svg>