<svg width="321" height="177" fill="none" xmlns="http://www.w3.org/2000/svg"><path d="M299.591 141.225c-.792-.072-1.819.057-3.039.494a57.95 57.95 0 00-.729.25 23.73 23.73 0 01-1.584.504c-.322.096-.667.197-1.032.302-.37.091-.754.187-1.152.283-.792.212-1.647.356-2.491.533-1.705.288-3.409.523-4.695.615-.643.052-1.176.105-1.55.115l-.586.029c-6.519.316-13.138-.437-19.594-1.853a84.508 84.508 0 01-9.557-2.703 61.681 61.681 0 01-4.598-1.804 43.297 43.297 0 01-4.349-2.276c-.183-.11-.355-.225-.533-.336.038-.921-.053-1.886-.437-2.808-.389-.95-1.113-1.824-2.102-2.333-.485-.264-1.042-.403-1.618-.456a2.497 2.497 0 00-1.042.144c-.105.044-.206.082-.326.164a1.4 1.4 0 00-.326.273 1.595 1.595 0 00-.394.783c-.091.532.029.888.13 1.19.11.303.244.533.379.759.278.441.581.806.893 1.152.917.984 1.91 1.8 2.942 2.539-.235 1.032-.648 2.059-1.157 3.033-.182.36-.374.72-.595 1.066-.221.341-.418.71-.653 1.032a10.76 10.76 0 01-1.569 1.805c-1.172 1.104-2.583 1.958-4.08 2.626-1.503.667-3.101 1.128-4.728 1.454a28.95 28.95 0 01-3.409.456c-.11-.24-.225-.485-.34-.725-1.45-2.885-3.365-5.472-5.506-7.8-2.146-2.328-4.546-4.378-7.075-6.206-2.568-1.858-5.391-3.365-8.285-4.556a54.84 54.84 0 00-8.909-2.808c-3.024-.686-6.072-1.224-9.135-1.55-3.062-.331-6.13-.567-9.202-.624a60.961 60.961 0 00-2.299-.039c-.768 0-1.531-.009-2.299 0-1.531.039-3.062.048-4.594.135-6.12.264-12.202.941-18.235 1.901-3.015.499-6.02 1.041-9 1.699-1.498.307-2.976.677-4.464 1.017-1.479.38-2.967.73-4.436 1.148a151.474 151.474 0 00-9.518 2.923c.187-1.32.177-3.274-1.695-2.693-2.755.859-6.557 5.088-6.557 5.088s.308-3.125-1.838-2.145c-1.493.681-2.779 3.412-3.423 5.011a494.34 494.34 0 01-9.124 3.557c.129-.159.259-.322.379-.49.485-.662.902-1.402 1.171-2.218.269-.811.389-1.713.25-2.606a6.488 6.488 0 00-.941-2.486 4.95 4.95 0 00-2.112-1.844 5.166 5.166 0 00-2.847-.393c-.965.134-1.9.537-2.697 1.233-.413.399-.797.917-.956 1.522a3.547 3.547 0 00-.043 1.805s.01.081.058.206c.048.125.096.322.197.533.192.427.552.95 1.032 1.373.49.413 1.084.705 1.574.835.485.125.84.149.893.154.235-.005.446-.058.614-.14a.962.962 0 00.365-.384c.163-.302.158-.681.048-1.07a3.317 3.317 0 00-.456-.97 1.411 1.411 0 00-.25-.273c-.081-.077-.153-.115-.24-.106-.019 0-.134 0-.297-.009a1.467 1.467 0 01-.538-.183 1.443 1.443 0 01-.412-.403c-.077-.134-.13-.226-.125-.226-.135-.369-.116-.696.134-1.027a3.032 3.032 0 011.469-.878 3.209 3.209 0 013.365 1.118c.422.523.758 1.181.941 1.834.187.667.177 1.392.024 2.107-.269 1.224-.922 2.405-1.767 3.422-2.218.831-4.45 1.632-6.682 2.415-.302.101-.6.206-.902.307-4.805 1.613-9.658 3.096-14.55 4.373.452-.446.88-.922 1.249-1.445.883-1.233 1.512-2.707 1.704-4.272.206-1.565-.024-3.149-.49-4.627a10.791 10.791 0 00-1.032-2.314c.47-1.949 2.055-2.289 2.141-2.304a.72.72 0 00-.254-1.416c-.778.135-2.127.787-2.89 2.299-.1-.12-.202-.24-.312-.36-.269-.302-.586-.561-.883-.844-.317-.26-.658-.49-.994-.73-.36-.197-.71-.418-1.084-.59-.38-.149-.75-.351-1.148-.457a10.998 10.998 0 00-4.886-.441 10.44 10.44 0 00-2.472.662 6.411 6.411 0 00-2.333 1.743c-.1.12-.187.249-.279.379-.287.23-.566.466-.835.715l-.556.538-.5.499c-.326.336-.672.648-1.008.965-1.363 1.248-2.822 2.333-4.373 3.12-1.56.768-3.201 1.224-4.872 1.339 0 0-.22 0-.556.005-.169 0-.36.005-.572.005-.21-.015-.437-.029-.662-.048-.451-.015-.912-.101-1.263-.144a6.838 6.838 0 01-.643-.106c-.681-.096-1.238.826-1.454 2.026-.216 1.2.086 2.241.96 2.357.048.009.365.033.816.024.451-.005 1.027.014 1.608-.048.288-.024.576-.048.84-.068.269-.033.518-.081.73-.115.422-.072.7-.115.7-.115 2.132-.432 4.152-1.32 5.895-2.491 1.733-1.196 3.197-2.64 4.469-4.167.057-.072.12-.144.177-.216.034.413.096.826.207 1.224 0 0 .029.13.1.355.092.216.192.548.394.908.36.739 1.094 1.665 2.088 2.289.24.163.504.283.758.418.26.125.581.221.86.312.321.067.633.134.955.144.331.005.643.005.936-.058.149-.024.288-.057.422-.086.13-.039.255-.082.37-.125.24-.081.427-.178.58-.264.327-.168.486-.307.538-.346.83-.652.999-1.411.874-1.968-.13-.566-.562-.988-1.128-1.209-1.123-.456-2.222-.442-2.434-.322-.014.019-.067.063-.057.087 0 .024-.02.024-.11.043-.063-.024-.116-.015-.197-.043-.082-.044-.183-.063-.264-.106a1.852 1.852 0 01-.792-.677c-.101-.115-.14-.249-.197-.326-.043-.082-.053-.139-.058-.135-.326-.768-.264-1.747.22-2.452.236-.36.567-.672.99-.917a6.961 6.961 0 011.622-.6c2.343-.547 5.03-.043 6.874 1.656a8.758 8.758 0 012.194 3.149c.504 1.214.825 2.52.772 3.835-.067 2.357-1.349 4.646-3.187 6.302a158.73 158.73 0 01-7.474 1.69c-4.017.797-8.069 1.411-12.13 1.747-4.06.331-8.14.389-12.158-.014-4.013-.403-7.973-1.272-11.645-2.813-3.686-1.522-6.936-3.85-9.648-6.744l-.26-.274c-.167-.182-.427-.427-.71-.787-.293-.35-.643-.778-1.051-1.272-.403-.494-.792-1.094-1.253-1.728-.24-.312-.437-.667-.653-1.027-.216-.36-.441-.735-.677-1.119-.201-.398-.407-.811-.619-1.228l-.317-.639a93.07 93.07 0 01-.273-.672c-.178-.456-.399-.902-.547-1.382-.159-.48-.312-.965-.476-1.45-.259-.994-.523-2.006-.667-3.048-.37-2.256-.398-4.56-.216-6.715a10.61 10.61 0 012.064.192c-.005.211-.014.427-.014.638-.014.375 0 .744.024 1.109l.058 1.104c.086.739.13 1.478.283 2.218.273 1.464.667 2.985 1.694 4.31.523.643 1.301 1.21 2.208 1.368.447.077.903.082 1.335.005.436-.087.825-.187 1.3-.485.793-.59 1.205-1.378 1.46-2.184a5.922 5.922 0 00.187-2.491c-.26-1.651-1.143-3.13-2.28-4.219-.293-.26-.571-.548-.883-.783-.312-.23-.62-.475-.946-.686l-1.008-.6c-.35-.173-.71-.327-1.066-.49a12.16 12.16 0 00-1.31-.446 21.35 21.35 0 011.387-6.092 23.726 23.726 0 011.872-3.868 23.125 23.125 0 012.52-3.495c.221-.245-.067-.581-.336-.346-1.013 1.08-1.896 2.257-2.693 3.495a25.476 25.476 0 00-2.044 3.912 22.06 22.06 0 00-1.618 6.173c-.648-.13-1.31-.207-1.973-.235.163-1.1.37-2.141.62-3.082a35.991 35.991 0 011.223-3.955c.365-.994.644-1.623.71-1.795 1.263-3.005 2.415-5.276 3.12-6.879.495-1.109.774-1.886.798-2.352.105-.149.216-.298.321-.446-.504-.37-1.123-.696-1.66-1.076l-.404-.288-.34-.249c-.231-.154-.438-.336-.649-.514l-.628-.533-.59-.576-.294-.288-.273-.307-.543-.62a17.095 17.095 0 01-1.8-2.754 18.526 18.526 0 01-1.224-3.063c-.61-2.121-.869-4.349-.81-6.566.052-2.218.373-4.44.945-6.59.201-.745.182-1.182.024-1.268-.154-.087-.456.211-.696.965a29 29 0 00-1.066 6.787 22.683 22.683 0 00.759 6.855 19.967 19.967 0 001.252 3.25 18.515 18.515 0 001.877 2.942c.744.892 1.531 1.761 2.438 2.496.221.192.437.384.677.547l.59.437c.327.245.726.446 1.014.681-.01.01-.015.024-.024.034-.399.283-.888.73-1.445 1.373-1.2 1.392-2.731 3.648-4.085 6.864-.077.187-.37.864-.749 1.934a39.188 39.188 0 00-1.281 4.292 35.07 35.07 0 00-.72 3.979l-1.009.259c-.384.101-.744.274-1.118.408-2.952 1.215-5.285 3.624-6.73 6.336-.182.341-.374.677-.547 1.023l-.446 1.06c-.327.701-.524 1.445-.759 2.175l-.168.552-.12.566-.235 1.138c-.077.379-.096.768-.144 1.152-.029.389-.106.773-.096 1.162 0 0 0 .206-.005.566.01.36-.038.874.034 1.493.029.307.057.643.086.998.024.355.12.725.178 1.109.11.778.365 1.579.6 2.39a17.975 17.975 0 002.073 4.249c.193.273.37.528.533.758.168.226.336.413.475.581.274.331.452.542.514.59.917.96 1.92 1.459 2.669 1.594.778.115 1.248-.115 1.373-.49.134-.389-.024-.845-.346-1.315-.321-.509-.85-1.061-1.574-1.819-.048-.034-.192-.207-.423-.461-.11-.13-.254-.274-.393-.451-.14-.183-.288-.389-.451-.61-.634-.897-1.359-2.15-1.849-3.494-.216-.677-.46-1.349-.575-2.007-.063-.326-.154-.638-.188-.941a47.99 47.99 0 00-.1-.849c-.087-.528-.058-.97-.077-1.277-.01-.307-.01-.485-.01-.485-.024-.336.038-.672.053-1.008.033-.336.038-.677.086-1.008l.178-1.003.086-.504c.034-.168.091-.326.135-.494.192-.653.336-1.325.61-1.954l.364-.955c.135-.312.303-.605.447-.912 1.195-2.429 3.096-4.479 5.5-5.578.38-.182.773-.322 1.176-.446-.12 2.188-.01 4.521.39 6.796.398 2.295 1.07 4.537 1.967 6.505.106.249.207.499.322.739.12.235.24.47.36.701.24.46.466.916.706 1.344.259.417.508.825.753 1.219.24.393.475.773.74 1.113.249.346.489.677.72.989.225.317.446.615.671.869.447.528.836.984 1.152 1.363.312.384.605.639.783.836.182.187.283.288.283.288 2.962 3.086 6.61 5.616 10.589 7.171 3.97 1.603 8.17 2.457 12.36 2.827 4.2.365 8.405.254 12.562-.134a96.1 96.1 0 004.973-.615c.917-.12 1.833-.245 2.745-.384 6.03-.974 11.982-2.352 17.838-4.022 11.721-3.312 23.107-7.637 34.368-12.12 5.578-2.252 11.285-4.104 17.098-5.626 1.45-.399 2.914-.73 4.373-1.095 1.469-.321 2.928-.676 4.402-.96 2.937-.624 5.904-1.123 8.87-1.593 5.943-.883 11.924-1.503 17.914-1.704 4.584-.173 9.173-.106 13.728.249l-.172.015s-.831.091-1.681.182c-.849.106-1.704.283-1.78.288-.639.149-.816.864-.605 1.651.211.783.705 1.344 1.286 1.21.067-.01.835-.264 1.603-.456.773-.182 1.527-.355 1.527-.355a35.576 35.576 0 018.899-.754c1.503.043 3.005.211 4.498.451.509.087 1.018.188 1.526.293.975.269 1.935.576 2.89.898.586.264 1.166.537 1.728.835 1.416.744 2.755 1.608 3.922 2.621 1.176.998 2.131 2.184 2.76 3.466 0 0 .072.172.177.432.125.254.202.619.317.974.168.73.192 1.483.207 1.55.024.548.686.879 1.502.912.806.034 1.469-.384 1.426-1.176-.015-.091-.168-1.132-.514-2.097-.182-.423-.341-.84-.514-1.152.778 1.094 1.599 2.491 2.055 3.993 1.041 3.433 1.713 5.698 3.614 5.698 1.469 0 1.656-2.587 1.666-3.773 1.565 1.853 2.938 3.85 4.013 5.972.609 1.276 1.166 2.577 1.541 3.921.374 1.344.657 2.707.744 4.08.172 2.732-.26 5.492-1.479 7.868a13.108 13.108 0 01-5.419 5.64s-.038.029-.125.067c-.081.038-.206.101-.369.178-.164.076-.36.177-.596.288-.244.096-.523.201-.84.326a18.013 18.013 0 01-5.587 1.027c-2.318.043-5.055-.465-7.282-2.141-1.123-.811-2.083-1.905-2.822-3.168-.36-.638-.658-1.32-.898-2.03-.216-.715-.398-1.455-.485-2.208-.081-.754-.124-1.522-.057-2.285.005-.384.081-.758.12-1.138.081-.374.125-.753.235-1.118.149-.677.394-1.33.653-1.963.153-.211.312-.423.485-.648.734-.936 1.656-1.978 2.769-2.876 1.104-.897 2.434-1.622 3.73-1.785a4.948 4.948 0 011.882.115c.633.154 1.185.389 1.536.686.364.288.537.605.638.917.086.327.106.677.053 1.042a4.024 4.024 0 01-.696 1.761c-.274.385-.456.524-.48.553-.101.129.048.388.283.825.24.418.552 1.023.97 1.632.417.61.888 1.095 1.43 1.282.523.192 1.094.081 1.44-.351.086-.105.542-.7.95-1.699.399-.998.788-2.405.605-4.186a6.656 6.656 0 00-.945-2.808 5.955 5.955 0 00-1.085-1.267c-.427-.36-.898-.681-1.392-.893-.989-.46-2.002-.614-2.957-.638a7.903 7.903 0 00-2.923.451c-1.858.677-3.226 1.939-4.239 3.173-.139.168-.269.336-.393.504.969-2.765 1.656-5.52 1.742-8.227.029-1.604-.144-3.226-.806-4.704a7.38 7.38 0 00-1.287-1.978 7.2 7.2 0 00-1.661-1.301c-1.128-.614-2.097-.806-2.788-.921a9.713 9.713 0 00-1.388-.101c-1.843.005-3.605.672-4.857 1.689a8.155 8.155 0 00-2.602 3.567 7.973 7.973 0 00-.446 1.949 7.155 7.155 0 00.081 1.877c.226 1.2.807 2.232 1.488 2.928a5.301 5.301 0 002.064 1.31c.322.106.615.182.883.211.269.048.509.058.725.048.427 0 .749-.091.965-.197.216-.105.331-.235.355-.384.024-.148-.048-.316-.192-.489-.144-.178-.374-.351-.643-.576-.538-.432-1.31-1.013-1.714-1.853a3.2 3.2 0 01-.307-1.44 4.49 4.49 0 01.125-.874 4.96 4.96 0 01.36-.941c.643-1.276 2.011-2.424 3.73-2.414.129 0 1.157-.01 2.025.442.418.24.797.561 1.1 1.219.312.638.48 1.641.47 2.813-.034 2.366-.787 5.328-1.92 8.342a54.091 54.091 0 01-.917 2.29c-.365.907-.71 1.838-.931 2.813a16.75 16.75 0 00-.36 6.014c.134 1.008.355 2.007.667 2.971.331.96.725 1.901 1.234 2.77s1.08 1.699 1.747 2.429c.317.384.686.71 1.032 1.056.379.307.73.648 1.128.917a14.452 14.452 0 004.92 2.357c1.671.446 3.283.58 4.743.561 1.464-.014 2.764-.23 3.907-.441.561-.14 1.085-.24 1.574-.384.49-.154.941-.284 1.339-.428.792-.312 1.417-.561 1.815-.782a68.8 68.8 0 01.624-.312 16.967 16.967 0 007.018-7.229c1.555-3.038 2.088-6.475 1.886-9.778a24.997 24.997 0 00-.878-4.848 28.888 28.888 0 00-1.109-3.024 28.532 28.532 0 003.192-.317c1.694-.268 3.379-.681 4.997-1.324 1.613-.639 3.177-1.503 4.526-2.669a12.01 12.01 0 001.839-1.949c.283-.355.499-.72.749-1.08.12-.183.244-.36.36-.547l.326-.572c.504-.883.95-1.819 1.272-2.817a45.853 45.853 0 004.272 2.438 62.246 62.246 0 004.723 2.074 87.27 87.27 0 009.759 3.173c6.619 1.723 13.464 2.784 20.41 2.721 0 0 3.657.01 7.402-.508.931-.154 1.872-.274 2.755-.471.441-.091.869-.177 1.281-.259l1.157-.288a25.084 25.084 0 001.786-.494l.825-.255c1.368-.485 2.338-1.123 2.861-1.81.533-.672.648-1.324.389-1.876-.249-.557-.83-.903-1.627-.989zM21.397 124.804c.994.888 1.7 2.03 1.95 3.264.1.619.086 1.253-.068 1.848-.149.59-.466 1.152-.86 1.473-.047.039-.095.053-.143.087l-.072.048-.106.038c-.134.058-.283.091-.422.13a2.47 2.47 0 01-.86.033c-.561-.072-1.075-.384-1.487-.859-.821-.965-1.273-2.342-1.56-3.705-.168-.682-.23-1.397-.336-2.098l-.087-1.07c-.029-.356-.062-.716-.058-1.066-.004-.139 0-.278 0-.418.23.068.461.13.687.212 1.262.446 2.434 1.195 3.422 2.083zm218.404 6.681c.005 0 .005 0 0 0zm.283.543a2.729 2.729 0 01-.182-.307c.12.009.245.024.369.043.14.057.293.062.423.149.557.254 1.027.739 1.315 1.349.13.268.216.566.283.868a15.04 15.04 0 01-1.497-1.276 6.119 6.119 0 01-.711-.826z" fill="url(#paint0_linear_1875_8259)"/><path d="M319.305 82.207c-.724-3.6-1.948-7.094-3.547-10.397a51.06 51.06 0 00-2.707-4.79 54.314 54.314 0 00-3.231-4.445 54.425 54.425 0 00-3.451-3.84c-.192-1.3-.264-2.611-.024-3.792.144-.735.447-1.373.864-1.781.418-.408.946-.6 1.555-.653 0 0 .322-.024.663 0s.691.106.72.106c.249.019.47-.605.643-1.397.173-.792.024-1.498-.398-1.536a6.489 6.489 0 00-1.152.091 7.551 7.551 0 00-1.076.264c-.998.312-2.006.975-2.582 1.915-.581.932-.754 1.954-.744 2.87.019 1.018.202 1.964.466 2.871a54.815 54.815 0 00-1.345-1.267c-1.459-5.712-4.008-9.672-5.793-9.005-1.963.735-1.531 3.005-1.531 3.005s-3.677-5.39-5.578-4.656c-.581.225-.864.672-.974 1.18l-.629-.306-1.282-.562a40.595 40.595 0 00-5.275-1.786 48.353 48.353 0 00-10.959-1.574s-.485-.01-1.339-.02c-.854.01-2.078.015-3.552.135-2.943.23-6.907.797-10.771 2.438-.965.404-1.916.913-2.828 1.479a14.496 14.496 0 00-2.553 2.069c-.188.21-.375.417-.557.624-.154.206-.307.408-.456.61-.149.201-.298.403-.442.604l-.216.298-.187.321c-.245.432-.494.836-.706 1.263-.187.441-.364.869-.542 1.281a11.598 11.598 0 00-.638 4.575c.086.6.158 1.104.24 1.469.11.364.182.604.216.71a8.534 8.534 0 002.784 4.003c.283.212.556.408.82.581.284.154.557.288.821.413.135.062.259.125.389.173.13.038.259.081.384.12.25.072.49.134.71.187.917.149 1.618.11 2.098-.082.475-.172.715-.417.759-.72.043-.302-.111-.628-.404-.96-.297-.307-.715-.7-1.224-1.104-.974-.868-2.299-2.05-2.952-3.998a43.164 43.164 0 00-.129-.384c-.048-.202-.077-.475-.149-.806a7.28 7.28 0 01.341-2.741c.11-.279.225-.567.345-.86.135-.292.317-.585.48-.892.144-.317.394-.6.6-.912.106-.154.216-.312.327-.466.11-.13.225-.26.34-.389a10.036 10.036 0 011.733-1.469 15.607 15.607 0 012.199-1.21c3.149-1.434 6.744-2.063 9.398-2.322 1.335-.14 2.458-.169 3.24-.193.783-.014 1.229-.01 1.229-.01 3.408.025 6.826.433 10.133 1.24 1.651.402 3.279.911 4.853 1.526l1.171.49 1.147.532c.768.38 1.541.773 2.295 1.19 6.058 3.322 11.597 7.676 16.061 12.937 4.469 5.251 7.771 11.506 9.274 18.235.782 3.356 1.075 6.821 1.013 10.282a48.772 48.772 0 01-1.33 10.311c-.85 3.36-2.059 6.633-3.749 9.662a34.479 34.479 0 01-2.822 4.359c-.504.705-1.08 1.353-1.632 2.025-.5.543-.999 1.095-1.522 1.618 2.035-3.202 3.168-6.994 3.461-10.791 0 0 .11-1.214.091-2.467a25.909 25.909 0 00-.154-2.645c-.139-.96-.926-1.373-1.708-1.171-.788.206-1.32.763-1.2 1.598.014.096.23 1.225.326 2.357.11 1.128.106 2.242.106 2.242-.01 4.21-1.114 8.482-3.586 11.971-1.085 1.589-2.429 2.981-3.941 4.196-3.6 2.27-7.584 3.974-11.717 5.097-3.389.893-6.864 1.503-10.387 1.709l-1.316.115-1.32.039c-.878.019-1.761.057-2.644.062l-2.645-.081-.663-.02-.657-.057-1.316-.115c-3.508-.332-6.993-.97-10.372-1.992-3.37-1.028-6.668-2.386-9.634-4.282-.672-.456-1.138.024-.456.566 3.019 2.016 6.341 3.456 9.754 4.57 3.417 1.109 6.955 1.829 10.526 2.237l1.339.144c.447.053.893.096 1.344.105l2.693.13c.898.024 1.795-.01 2.693-.01l1.349-.014 1.344-.086c3.586-.149 7.171-.692 10.68-1.546 3.499-.898 6.927-2.141 10.138-3.845.811-.408 1.584-.888 2.376-1.339.758-.499 1.541-.97 2.27-1.517.754-.514 1.46-1.09 2.175-1.656.686-.595 1.397-1.176 2.045-1.819a35.867 35.867 0 003.686-4.047c1.142-1.425 2.155-2.957 3.067-4.536 1.844-3.163 3.192-6.585 4.157-10.104a51.336 51.336 0 001.613-10.786c.139-3.672-.086-7.358-.85-10.949z" fill="url(#paint1_linear_1875_8259)"/><path d="M180.813 144.949a12.64 12.64 0 00-1.555-2.145c-.591-.658-1.263-1.224-1.954-1.743-1.411-1.008-2.957-1.733-4.536-2.246a22.982 22.982 0 00-2.477-.648c-.01-1.311-.317-3.139-1.978-3.063-2.573.125-5.208 1.901-5.208 1.901s.183-2.453-1.901-1.713c-1.224.432-2.188 1.622-2.779 2.529l-1.161.091-1.172.149-2.337.298c-3.106.494-6.183 1.113-9.212 1.915a91.464 91.464 0 00-8.923 2.895c-2.914 1.128-5.779 2.376-8.535 3.868-.115.063-.148.178-.134.298l-.653.36c-.105.062.106.456.221.432a58.23 58.23 0 0111.304-3.898 40.076 40.076 0 015.832-.897c1.944-.135 3.888-.077 5.746.24l.605.134c.369.067.84.216 1.315.351.466.163.941.326 1.286.484.346.159.591.269.629.288.648.308 1.33-.072 1.738-.777.408-.696.283-1.522-.557-1.911-.048-.019-.36-.129-.802-.288-.441-.153-1.022-.297-1.588-.436-.576-.111-1.143-.231-1.57-.269l-.706-.087a28.261 28.261 0 00-1.089-.062 98.567 98.567 0 015.285-.763l2.289-.197 1.148-.096 1.147-.043 2.294-.087c.759 0 1.522-.014 2.275.019 3.015.101 6.029.485 8.746 1.484 1.354.499 2.611 1.166 3.696 2.006 1.075.85 1.954 1.882 2.568 3.053a9.758 9.758 0 011.037 3.84c.043.672.029 1.358-.053 2.021-.014.173-.048.317-.081.461-.034.144-.043.288-.096.437-.096.292-.178.585-.317.868-.49 1.152-1.32 2.204-2.295 3.01a6.985 6.985 0 01-3.312 1.55s-.153.034-.427.068c-.278-.005-.667.067-1.147 0-.946-.063-2.261-.428-3.197-1.124-.936-.7-1.512-1.728-1.689-2.616-.197-.888-.092-1.54-.096-1.636.091-.86.086-1.551.009-2.17-.101-.619-.302-1.219-.773-1.623a1.284 1.284 0 00-.835-.316 1.67 1.67 0 00-.528.086 2.424 2.424 0 00-.288.11c-.091.048-.182.111-.278.173-.788.509-1.551 1.704-1.709 3.37.005.187-.139 1.421.312 3.077.398 1.651 1.665 3.677 3.485 4.891.461.278.912.586 1.392.768l.705.302c.236.077.471.14.701.207.231.062.456.134.677.182.226.034.442.072.658.106.211.033.417.062.619.091.206.01.403.014.59.019.754.053 1.383-.048 1.819-.086.221-.015.384-.072.5-.091.115-.024.177-.039.177-.039a10.67 10.67 0 004.949-2.52c1.363-1.224 2.467-2.717 3.135-4.449.355-.84.556-1.815.648-2.732.072-.883.057-1.757-.034-2.63a12.613 12.613 0 00-1.555-5.031z" fill="url(#paint2_linear_1875_8259)"/><path d="M11.591 100.861c.451.456.922-.019.562-.461-.84-.936-1.57-1.997-2.203-3.096a22.922 22.922 0 01-1.628-3.456 25.038 25.038 0 01-1.05-3.672c-.26-1.248-.4-2.515-.49-3.787-.264-5.103.864-10.205 2.832-14.929.979-2.366 2.155-4.66 3.456-6.864 1.29-2.179 2.899-4.147 4.68-5.933 1.776-1.795 3.83-3.302 5.98-4.632 1.066-.686 2.204-1.248 3.332-1.833l1.733-.788c.576-.264 1.18-.475 1.77-.71 4.753-1.829 9.798-2.89 14.881-3.494.423-.048.845-.087 1.267-.13 2.218-.038 4.43.01 6.639.173l.614.033.61.072 1.224.144 2.438.293 2.415.442 1.205.22c.398.082.792.193 1.19.289l2.371.59 2.328.73c.783.225 1.532.532 2.295.816l1.137.432c.375.153.74.326 1.11.49l.969.431c.586.255 1.334.667 2.107 1.051.759.409 1.507.845 2.079 1.19.561.356.964.61 1.027.649 1.08.691 1.992.576 2.515-.048.523-.624.254-1.675-.95-2.443-.072-.039-.519-.293-1.157-.653a44.74 44.74 0 00-2.31-1.157c-.844-.36-1.665-.758-2.303-.989l-1.051-.398c-.399-.149-.792-.312-1.196-.451l-1.214-.39c-.811-.254-1.608-.537-2.438-.729l-2.458-.629-.274-.052a81.48 81.48 0 012.837.33c2.535.342 5.074.774 7.47 1.402 2.442.658 4.866 1.488 7.262 2.39a107.628 107.628 0 017.944 3.366 80.93 80.93 0 012.222 1.065c1.839.888 4.258 2.165 6.672 3.514 1.196.691 2.405 1.373 3.524 2.064.561.34 1.104.677 1.622.994.514.326.998.643 1.454.93.917.577 1.671 1.1 2.237 1.484.567.38.931.629 1.032.696 1.723 1.18 3.192 1.915 4.311 2.266 1.123.34 1.934.254 2.304-.23.369-.486.23-1.273-.447-2.276-.667-1.013-1.905-2.189-3.7-3.418-.106-.067-.49-.316-1.081-.7-.595-.38-1.392-.903-2.347-1.474l-1.521-.922c-.543-.312-1.114-.638-1.7-.979-1.166-.681-2.428-1.349-3.676-2.03-2.516-1.32-5.031-2.564-6.941-3.423a65.873 65.873 0 00-2.31-1.032c-.56-.24-.878-.379-.878-.379a108.944 108.944 0 00-7.406-2.89c-2.506-.873-5.04-1.68-7.651-2.313-2.664-.639-5.29-1.013-7.93-1.306a101.99 101.99 0 00-7.93-.547 95.674 95.674 0 00-15.85.797 73.405 73.405 0 00-8.784 1.785c-.922-1.79-3.005-3.945-6.322-2.366-3.984 1.9-5.39 6.312-5.39 6.312s-2.573-2.266-3.984.245c-.821 1.464-1.119 2.98-1.23 4.003a29.256 29.256 0 00-3.014 2.755c-1.848 1.94-3.508 4.066-4.819 6.404a56.455 56.455 0 00-3.398 7.161c-1.915 4.92-2.972 10.258-2.568 15.562.441 5.27 2.37 10.498 5.942 14.439z" fill="url(#paint3_linear_1875_8259)"/><path d="M167.79 58.284c.979.067 1.953.106 2.923.23.974.087 1.934.26 2.899.408.96.197 1.92.36 2.866.61 3.801.907 7.478 2.309 11.054 3.946 0 0 1.877.883 3.764 1.867 1.881.989 3.777 2.074 3.945 2.155 1.426.763 2.693.327 3.284-.744.585-1.065.249-2.371-1.229-3.163a134.805 134.805 0 00-4.205-1.954c-2.021-.883-4.037-1.66-4.037-1.66-1.93-.73-3.874-1.43-5.87-1.997-1.988-.581-4.009-1.076-6.053-1.426-1.018-.202-2.055-.312-3.082-.456-1.037-.091-2.064-.206-3.106-.235-1.036-.067-2.073-.043-3.105-.048-1.037.053-2.064.062-3.101.192-4.147.398-8.112 1.502-11.957 2.818a87.104 87.104 0 00-11.156 4.833c-.216.115.077.715.303.658.173-.077.345-.144.518-.216.029.024.063.038.096.029 2.635-1.028 5.396-1.772 8.17-2.31a45.98 45.98 0 018.405-.863 27.65 27.65 0 014.152.235c1.358.178 2.688.5 3.878 1.022 1.196.504 2.204 1.292 2.775 2.213.259.475.398.975.427 1.488-.005.13-.005.26-.005.389l-.067.394c-.009.139-.067.25-.101.364-.033.12-.067.24-.134.336l-.082.15c-.033.105-.158.196-.254.345-.24.25-.634.523-1.119.629-.48.12-1.012.067-1.358-.053-.187-.039-.307-.14-.413-.173-.086-.062-.144-.1-.158-.11-.077-.034-.139-.077-.197-.11-.062-.034-.139-.049-.206-.068-.12-.053-.298-.058-.452-.077-.312-.033-.729-.019-1.104.13-.374.149-.638.451-.667.96-.014.254.082.523.231.83.081.15.196.279.326.423.13.144.283.278.466.384.043.024.192.12.432.25.249.09.576.268.984.345a5.302 5.302 0 002.87-.087 4.954 4.954 0 002.357-1.584c.216-.321.422-.58.504-.792l.144-.316c.048-.11.101-.221.139-.332l.091-.34c.053-.226.13-.456.144-.677l.068-.667-.029-.682a5.786 5.786 0 00-.888-2.544c-1.018-1.469-2.487-2.357-3.941-2.89-1.464-.542-2.962-.797-4.445-.907a28.12 28.12 0 00-4.406.01c-1.877.13-3.735.384-5.573.739 3.739-1.008 7.56-1.786 11.347-1.906.974-.062 1.963-.005 2.938.005z" fill="url(#paint4_linear_1875_8259)"/><path d="M289.012 58.356c-1.056-.998-2.246-1.79-3.508-2.486-.101-.058-.207-.11-.312-.168-2.204-1.368-4.57-2.496-7.105-3.25-4.08-1.229-8.592-1.368-12.825-.149 0 0-1.114.298-2.213.754-1.104.437-2.184 1.027-2.275 1.09-.793.484-.836 1.368-.313 1.992.519.624 1.205.912 1.858.513.072-.048.941-.629 1.872-1.099.922-.485 1.887-.84 1.887-.84 3.153-1.195 6.643-1.536 10.065-1.066l-.139.005c-.369.02-.749 0-1.113.067l-1.104.15c-.37.047-.744.095-1.1.196 0 0-.763.182-1.545.365-.768.22-1.532.523-1.599.542-.566.24-.59.965-.23 1.695.36.73.917 1.21 1.406 1.003.058-.015.691-.365 1.33-.653.653-.25 1.296-.494 1.296-.494.302-.135.619-.212.936-.293l.95-.255c.317-.1.644-.12.97-.177l.979-.154c1.311-.091 2.655-.13 3.984.091.672.068 1.32.245 1.987.39.648.196 1.306.378 1.935.642.442.178.878.375 1.31.586.821.475 1.632.98 2.42 1.517.115.043.379-.317.278-.394l-.072-.057c-.01-.03-.005-.048-.01-.063z" fill="url(#paint5_linear_1875_8259)"/><path d="M88.839 45.578c.105.039 1.305.475 2.481.898l2.324.883c7.809 3.101 15.451 6.71 22.776 10.91a13.216 13.216 0 009 3.529c3.264 0 6.255-1.186 8.573-3.15a96.441 96.441 0 0110.143-4.089c4.752-1.593 9.619-2.841 14.553-3.619 4.93-.792 9.927-1.008 14.924-.874a30.18 30.18 0 011.867.082l1.862.11 1.849.188.926.096.917.139c2.453.331 4.853.883 7.195 1.627 2.343.74 4.608 1.7 6.855 2.78 2.246 1.075 4.497 2.24 6.821 3.316l6.912 3.135c2.318 1.036 4.675 2.05 7.128 2.904 2.453.854 5.016 1.526 7.637 1.89 2.625.36 5.27.423 7.901.24 2.683-.186 5.467-.8 8.001-2.28.159-.09.317-.177.476-.273l.451-.326c.293-.226.605-.427.883-.682l.816-.782c.269-.264.49-.581.73-.874a10.738 10.738 0 001.924-4.147l.173-1.1c.053-.35.043-.777.067-1.271.02-.245-.019-.504-.033-.778-.024-.274-.039-.566-.087-.86-.192-1.19-.556-2.534-1.353-3.94a8.966 8.966 0 00-3.653-3.475c-1.565-.802-3.346-1.157-5.035-.984-1.685.163-3.293.83-4.455 1.862-.302.235-.542.538-.777.811-.255.288-.399.528-.552.764-.159.23-.293.465-.408.696-.12.23-.236.432-.317.652a38.32 38.32 0 00-.231.576c-.057.183-.1.346-.144.49-.081.278-.12.475-.129.562a5.939 5.939 0 000 2.16c.067.34.168.672.283.974.139.298.254.59.427.84.648 1.023 1.483 1.58 2.165 1.853.696.26 1.262.274 1.661.154.403-.12.633-.337.734-.624.211-.586-.153-1.268-.518-2.026-.173-.389-.331-.787-.408-1.186-.087-.398-.087-.797 0-1.358 0-.034.014-.11.048-.23.014-.063.033-.13.053-.212.033-.081.067-.173.105-.273.149-.38.538-1.085.893-1.402.413-.398 1.123-.758 2.002-.878.873-.135 1.881.038 2.736.441a4.903 4.903 0 012.069 1.839c.475.763.796 1.694.94 2.476.053.197.048.384.077.567.015.178.053.35.048.509-.009.321.005.6-.009.825l-.092.71c-.36 1.945-1.56 3.673-3.374 4.796-1.805 1.133-4.056 1.757-6.384 1.982a35.19 35.19 0 01-7.215-.019c-2.39-.259-4.752-.816-7.089-1.555-.384-.12-.764-.254-1.148-.384.125-3.269-1.665-4.589-1.665-4.589-6.13 1.714-9.13-.182-9.13-.182s2.39-2.51 0-2.943c-1.613-.288-4.752.12-6.629.413-.734-.34-1.474-.682-2.222-1.018-2.328-1.046-4.738-2.001-7.224-2.721a44.643 44.643 0 00-7.58-1.522l-.955-.12-.96-.077-1.915-.148-1.916-.068a31.84 31.84 0 00-1.915-.033c-5.088-.01-10.2.34-15.211 1.272a85.986 85.986 0 00-8.309 1.968c.072-.787.12-1.58.12-2.367 0-10.233-6.211-19.037-15.058-22.853a6.034 6.034 0 002.525-.61 6.199 6.199 0 002.501-2.328c.072-.124-.322-.34-.404-.264a5.615 5.615 0 01-2.395 1.916c-.945.384-1.987.451-2.99.259-.994-.197-1.997-.6-2.813-1.157a4.181 4.181 0 01-1.69-2.208c-.254-.878-.201-1.843.125-2.736.063-.226.183-.437.274-.658.12-.196.225-.441.36-.59.23-.36.537-.605.873-.778.658-.35 1.556-.34 2.357-.043.394.14.778.365 1.003.581a1.578 1.578 0 01.389.936c.005.082.029.197.015.34-.005.28-.082.673-.24.923-.164.259-.317.316-.423.335-.077-.014-.115.024-.182 0-.063-.014-.101-.014-.111-.014-.196-.02-.451.091-.724.254a2.228 2.228 0 00-.711.84c-.177.365-.211.75-.033 1.105.163.36.59.681 1.291.734.043 0 .192.005.427-.005.226.005.576-.086.95-.192.188-.081.384-.173.586-.283.197-.115.374-.274.562-.427.177-.159.316-.35.47-.538.139-.192.235-.394.346-.595.379-.816.432-1.632.393-2.223-.009-.297-.062-.542-.096-.71a5.884 5.884 0 00-.057-.264c-.202-.73-.586-1.454-1.248-2.03-.624-.5-1.258-.764-1.911-.956a5.904 5.904 0 00-2.035-.201 4.665 4.665 0 00-2.016.653 4.216 4.216 0 00-1.464 1.502c-.197.293-.293.571-.432.86-.101.297-.23.585-.298.892-.341 1.21-.326 2.549.13 3.754a5.607 5.607 0 001.843 2.38 24.957 24.957 0 00-4.747-.494c.009-3.1.024-6.902.029-10.498l4.008-6.072-4.263-6.768-4.262 6.768 4.032 6.11c-.005 3.682-.019 7.527-.029 10.465-1.55.014-3.062.173-4.536.46a5.65 5.65 0 001.723-2.308c.461-1.22.471-2.578.125-3.792-.067-.312-.197-.6-.302-.898-.144-.288-.236-.566-.437-.864a4.28 4.28 0 00-1.474-1.517 4.672 4.672 0 00-2.03-.662 5.92 5.92 0 00-2.04.202c-.658.187-1.292.456-1.916.955a3.946 3.946 0 00-1.252 2.025s-.029.096-.063.27c-.033.172-.091.412-.101.714-.038.596.01 1.412.384 2.233.111.201.212.407.346.6.154.187.293.379.47.542.188.154.37.312.562.427.202.106.403.202.59.283.375.106.725.197.956.192.235.005.388.005.427.005.701-.057 1.128-.38 1.291-.734.178-.355.144-.74-.033-1.104a2.228 2.228 0 00-.711-.84c-.269-.168-.528-.274-.725-.255-.009 0-.048 0-.11.015-.067.019-.106-.02-.183 0-.105-.024-.259-.077-.422-.336-.158-.25-.24-.639-.24-.917-.014-.144.005-.26.014-.336.01-.082.01-.13.01-.13.053-.345.211-.638.365-.816.221-.22.605-.446.998-.595.807-.307 1.709-.326 2.381.02.341.167.653.422.893.777.134.153.24.393.365.595.091.22.216.432.283.662.336.898.398 1.877.149 2.775a4.258 4.258 0 01-1.704 2.26c-.821.572-1.829.985-2.842 1.191-1.013.202-2.078.14-3.053-.25a5.735 5.735 0 01-2.462-1.948c-.067-.096-.466.1-.413.25a6.36 6.36 0 002.563 2.37 6.057 6.057 0 002.371.6c-8.433 3.735-14.419 12.015-14.822 21.72a201.935 201.935 0 00-5.933-3l-2.27-1.074a128.312 128.312 0 00-2.453-1.104c-.908-.356-1.656.072-1.935.835-.278.773-.029 1.565.855 1.91zm47.976 9.759l1.018.585c-.706.313-1.406.634-2.107.96.398-.49.763-1.003 1.089-1.545zm.236-.418c.48-.869.864-1.795 1.142-2.77l5.395 1.431a106.961 106.961 0 00-5.213 2.098l-1.324-.759zm1.267-3.23c.23-.941.36-1.925.379-2.933h6.643a20.196 20.196 0 01-.499 4.243l.231.053-.692.245-6.062-1.608zm.379-3.413a13.355 13.355 0 00-.394-2.995l6.418-1.733c.389 1.512.6 3.1.619 4.728h-6.643zm-.523-3.456a13.338 13.338 0 00-1.157-2.765l5.741-3.336a19.861 19.861 0 011.824 4.363l-6.408 1.738zm-1.392-3.178a13.556 13.556 0 00-1.805-2.337l4.694-4.695a19.77 19.77 0 012.852 3.696l-5.741 3.336zm-2.146-2.678a13.12 13.12 0 00-2.395-1.839l3.307-5.76a20.082 20.082 0 013.783 2.9l-4.695 4.699zm-2.813-2.079a13.225 13.225 0 00-2.769-1.142l1.704-6.423a19.568 19.568 0 014.373 1.805l-3.308 5.76zm-3.23-1.267a13.41 13.41 0 00-2.933-.38v-6.642c1.598.019 3.149.225 4.632.6l-1.699 6.422zm-3.413-.38c-1.032.02-2.035.154-2.995.395l-1.733-6.418c1.512-.389 3.101-.6 4.728-.62v6.644zm-5.189-5.889l1.733 6.413c-.97.283-1.896.672-2.765 1.157l-3.336-5.74a19.676 19.676 0 014.368-1.83zm-4.781 2.064l3.336 5.741a13.566 13.566 0 00-2.337 1.805l-4.695-4.695a20.192 20.192 0 013.696-2.85zm-4.037 3.192l4.695 4.695a13.142 13.142 0 00-1.839 2.395l-5.76-3.307a20.293 20.293 0 012.904-3.783zm-3.139 4.2l5.76 3.308c-.48.868-.864 1.795-1.142 2.77l-6.423-1.705a19.69 19.69 0 011.805-4.373zm6.619 17.473c-.331-.216-.662-.437-.993-.648l.403-.236c.182.303.384.596.59.884zm-1.444-.946a170.493 170.493 0 00-3.682-2.27l3.144-.85c.283.97.672 1.896 1.157 2.765l-.619.355zM106.1 43.644l6.422 1.704c-.23.94-.36 1.925-.379 2.933h-6.638a19.87 19.87 0 01.595-4.637zm-.6 5.112h6.643c.019 1.032.154 2.035.394 2.995l-3.591.97a177.24 177.24 0 00-3.321-1.935 21.744 21.744 0 01-.125-2.03zm8.078-.24c0-6.528 5.314-11.842 11.842-11.842 6.528 0 11.842 5.314 11.842 11.842 0 6.528-5.314 11.842-11.842 11.842-6.528 0-11.842-5.314-11.842-11.842zM125.42 25.14c13.191 0 23.919 10.728 23.919 23.918 0 .884-.053 1.776-.149 2.655a102.63 102.63 0 00-3.326 1.065c.288-1.396.441-2.822.441-4.262 0-11.515-9.37-20.885-20.885-20.885-11.515 0-20.885 9.37-20.885 20.885 0 .566.024 1.128.067 1.694a190.387 190.387 0 00-3.086-1.684c.288-12.946 10.896-23.386 23.904-23.386z" fill="url(#paint6_linear_1875_8259)"/><path d="M246.079 144.354a1.287 1.287 0 10.001 2.573 1.287 1.287 0 00-.001-2.573z" fill="url(#paint7_linear_1875_8259)"/><path d="M251.44 146.682a2.053 2.053 0 00-2.054 2.055 2.054 2.054 0 102.054-2.055z" fill="url(#paint8_linear_1875_8259)"/><path d="M311.971 101.235c0 .667.537 1.205 1.205 1.205.667 0 1.204-.538 1.204-1.205s-.537-1.205-1.204-1.205c-.663 0-1.205.538-1.205 1.205z" fill="url(#paint9_linear_1875_8259)"/><path d="M312.811 94.208c-.869 0-1.575.705-1.575 1.574a1.576 1.576 0 003.149 0 1.578 1.578 0 00-1.574-1.574z" fill="url(#paint10_linear_1875_8259)"/><path d="M311.029 87.305a2.145 2.145 0 100 4.292 2.145 2.145 0 100-4.292z" fill="url(#paint11_linear_1875_8259)"/><path d="M18.859 66.775a1.104 1.104 0 100-2.208 1.104 1.104 0 000 2.208z" fill="url(#paint12_linear_1875_8259)"/><path d="M21.983 62.335A1.314 1.314 0 1023.3 61.02a1.311 1.311 0 00-1.316 1.315z" fill="url(#paint13_linear_1875_8259)"/><path d="M27.071 59.21a1.62 1.62 0 001.623 1.623 1.62 1.62 0 001.622-1.622 1.62 1.62 0 00-1.622-1.623 1.62 1.62 0 00-1.623 1.623z" fill="url(#paint14_linear_1875_8259)"/><path d="M121.215 13.61a.96.96 0 100-1.92.96.96 0 000 1.92zm8.415 0a.96.96 0 100-1.92.96.96 0 000 1.92z" fill="#956D49"/><path d="M122.239 54.581l-.005.008-.371.462.523.286c.36.196.88.365 1.408.484.534.12 1.12.201 1.625.202.971.003 2.106-.188 3.031-.684l.529-.284-.373-.466-.006-.008-.034-.05a3.04 3.04 0 01-.147-.245 7.281 7.281 0 01-.486-1.14c-.352-1.03-.727-2.678-.809-5.125a3.63 3.63 0 001.921-3.201 3.622 3.622 0 00-3.625-3.625 3.622 3.622 0 00-3.625 3.625c0 1.385.778 2.59 1.921 3.2-.083 2.448-.458 4.095-.809 5.126-.183.538-.36.91-.487 1.14a3.108 3.108 0 01-.181.295z" stroke="url(#paint15_linear_1875_8259)"/><g opacity=".5"><path d="M286.567 113.898h-2.112l1.08-1.814 2.578-4.33V97.722h-7.911v1.968h4.863v11.559l-2.746 4.617h12.091l-1.171-1.968h-6.672z" fill="url(#paint16_linear_1875_8259)"/><path d="M288.113 81.531l-1.061-1.776h-4.733l2.746 4.613v4.171h3.048v-7.008z" fill="url(#paint17_linear_1875_8259)"/><path d="M269.651 113.898h-2.107l1.08-1.814 2.573-4.33V81.531l-1.056-1.776h-4.738l2.746 4.613v26.88l-2.746 4.618H277.5l-1.172-1.968h-6.677z" fill="url(#paint18_linear_1875_8259)"/><path d="M122.341 113.898h-2.107l1.075-1.814 2.578-4.33v-5.856l-7.91-9.605v6.442l4.862 5.899v6.614l-2.746 4.618h12.092l-1.171-1.968h-6.673z" fill="url(#paint19_linear_1875_8259)"/><path d="M105.431 113.898h-2.112l1.08-1.814 2.573-4.33V81.531l-1.057-1.776h-4.732l2.74 4.613v26.88l-2.74 4.618h12.091l-1.171-1.968h-6.672z" fill="url(#paint20_linear_1875_8259)"/><path d="M123.887 81.531l-1.056-1.776h-4.737l.787 1.32 5.006 6.077v-5.62z" fill="url(#paint21_linear_1875_8259)"/><path d="M69.997 113.898l1.076-1.814 2.63-4.421 4.454-26.185-1.022-1.723h-4.738l2.746 4.613h.034l-4.575 26.88-2.746 4.618h12.092l-1.167-1.968h-8.784z" fill="url(#paint22_linear_1875_8259)"/><path d="M86.907 113.898l1.08-1.814 2.515-4.234-.676-3.979-6.754 1.833-.135.811 3.605-.979.97 5.712-2.746 4.618h12.096l-1.17-1.968h-8.785z" fill="url(#paint23_linear_1875_8259)"/><path d="M86.606 84.94l-1.78 10.492.124.759 3.413-.927-1.757-10.325z" fill="url(#paint24_linear_1875_8259)"/><path d="M250.831 84.94l-1.786 10.492.13.759 3.412-.927-1.756-10.325z" fill="url(#paint25_linear_1875_8259)"/><path d="M251.134 113.898l1.075-1.814 2.52-4.234-.677-3.979-6.754 1.833-.134.811 3.6-.979.974 5.712-2.745 4.618h12.091l-1.166-1.968h-8.784z" fill="url(#paint26_linear_1875_8259)"/><path d="M234.218 113.898l1.08-1.814 2.631-4.421 4.454-26.185-1.022-1.723h-4.738l2.746 4.613h.028l-4.569 26.88-2.746 4.618h12.091l-1.171-1.968h-8.784z" fill="url(#paint27_linear_1875_8259)"/><path d="M168.962 94.357c0-4.526 1.248-8.693 3.331-12-2.51 2.14-4.464 5.256-5.515 8.918.168 1.128.264 2.333.264 3.634 0 2.453-.298 4.58-.812 6.442 1.388 8.246 7.162 14.434 14.079 14.434 2.52 0 4.887-.826 6.951-2.266-.879.192-1.781.298-2.703.298-8.597 0-15.595-8.732-15.595-19.46z" fill="url(#paint28_linear_1875_8259)"/><path d="M189.918 94.357c0-6.586-2.822-11.18-5.357-11.18-1.046 0-2.136.792-3.062 2.175 3.053 1.051 5.371 6.1 5.371 12.173 0 2.976-.557 5.707-1.483 7.843 2.28-.854 4.531-5.131 4.531-11.011z" fill="url(#paint29_linear_1875_8259)"/><path d="M52.28 126.23c-.768-.418-1.939-.989-3.49-1.695a15.868 15.868 0 00-6.638-1.444h-4.55l1.133-1.834 2.75-4.44V82.271l-1.18-1.906h-4.091c.039.086.082.173.125.264l.029.062.024.068c.034.096.22.662.187 1.339l1.858 3v35.228l-2.928 4.733h2.395c2.462 0 4.896.528 7.138 1.55 1.286.586 2.645 1.229 3.566 1.733a4.105 4.105 0 003.284.278l3.307-1.128-.202-.624c-.062 0-.125.01-.187.01a5.41 5.41 0 01-2.53-.648z" fill="url(#paint30_linear_1875_8259)"/><path d="M46.534 72.076c9.25 2.088 12.98 10.104 9.95 16.334.831-.552 1.58-1.272 2.242-2.16 1.901-2.558 2.357-5.731 1.258-8.707-1.368-3.692-4.814-6.413-9.46-7.46a20.15 20.15 0 00-4.427-.499c-3.36 0-6.326.888-8.285 2.405 2.626-.6 5.665-.605 8.722.087z" fill="url(#paint31_linear_1875_8259)"/><path d="M50.932 99.124v2.323c2.822-.106 5.894-.888 8.611-2.621a19.074 19.074 0 01-5.016.667 17.723 17.723 0 01-3.595-.37z" fill="url(#paint32_linear_1875_8259)"/><path d="M26.043 79.726c-1.186-2.04-2.055-5.496.533-10.397.038-.076.09-.148.13-.22-1.383 1.113-2.516 2.428-3.318 3.95-4.963 9.413 3.37 13.397 5.904 13.484 2.535.081 1.714-2.209 1.714-2.209-.081-.163-.144-.321-.216-.48-1.709-.763-3.585-2.13-4.747-4.128z" fill="url(#paint33_linear_1875_8259)"/><path d="M145.78 113.898h-9.134l1.08-1.814 2.577-4.335V81.527l-1.056-1.776h-4.737l2.745 4.617v26.881l-2.745 4.617h9.35c1.436 0 6.317-.177 10.594-2.889-2.818.811-5.29.921-6.346.921h-2.328z" fill="url(#paint34_linear_1875_8259)"/><path d="M157.407 94.477c0-7.435-4.627-9.399-8.107-9.821v3.235c2.64 1.397 5.059 4.19 5.059 9.754 0 2.558-.456 4.565-1.176 6.149 2.179-1.397 4.224-4.094 4.224-9.317z" fill="url(#paint35_linear_1875_8259)"/><path d="M203.281 113.898h-2.112l1.08-1.814 2.573-4.33V81.531l-1.056-1.776h-4.733l2.741 4.613v26.88l-2.741 4.618h12.092l-1.172-1.968h-6.672z" fill="url(#paint36_linear_1875_8259)"/><path d="M225.37 123.882c-3.585-2.592-4.881-7.349-6.139-11.947-.734-2.683-1.426-5.218-2.515-7.143-.634-1.113-1.771-1.665-2.89-1.929v4.886l2.578 4.335 1.08 1.814h-1.579c1.286 4.666 2.462 9.677 5.928 12.183 3.398 2.457 8.222 2.553 11.131-.183a10.36 10.36 0 01-1.181.072c-2.275 0-4.55-.744-6.413-2.088z" fill="url(#paint37_linear_1875_8259)"/><path d="M218.805 91.602c0 .456-.043.878-.11 1.272 3.158-1.114 3.158-3.5 3.158-4.44 0-3.701-2.39-4.325-7.743-4.325h-.278v2.174c2.914.423 4.973 1.68 4.973 5.319z" fill="url(#paint38_linear_1875_8259)"/></g><path d="M296.391 80.547l2.746-4.618h-12.092l2.746 4.618v8.54H279.48v-8.54l2.746-4.618H270.13l2.746 4.618v26.881l-2.746 4.617h12.096l-2.746-4.617V95.864h10.311v11.564l-2.746 4.617h12.092l-2.746-4.617v-26.88z" fill="url(#paint39_linear_1875_8259)"/><path d="M295.961 80.292l-.07.118v27.155l.07.118 2.297 3.862h-10.334l2.297-3.862.07-.118V95.364H278.98v12.201l.071.118 2.296 3.862h-10.338l2.296-3.862.071-.118V80.41l-.071-.118-2.296-3.863h10.338l-2.296 3.863-.071.118v9.177h11.311V80.41l-.07-.118-2.297-3.863h10.334l-2.297 3.863z" stroke="#fff" stroke-opacity=".25" style="mix-blend-mode:overlay"/><path d="M134.912 75.93h-12.091l2.745 4.617v9.293l-10.31-12.514-1.152-1.397h-8.194l2.741 4.618v26.881l-2.741 4.617h12.092l-2.746-4.617V88.294l10.31 12.514v6.62l-2.745 4.617h12.091l-2.741-4.617v-26.88l2.741-4.619z" fill="url(#paint40_linear_1875_8259)"/><path d="M134.034 111.545H123.7l2.296-3.862.07-.118v-6.936l-.114-.139-10.31-12.513-.886-1.076v20.664l.07.118 2.297 3.862h-10.335l2.293-3.862.07-.118V80.41l-.07-.118-2.293-3.863h7.08l1.002 1.215h0l10.311 12.514.885 1.075V80.41l-.07-.118-2.296-3.863h10.334l-2.293 3.863-.07.118v27.155l.07.118 2.293 3.862z" stroke="#fff" stroke-opacity=".25" style="mix-blend-mode:overlay"/><path d="M93.487 75.93H77.124l2.746 4.617h.033l-4.574 26.881-2.746 4.617h12.091l-2.745-4.617.566-3.336 8.77-2.381.974 5.717-2.745 4.617h12.091l-2.745-4.617-5.353-31.499zm-9.825 21.33l2.841-16.714h1.162l2.54 14.938-6.543 1.776z" fill="url(#paint41_linear_1875_8259)"/><path d="M100.706 111.545H90.373l2.296-3.862.094-.158-.03-.181-.975-5.717-.093-.543-.531.144-8.77 2.381-.308.084-.054.315-.566 3.336-.031.181.094.158 2.296 3.862H73.462l2.296-3.862.048-.08.016-.092 4.574-26.88.1-.584h-.342l-2.151-3.618h15.062l5.282 31.082.015.092.048.08 2.296 3.862zM83.169 97.177l-.132.771.756-.204 6.542-1.776.438-.12-.076-.447-2.54-14.938-.07-.416h-2.006l-.07.416-2.842 16.714z" stroke="#fff" stroke-opacity=".25" style="mix-blend-mode:overlay"/><path d="M263.069 107.428l-5.357-31.499h-16.364l2.746 4.618h.034l-4.575 26.881-2.745 4.617h12.091l-2.746-4.617.567-3.336 8.77-2.381.974 5.717-2.746 4.617h12.092l-2.741-4.617zm-15.183-10.167l2.842-16.714h1.161l2.54 14.938-6.543 1.776z" fill="url(#paint42_linear_1875_8259)"/><path d="M262.576 107.511l.015.092.048.08 2.293 3.862h-10.335l2.297-3.862.094-.158-.031-.181-.975-5.717-.092-.543-.531.144-8.77 2.381-.309.084-.053.315-.567 3.336-.03.181.094.158 2.296 3.862h-10.333l2.296-3.862.048-.08.015-.092 4.575-26.88.099-.584h-.341l-2.152-3.618h15.063l5.286 31.082zm-15.183-10.334l-.131.771.755-.204 6.543-1.776.438-.12-.076-.447-2.54-14.938-.07-.416h-2.006l-.071.416-2.842 16.714z" stroke="#fff" stroke-opacity=".25" style="mix-blend-mode:overlay"/><path d="M185.039 75.44c-7.954 0-14.4 8.175-14.4 18.26 0 10.084 6.446 18.259 14.4 18.259 7.954 0 14.4-8.175 14.4-18.26 0-10.084-6.446-18.26-14.4-18.26zm0 30.639c-3.619 0-6.557-5.544-6.557-12.38 0-6.835 2.938-12.379 6.557-12.379s6.557 5.544 6.557 12.38c0 6.835-2.938 12.379-6.557 12.379z" fill="url(#paint43_linear_1875_8259)"/><path d="M171.139 93.7c0-9.927 6.326-17.76 13.9-17.76 7.573 0 13.9 7.834 13.9 17.76 0 9.925-6.327 17.759-13.9 17.759-7.574 0-13.9-7.834-13.9-17.76zm6.843 0c0 3.482.747 6.661 1.979 8.986 1.221 2.304 2.992 3.893 5.078 3.893 2.086 0 3.857-1.589 5.077-3.893 1.233-2.325 1.98-5.504 1.98-8.987 0-3.482-.747-6.66-1.98-8.987-1.22-2.303-2.991-3.892-5.077-3.892s-3.857 1.589-5.078 3.892c-1.232 2.326-1.979 5.505-1.979 8.987z" stroke="#fff" stroke-opacity=".25" style="mix-blend-mode:overlay"/><path d="M60.471 64.51c-11.52-6.293-27.634-4.229-32.352 4.719-4.963 9.413 3.37 13.397 5.904 13.483 2.534.082 1.714-2.208 1.714-2.208-4.575-9.23 5.39-14.544 15.523-12.255 10.133 2.29 13.647 11.684 8.904 18.058-3.091 4.157-7.34 4.272-9.955 3.83v-8.865l2.928-4.733H40.23l2.928 4.733V116.5l-2.928 4.733h2.395c2.462 0 4.896.528 7.138 1.55 1.286.586 2.644 1.229 3.566 1.733a4.105 4.105 0 003.283.278l3.307-1.128-.49-1.531c-1.56.418-3.23 0-4.406-1.109l-4.814-4.521V96.891c4.718 1.618 12.71.86 17.635-5.03 6.701-8.007 4.148-21.058-7.372-27.35z" fill="url(#paint44_linear_1875_8259)"/><path d="M49.709 90.56v-9.43l.075-.121 2.456-3.97H41.127l2.456 3.97.075.12v35.514l-.075.121-2.456 3.97h1.498a17.7 17.7 0 017.345 1.595s0 0 0 0l-.207.455c1.286.586 2.644 1.229 3.566 1.733a4.105 4.105 0 003.283.278L49.71 90.56zm0 0l.417.07c2.708.458 7.189.347 10.44-4.024 2.483-3.339 2.804-7.475 1.18-11.066-1.624-3.59-5.175-6.603-10.376-7.778-5.164-1.167-10.34-.412-13.67 1.883-1.673 1.153-2.893 2.706-3.377 4.605-.483 1.89-.221 4.066.95 6.444a1.741 1.741 0 01.06.253c.031.18.046.396.007.594a.7.7 0 01-.274.456c-.161.117-.463.233-1.026.215-.539-.018-1.463-.254-2.482-.766-1.01-.508-2.075-1.268-2.911-2.294a6.845 6.845 0 01-1.557-3.894c-.115-1.586.264-3.507 1.471-5.796 2.256-4.277 7.28-6.977 13.253-7.813 5.959-.834 12.758.208 18.418 3.3 11.294 6.17 13.692 18.869 7.229 26.591h0c-4.767 5.701-12.528 6.442-17.09 4.878l-.662-.227v20.53l.158.148 4.813 4.521s0 0 0 0a5.166 5.166 0 004.412 1.33l.202.631-2.843.97m-6.742-33.76l6.742 33.76m0 0s0 0 0 0a3.604 3.604 0 01-2.883-.244l2.883.244z" stroke="#fff" stroke-opacity=".25" style="mix-blend-mode:overlay"/><path d="M148.016 75.93h-8.785l2.746 4.617v26.881l-2.746 4.617h9.351c2.707 0 17.736-.633 17.736-17.789 0-17.266-16.723-18.327-18.302-18.327zm.566 29.904V82.712c3.014.096 10.507 1.32 10.507 11.112-.004 12.317-10.507 12.01-10.507 12.01z" fill="url(#paint45_linear_1875_8259)"/><path d="M142.477 80.547v-.137l-.07-.118-2.297-3.863h7.906c.742 0 5.224.259 9.501 2.627 4.24 2.346 8.301 6.771 8.301 15.2 0 4.214-.922 7.38-2.321 9.764-1.4 2.384-3.293 4.013-5.277 5.128-3.982 2.239-8.311 2.397-9.638 2.397h-8.472l2.297-3.862.07-.118V80.548zm5.605 25.287v.486l.485.014.015-.5-.014.5h.137a11.382 11.382 0 001.6-.151 11.758 11.758 0 003.772-1.298 9.894 9.894 0 003.801-3.738c1.037-1.791 1.71-4.17 1.711-7.323v0c0-5.046-1.942-7.96-4.34-9.605-2.365-1.62-5.104-1.957-6.651-2.007l-.516-.016v23.638z" stroke="#fff" stroke-opacity=".25" style="mix-blend-mode:overlay"/><path d="M231.23 114.657c-2.175-4.719-3.601-13.052-9.313-16.249 3.96-.83 8.732-3.398 8.732-11.078 0-10.541-11.184-11.396-13.205-11.396h-13.69l2.746 4.618v26.88l-2.746 4.618h12.096l-2.746-4.618v-6.614c1.709.134 3.989.715 5.137 2.731 3.062 5.391 3.076 14.924 8.313 18.711 4.863 3.514 12.644 2.208 13.565-5.333-.004 0-6.254 3.451-8.889-2.27zm-16.239-20.65h-1.887V82.256c5.449-.038 10.426-.14 10.426 5.52 0 6.048-6.456 6.23-8.539 6.23z" fill="url(#paint46_linear_1875_8259)"/><path d="M220.509 98.193l1.306-.274c1.925-.404 4.003-1.221 5.598-2.833 1.582-1.6 2.736-4.03 2.736-7.756 0-2.542-.673-4.47-1.691-5.944-1.021-1.477-2.409-2.522-3.878-3.26-2.951-1.482-6.165-1.692-7.136-1.692h-12.811l2.296 3.862.071.119v27.155l-.071.118-2.296 3.862h10.338l-2.296-3.862-.071-.118v-7.293l.54.042c1.749.138 4.255.741 5.531 2.983h0c.794 1.398 1.382 3.047 1.899 4.768.259.863.502 1.75.744 2.638l.035.125c.231.848.462 1.696.709 2.531 1.042 3.535 2.319 6.707 4.785 8.491 2.312 1.67 5.311 2.187 7.819 1.406 2.262-.703 4.16-2.469 4.807-5.492-.064.025-.13.051-.199.076a9.637 9.637 0 01-2.574.591c-1.008.079-2.134-.031-3.195-.564-1.068-.537-2.029-1.484-2.73-3.006l-10.266-16.673zm0 0l1.164.652m-1.164-.652l1.164.652m0 0c2.71 1.516 4.439 4.273 5.769 7.317m-5.769-7.317l5.769 7.317m0 0c.663 1.517 1.217 3.084 1.747 4.581m-1.747-4.581l1.747 4.581m0 0l.01.027m-.01-.027l.01.027m0 0c.523 1.479 1.025 2.898 1.576 4.096l-1.576-4.096zm-16.595-16.763v.5h2.387c1.046 0 3.271-.043 5.247-.888.996-.426 1.95-1.064 2.654-2.022.708-.962 1.138-2.215 1.138-3.82 0-1.489-.327-2.652-.953-3.544-.627-.892-1.518-1.462-2.551-1.825-1.966-.692-4.574-.673-7.182-.654l-.243.002-.497.004v12.246z" stroke="#fff" stroke-opacity=".25" style="mix-blend-mode:overlay"/><defs><linearGradient id="paint0_linear_1875_8259" x1="110.5" y1="41" x2="191.5" y2="201.5" gradientUnits="userSpaceOnUse"><stop stop-color="#956D49"/><stop offset=".284" stop-color="#956D49" stop-opacity=".37"/><stop offset=".505" stop-color="#956D49" stop-opacity=".747"/><stop offset="1" stop-color="#956D49" stop-opacity=".5"/></linearGradient><linearGradient id="paint1_linear_1875_8259" x1="250" y1="43.5" x2="320" y2="122.5" gradientUnits="userSpaceOnUse"><stop stop-color="#956D49"/><stop offset="1" stop-color="#956D49" stop-opacity=".5"/></linearGradient><linearGradient id="paint2_linear_1875_8259" x1="154.358" y1="135.102" x2="169" y2="167.152" gradientUnits="userSpaceOnUse"><stop stop-color="#956D49"/><stop offset="1" stop-color="#956D49" stop-opacity=".5"/></linearGradient><linearGradient id="paint3_linear_1875_8259" x1="35.5" y1="8" x2="19" y2="104" gradientUnits="userSpaceOnUse"><stop stop-color="#956D49"/><stop offset="1" stop-color="#956D49" stop-opacity=".32"/></linearGradient><linearGradient id="paint4_linear_1875_8259" x1="200.25" y1="63.75" x2="138.5" y2="67.5" gradientUnits="userSpaceOnUse"><stop stop-color="#956D49"/><stop offset="1" stop-color="#956D49" stop-opacity=".3"/></linearGradient><linearGradient id="paint5_linear_1875_8259" x1="268.5" y1="50.5" x2="292.75" y2="62" gradientUnits="userSpaceOnUse"><stop stop-color="#956D49"/><stop offset="1" stop-color="#956D49" stop-opacity="0"/></linearGradient><linearGradient id="paint6_linear_1875_8259" x1="139" y1="9.25" x2="125" y2="67.75" gradientUnits="userSpaceOnUse"><stop stop-color="#956D49"/><stop offset=".922" stop-color="#956D49" stop-opacity=".5"/></linearGradient><linearGradient id="paint7_linear_1875_8259" x1="246.079" y1="144.354" x2="247.312" y2="147.156" gradientUnits="userSpaceOnUse"><stop stop-color="#956D49"/><stop offset="1" stop-color="#956D49" stop-opacity=".5"/></linearGradient><linearGradient id="paint8_linear_1875_8259" x1="249.938" y1="146.781" x2="252.781" y2="150.969" gradientUnits="userSpaceOnUse"><stop stop-color="#956D49"/><stop offset="1" stop-color="#956D49" stop-opacity=".5"/></linearGradient><linearGradient id="paint9_linear_1875_8259" x1="313.176" y1="100.03" x2="314.812" y2="102.5" gradientUnits="userSpaceOnUse"><stop stop-color="#956D49"/><stop offset="1" stop-color="#956D49" stop-opacity=".5"/></linearGradient><linearGradient id="paint10_linear_1875_8259" x1="312.811" y1="94.208" x2="314.5" y2="97.375" gradientUnits="userSpaceOnUse"><stop stop-color="#956D49"/><stop offset="1" stop-color="#956D49" stop-opacity=".5"/></linearGradient><linearGradient id="paint11_linear_1875_8259" x1="309.438" y1="87.281" x2="312.125" y2="92.063" gradientUnits="userSpaceOnUse"><stop stop-color="#956D49"/><stop offset="1" stop-color="#956D49" stop-opacity=".5"/></linearGradient><linearGradient id="paint12_linear_1875_8259" x1="18.859" y1="64.567" x2="18.859" y2="66.775" gradientUnits="userSpaceOnUse"><stop stop-color="#956D49"/><stop offset="1" stop-color="#956D49" stop-opacity=".3"/></linearGradient><linearGradient id="paint13_linear_1875_8259" x1="23.299" y1="61.02" x2="23.299" y2="63.651" gradientUnits="userSpaceOnUse"><stop stop-color="#956D49"/><stop offset="1" stop-color="#956D49" stop-opacity=".3"/></linearGradient><linearGradient id="paint14_linear_1875_8259" x1="28.694" y1="57.588" x2="28.694" y2="60.833" gradientUnits="userSpaceOnUse"><stop stop-color="#956D49"/><stop offset="1" stop-color="#956D49" stop-opacity=".3"/></linearGradient><linearGradient id="paint15_linear_1875_8259" x1="125.42" y1="41.695" x2="125.42" y2="60.063" gradientUnits="userSpaceOnUse"><stop stop-color="#956D49"/><stop offset="1" stop-color="#956D49" stop-opacity=".5"/></linearGradient><linearGradient id="paint16_linear_1875_8259" x1="287.306" y1="97.722" x2="287.306" y2="115.866" gradientUnits="userSpaceOnUse"><stop stop-color="#956D49"/><stop offset="1" stop-color="#956D49" stop-opacity=".59"/></linearGradient><linearGradient id="paint17_linear_1875_8259" x1="285.216" y1="79.755" x2="285.216" y2="88.539" gradientUnits="userSpaceOnUse"><stop stop-color="#956D49"/><stop offset="1" stop-color="#956D49" stop-opacity=".59"/></linearGradient><linearGradient id="paint18_linear_1875_8259" x1="271.451" y1="79.755" x2="271.451" y2="115.866" gradientUnits="userSpaceOnUse"><stop stop-color="#956D49"/><stop offset="1" stop-color="#956D49" stop-opacity=".59"/></linearGradient><linearGradient id="paint19_linear_1875_8259" x1="123.081" y1="92.293" x2="123.081" y2="115.866" gradientUnits="userSpaceOnUse"><stop stop-color="#956D49"/><stop offset="1" stop-color="#956D49" stop-opacity=".59"/></linearGradient><linearGradient id="paint20_linear_1875_8259" x1="107.228" y1="79.755" x2="107.228" y2="115.866" gradientUnits="userSpaceOnUse"><stop stop-color="#956D49"/><stop offset="1" stop-color="#956D49" stop-opacity=".59"/></linearGradient><linearGradient id="paint21_linear_1875_8259" x1="120.991" y1="79.755" x2="120.991" y2="87.152" gradientUnits="userSpaceOnUse"><stop stop-color="#956D49"/><stop offset="1" stop-color="#956D49" stop-opacity=".59"/></linearGradient><linearGradient id="paint22_linear_1875_8259" x1="73.902" y1="79.755" x2="73.902" y2="115.866" gradientUnits="userSpaceOnUse"><stop stop-color="#956D49"/><stop offset="1" stop-color="#956D49" stop-opacity=".59"/></linearGradient><linearGradient id="paint23_linear_1875_8259" x1="89.9" y1="103.871" x2="89.9" y2="115.866" gradientUnits="userSpaceOnUse"><stop stop-color="#956D49"/><stop offset="1" stop-color="#956D49" stop-opacity=".59"/></linearGradient><linearGradient id="paint24_linear_1875_8259" x1="86.594" y1="84.939" x2="86.594" y2="96.191" gradientUnits="userSpaceOnUse"><stop stop-color="#956D49"/><stop offset="1" stop-color="#956D49" stop-opacity=".59"/></linearGradient><linearGradient id="paint25_linear_1875_8259" x1="250.816" y1="84.939" x2="250.816" y2="96.191" gradientUnits="userSpaceOnUse"><stop stop-color="#956D49"/><stop offset="1" stop-color="#956D49" stop-opacity=".59"/></linearGradient><linearGradient id="paint26_linear_1875_8259" x1="254.124" y1="103.871" x2="254.124" y2="115.866" gradientUnits="userSpaceOnUse"><stop stop-color="#956D49"/><stop offset="1" stop-color="#956D49" stop-opacity=".59"/></linearGradient><linearGradient id="paint27_linear_1875_8259" x1="238.128" y1="79.755" x2="238.128" y2="115.866" gradientUnits="userSpaceOnUse"><stop stop-color="#956D49"/><stop offset="1" stop-color="#956D49" stop-opacity=".59"/></linearGradient><linearGradient id="paint28_linear_1875_8259" x1="176.745" y1="82.357" x2="176.745" y2="115.785" gradientUnits="userSpaceOnUse"><stop stop-color="#956D49"/><stop offset="1" stop-color="#956D49" stop-opacity=".59"/></linearGradient><linearGradient id="paint29_linear_1875_8259" x1="185.709" y1="83.177" x2="185.709" y2="105.368" gradientUnits="userSpaceOnUse"><stop stop-color="#956D49"/><stop offset="1" stop-color="#956D49" stop-opacity=".59"/></linearGradient><linearGradient id="paint30_linear_1875_8259" x1="45.354" y1="80.365" x2="45.354" y2="128.839" gradientUnits="userSpaceOnUse"><stop stop-color="#956D49"/><stop offset="1" stop-color="#956D49" stop-opacity=".59"/></linearGradient><linearGradient id="paint31_linear_1875_8259" x1="49.192" y1="69.584" x2="49.192" y2="88.41" gradientUnits="userSpaceOnUse"><stop stop-color="#956D49"/><stop offset="1" stop-color="#956D49" stop-opacity=".59"/></linearGradient><linearGradient id="paint32_linear_1875_8259" x1="55.237" y1="98.826" x2="55.237" y2="101.447" gradientUnits="userSpaceOnUse"><stop stop-color="#956D49"/><stop offset="1" stop-color="#956D49" stop-opacity=".59"/></linearGradient><linearGradient id="paint33_linear_1875_8259" x1="26.486" y1="69.109" x2="26.486" y2="86.545" gradientUnits="userSpaceOnUse"><stop stop-color="#956D49"/><stop offset="1" stop-color="#956D49" stop-opacity=".59"/></linearGradient><linearGradient id="paint34_linear_1875_8259" x1="144.482" y1="79.751" x2="144.482" y2="115.866" gradientUnits="userSpaceOnUse"><stop stop-color="#956D49"/><stop offset="1" stop-color="#956D49" stop-opacity=".59"/></linearGradient><linearGradient id="paint35_linear_1875_8259" x1="153.353" y1="84.656" x2="153.353" y2="103.794" gradientUnits="userSpaceOnUse"><stop stop-color="#956D49"/><stop offset="1" stop-color="#956D49" stop-opacity=".59"/></linearGradient><linearGradient id="paint36_linear_1875_8259" x1="205.079" y1="79.755" x2="205.079" y2="115.866" gradientUnits="userSpaceOnUse"><stop stop-color="#956D49"/><stop offset="1" stop-color="#956D49" stop-opacity=".59"/></linearGradient><linearGradient id="paint37_linear_1875_8259" x1="223.395" y1="102.863" x2="223.395" y2="127.937" gradientUnits="userSpaceOnUse"><stop stop-color="#956D49"/><stop offset="1" stop-color="#956D49" stop-opacity=".59"/></linearGradient><linearGradient id="paint38_linear_1875_8259" x1="217.842" y1="84.109" x2="217.842" y2="92.874" gradientUnits="userSpaceOnUse"><stop stop-color="#956D49"/><stop offset="1" stop-color="#956D49" stop-opacity=".59"/></linearGradient><linearGradient id="paint39_linear_1875_8259" x1="283.189" y1="70.13" x2="307.245" y2="105.316" gradientUnits="userSpaceOnUse"><stop stop-color="#CFBB85"/><stop offset="1" stop-color="#BC9068"/></linearGradient><linearGradient id="paint40_linear_1875_8259" x1="118.967" y1="70.13" x2="143.025" y2="105.313" gradientUnits="userSpaceOnUse"><stop stop-color="#CFBB85"/><stop offset="1" stop-color="#BC9068"/></linearGradient><linearGradient id="paint41_linear_1875_8259" x1="85.64" y1="70.13" x2="109.698" y2="105.313" gradientUnits="userSpaceOnUse"><stop stop-color="#CFBB85"/><stop offset="1" stop-color="#BC9068"/></linearGradient><linearGradient id="paint42_linear_1875_8259" x1="249.865" y1="70.13" x2="273.922" y2="105.313" gradientUnits="userSpaceOnUse"><stop stop-color="#CFBB85"/><stop offset="1" stop-color="#BC9068"/></linearGradient><linearGradient id="paint43_linear_1875_8259" x1="183.605" y1="69.575" x2="208.088" y2="104.739" gradientUnits="userSpaceOnUse"><stop stop-color="#CFBB85"/><stop offset="1" stop-color="#BC9068"/></linearGradient><linearGradient id="paint44_linear_1875_8259" x1="46.797" y1="50.573" x2="91.32" y2="107.368" gradientUnits="userSpaceOnUse"><stop stop-color="#CFBB85"/><stop offset="1" stop-color="#BC9068"/></linearGradient><linearGradient id="paint45_linear_1875_8259" x1="151.426" y1="70.13" x2="176.037" y2="103.745" gradientUnits="userSpaceOnUse"><stop stop-color="#CFBB85"/><stop offset="1" stop-color="#BC9068"/></linearGradient><linearGradient id="paint46_linear_1875_8259" x1="220.126" y1="68.197" x2="252.897" y2="113.24" gradientUnits="userSpaceOnUse"><stop stop-color="#CFBB85"/><stop offset="1" stop-color="#BC9068"/></linearGradient></defs></svg>