<svg width="228" height="228" fill="none" xmlns="http://www.w3.org/2000/svg"><path d="M114.001 216.696L11.426 114.121 114 11.547l102.574 102.574L114 216.696z" stroke="url(#paint0_linear_1052_4056)"/><path d="M113.999 24.994l89.128 89.128-89.128 89.128-89.128-89.128L114 24.994z" stroke="url(#paint1_linear_1052_4056)" stroke-width="2"/><path opacity=".8" d="M113.999 53.766l60.356 60.356-60.356 60.357-60.356-60.357 60.356-60.356z" stroke="#151533"/><path opacity=".9" d="M167.693 114.122l-53.694-53.693-53.693 53.693 53.693 53.694 53.694-53.694z" fill="#141432"/><g filter="url(#filter0_d_1052_4056)"><path d="M113.909 35.192l78.93 78.93-78.93 78.93-78.93-78.93 78.93-78.93z" stroke="url(#paint2_linear_1052_4056)" stroke-width="6" shape-rendering="crispEdges"/></g><path d="M113.999 54.08l-9.444-9.444 9.444-9.444 9.444 9.444-9.444 9.444z" stroke="url(#paint3_linear_1052_4056)" stroke-width="6"/><path d="M113.999 193.052l-9.444-9.444 9.444-9.443 9.444 9.443-9.444 9.444z" stroke="url(#paint4_linear_1052_4056)" stroke-width="6"/><path d="M44.513 123.567l-9.444-9.444 9.444-9.444 9.444 9.444-9.444 9.444z" stroke="url(#paint5_linear_1052_4056)" stroke-width="6"/><path d="M183.485 123.567l-9.444-9.444 9.444-9.444 9.444 9.444-9.444 9.444z" stroke="url(#paint6_linear_1052_4056)" stroke-width="6"/><path d="M56.917 65.439L7.988 114.577l48.929 49.138m114.166-98.276l48.929 49.138-48.929 49.138" stroke="url(#paint7_linear_1052_4056)" stroke-width="6"/><defs><linearGradient id="paint0_linear_1052_4056" x1="114.001" y1="10.84" x2="114.001" y2="217.404" gradientUnits="userSpaceOnUse"><stop stop-color="#DDD1A1"/><stop offset="1" stop-color="#C1A669"/></linearGradient><linearGradient id="paint1_linear_1052_4056" x1="113.999" y1="23.58" x2="113.999" y2="204.665" gradientUnits="userSpaceOnUse"><stop stop-color="#D660D3"/><stop offset="1" stop-color="#9B51C0"/></linearGradient><linearGradient id="paint2_linear_1052_4056" x1="113.909" y1="30.95" x2="113.909" y2="197.295" gradientUnits="userSpaceOnUse"><stop stop-color="#DE62D5"/><stop offset="1" stop-color="#954FBE"/></linearGradient><linearGradient id="paint3_linear_1052_4056" x1="113.999" y1="30.95" x2="113.999" y2="58.323" gradientUnits="userSpaceOnUse"><stop stop-color="#D760D3"/><stop offset="1" stop-color="#D35FD2"/></linearGradient><linearGradient id="paint4_linear_1052_4056" x1="113.999" y1="169.922" x2="113.999" y2="197.295" gradientUnits="userSpaceOnUse"><stop stop-color="#A353C2"/><stop offset="1" stop-color="#9B51C0"/></linearGradient><linearGradient id="paint5_linear_1052_4056" x1="44.513" y1="100.436" x2="44.513" y2="127.809" gradientUnits="userSpaceOnUse"><stop stop-color="#BF5ACC"/><stop offset="1" stop-color="#B257C7"/></linearGradient><linearGradient id="paint6_linear_1052_4056" x1="183.485" y1="100.436" x2="183.485" y2="127.809" gradientUnits="userSpaceOnUse"><stop stop-color="#BF5ACC"/><stop offset="1" stop-color="#B257C7"/></linearGradient><linearGradient id="paint7_linear_1052_4056" x1="114" y1="40.869" x2="114" y2="190.105" gradientUnits="userSpaceOnUse"><stop stop-color="#E6DEB2"/><stop offset="1" stop-color="#B99957"/></linearGradient><filter id="filter0_d_1052_4056" x=".736" y=".95" width="226.345" height="226.345" filterUnits="userSpaceOnUse" color-interpolation-filters="sRGB"><feFlood flood-opacity="0" result="BackgroundImageFix"/><feColorMatrix in="SourceAlpha" values="0 0 0 0 0 0 0 0 0 0 0 0 0 0 0 0 0 0 127 0" result="hardAlpha"/><feOffset/><feGaussianBlur stdDeviation="15"/><feComposite in2="hardAlpha" operator="out"/><feColorMatrix values="0 0 0 0 0.842105 0 0 0 0 0.3 0 0 0 0 0.9 0 0 0 1 0"/><feBlend in2="BackgroundImageFix" result="effect1_dropShadow_1052_4056"/><feBlend in="SourceGraphic" in2="effect1_dropShadow_1052_4056" result="shape"/></filter></defs></svg>