<svg width="228" height="228" fill="none" xmlns="http://www.w3.org/2000/svg"><path d="M11.855 114.121L114.43 11.547 217.005 114.12 114.43 216.696 11.855 114.121z" stroke="url(#paint0_linear_1052_4040)"/><path d="M24.871 114.122L114 24.994l89.128 89.128L114 203.25l-89.128-89.128z" stroke="url(#paint1_linear_1052_4040)" stroke-width="2"/><path opacity=".8" d="M53.643 114.122l60.356-60.356 60.356 60.356-60.356 60.356-60.356-60.356z" stroke="#151533"/><path opacity=".9" d="M167.693 114.122l-53.694-53.694-53.693 53.694 53.693 53.694 53.694-53.694z" fill="#141432"/><g filter="url(#filter0_d_1052_4040)"><path d="M34.979 114.122l78.93-78.93 78.93 78.93-78.93 78.93-78.93-78.93z" stroke="url(#paint2_linear_1052_4040)" stroke-width="6" shape-rendering="crispEdges"/></g><path d="M104.555 44.636l9.444-9.444 9.444 9.444-9.444 9.444-9.444-9.444z" stroke="url(#paint3_linear_1052_4040)" stroke-width="6"/><path d="M104.555 183.607l9.444-9.443 9.444 9.443-9.444 9.444-9.444-9.444z" stroke="url(#paint4_linear_1052_4040)" stroke-width="6"/><path d="M174.041 114.122l9.444-9.444 9.444 9.444-9.444 9.444-9.444-9.444z" stroke="url(#paint5_linear_1052_4040)" stroke-width="6"/><path d="M35.069 114.122l9.444-9.444 9.444 9.444-9.444 9.444-9.444-9.444z" stroke="url(#paint6_linear_1052_4040)" stroke-width="6"/><path d="M56.917 65.438L7.988 114.576l48.929 49.139m114.166-98.277l48.929 49.138-48.929 49.139" stroke="url(#paint7_linear_1052_4040)" stroke-width="6"/><defs><linearGradient id="paint0_linear_1052_4040" x1="114.43" y1="10.84" x2="114.43" y2="217.404" gradientUnits="userSpaceOnUse"><stop stop-color="#DDD1A1"/><stop offset="1" stop-color="#C1A669"/></linearGradient><linearGradient id="paint1_linear_1052_4040" x1="113.999" y1="23.58" x2="113.999" y2="204.664" gradientUnits="userSpaceOnUse"><stop stop-color="#82E8FE"/><stop offset="1" stop-color="#107AB4"/></linearGradient><linearGradient id="paint2_linear_1052_4040" x1="113.909" y1="30.949" x2="113.909" y2="197.294" gradientUnits="userSpaceOnUse"><stop stop-color="#82E8FE"/><stop offset="1" stop-color="#107AB4"/></linearGradient><linearGradient id="paint3_linear_1052_4040" x1="113.999" y1="30.949" x2="113.999" y2="58.322" gradientUnits="userSpaceOnUse"><stop stop-color="#82E8FE"/><stop offset="1" stop-color="#6FD5F1"/></linearGradient><linearGradient id="paint4_linear_1052_4040" x1="113.999" y1="169.921" x2="113.999" y2="197.294" gradientUnits="userSpaceOnUse"><stop stop-color="#228CC0"/><stop offset="1" stop-color="#107AB4"/></linearGradient><linearGradient id="paint5_linear_1052_4040" x1="183.485" y1="100.436" x2="183.485" y2="127.809" gradientUnits="userSpaceOnUse"><stop stop-color="#52BADF"/><stop offset="1" stop-color="#41A9D4"/></linearGradient><linearGradient id="paint6_linear_1052_4040" x1="44.513" y1="100.436" x2="44.513" y2="127.809" gradientUnits="userSpaceOnUse"><stop stop-color="#52BADF"/><stop offset="1" stop-color="#41A9D4"/></linearGradient><linearGradient id="paint7_linear_1052_4040" x1="114" y1="40.869" x2="114" y2="190.104" gradientUnits="userSpaceOnUse"><stop stop-color="#E6DEB2"/><stop offset="1" stop-color="#B99957"/></linearGradient><filter id="filter0_d_1052_4040" x=".736" y=".949" width="226.345" height="226.345" filterUnits="userSpaceOnUse" color-interpolation-filters="sRGB"><feFlood flood-opacity="0" result="BackgroundImageFix"/><feColorMatrix in="SourceAlpha" values="0 0 0 0 0 0 0 0 0 0 0 0 0 0 0 0 0 0 127 0" result="hardAlpha"/><feOffset/><feGaussianBlur stdDeviation="15"/><feComposite in2="hardAlpha" operator="out"/><feColorMatrix values="0 0 0 0 0.0760069 0 0 0 0 0.433622 0 0 0 0 0.829167 0 0 0 1 0"/><feBlend in2="BackgroundImageFix" result="effect1_dropShadow_1052_4040"/><feBlend in="SourceGraphic" in2="effect1_dropShadow_1052_4040" result="shape"/></filter></defs></svg>