<svg width="228" height="228" fill="none" xmlns="http://www.w3.org/2000/svg"><path d="M114.001 216.696L11.426 114.121 114 11.547l102.574 102.574L114 216.696z" stroke="url(#paint0_linear_1052_4071)"/><path d="M113.999 24.993l89.128 89.128-89.128 89.128-89.128-89.128L114 24.993z" stroke="url(#paint1_linear_1052_4071)" stroke-width="2"/><path opacity=".8" d="M113.999 53.765l60.356 60.356-60.356 60.357-60.356-60.357 60.356-60.356z" stroke="#151533"/><path opacity=".9" d="M167.693 114.121l-53.694-53.693-53.693 53.693 53.693 53.694 53.694-53.694z" fill="#141432"/><g filter="url(#filter0_d_1052_4071)"><path d="M113.909 35.191l78.93 78.93-78.93 78.93-78.93-78.93 78.93-78.93z" stroke="url(#paint2_linear_1052_4071)" stroke-width="6" shape-rendering="crispEdges"/></g><path d="M113.999 54.08l-9.444-9.445 9.444-9.444 9.444 9.444-9.444 9.444z" stroke="url(#paint3_linear_1052_4071)" stroke-width="6"/><path d="M113.999 193.051l-9.444-9.444 9.444-9.443 9.444 9.443-9.444 9.444z" stroke="url(#paint4_linear_1052_4071)" stroke-width="6"/><path d="M183.485 123.565l-9.444-9.444 9.444-9.444 9.444 9.444-9.444 9.444z" stroke="url(#paint5_linear_1052_4071)" stroke-width="6"/><path d="M44.513 123.565l-9.444-9.444 9.444-9.444 9.444 9.444-9.444 9.444z" stroke="url(#paint6_linear_1052_4071)" stroke-width="6"/><path d="M56.917 65.439L7.988 114.577l48.929 49.138m114.166-98.276l48.929 49.138-48.929 49.138" stroke="url(#paint7_linear_1052_4071)" stroke-width="6"/><defs><linearGradient id="paint0_linear_1052_4071" x1="114.001" y1="10.84" x2="114.001" y2="217.404" gradientUnits="userSpaceOnUse"><stop stop-color="#DDD1A1"/><stop offset="1" stop-color="#C1A669"/></linearGradient><linearGradient id="paint1_linear_1052_4071" x1="113.999" y1="23.579" x2="113.999" y2="204.664" gradientUnits="userSpaceOnUse"><stop stop-color="#87EC72"/><stop offset="1" stop-color="#64A258"/></linearGradient><linearGradient id="paint2_linear_1052_4071" x1="113.909" y1="30.949" x2="113.909" y2="197.294" gradientUnits="userSpaceOnUse"><stop stop-color="#8BF576"/><stop offset="1" stop-color="#629C55"/></linearGradient><linearGradient id="paint3_linear_1052_4071" x1="113.999" y1="30.949" x2="113.999" y2="58.322" gradientUnits="userSpaceOnUse"><stop stop-color="#87ED72"/><stop offset="1" stop-color="#85E770"/></linearGradient><linearGradient id="paint4_linear_1052_4071" x1="113.999" y1="169.921" x2="113.999" y2="197.294" gradientUnits="userSpaceOnUse"><stop stop-color="#6AAC5A"/><stop offset="1" stop-color="#619C57"/></linearGradient><linearGradient id="paint5_linear_1052_4071" x1="183.485" y1="100.435" x2="183.485" y2="127.808" gradientUnits="userSpaceOnUse"><stop stop-color="#7BD168"/><stop offset="1" stop-color="#73C162"/></linearGradient><linearGradient id="paint6_linear_1052_4071" x1="44.513" y1="100.435" x2="44.513" y2="127.808" gradientUnits="userSpaceOnUse"><stop stop-color="#7BD168"/><stop offset="1" stop-color="#73C162"/></linearGradient><linearGradient id="paint7_linear_1052_4071" x1="114" y1="40.869" x2="114" y2="190.105" gradientUnits="userSpaceOnUse"><stop stop-color="#E6DEB2"/><stop offset="1" stop-color="#B99957"/></linearGradient><filter id="filter0_d_1052_4071" x=".736" y=".949" width="226.345" height="226.345" filterUnits="userSpaceOnUse" color-interpolation-filters="sRGB"><feFlood flood-opacity="0" result="BackgroundImageFix"/><feColorMatrix in="SourceAlpha" values="0 0 0 0 0 0 0 0 0 0 0 0 0 0 0 0 0 0 127 0" result="hardAlpha"/><feOffset/><feGaussianBlur stdDeviation="15"/><feComposite in2="hardAlpha" operator="out"/><feColorMatrix values="0 0 0 0 0.247059 0 0 0 0 0.905882 0 0 0 0 0.560784 0 0 0 1 0"/><feBlend in2="BackgroundImageFix" result="effect1_dropShadow_1052_4071"/><feBlend in="SourceGraphic" in2="effect1_dropShadow_1052_4071" result="shape"/></filter></defs></svg>