<svg width="321" height="177" viewBox="0 0 321 177" fill="none" xmlns="http://www.w3.org/2000/svg">
<path d="M299.591 141.225C298.799 141.153 297.772 141.282 296.552 141.719C296.48 141.743 296.221 141.83 295.823 141.969C295.424 142.108 294.887 142.295 294.239 142.473C293.917 142.569 293.572 142.67 293.207 142.775C292.837 142.866 292.453 142.962 292.055 143.058C291.263 143.27 290.408 143.414 289.564 143.591C287.859 143.879 286.155 144.114 284.869 144.206C284.226 144.258 283.693 144.311 283.319 144.321C282.944 144.34 282.733 144.35 282.733 144.35C276.214 144.666 269.595 143.913 263.139 142.497C259.909 141.777 256.707 140.889 253.582 139.794C252.022 139.247 250.476 138.652 248.984 137.99C247.505 137.318 246.027 136.55 244.635 135.714C244.452 135.604 244.28 135.489 244.102 135.378C244.14 134.457 244.049 133.492 243.665 132.57C243.276 131.62 242.552 130.746 241.563 130.237C241.078 129.973 240.521 129.834 239.945 129.781C239.657 129.767 239.321 129.772 238.903 129.925C238.798 129.969 238.697 130.007 238.577 130.089C238.462 130.161 238.356 130.242 238.251 130.362C238.039 130.578 237.91 130.881 237.857 131.145C237.766 131.677 237.886 132.033 237.987 132.335C238.097 132.638 238.231 132.868 238.366 133.094C238.644 133.535 238.947 133.9 239.259 134.246C240.176 135.23 241.169 136.046 242.201 136.785C241.966 137.817 241.553 138.844 241.044 139.818C240.862 140.178 240.67 140.538 240.449 140.884C240.228 141.225 240.031 141.594 239.796 141.916C239.35 142.574 238.812 143.174 238.227 143.721C237.055 144.825 235.644 145.679 234.147 146.347C232.644 147.014 231.046 147.475 229.419 147.801C228.295 148.022 227.153 148.171 226.01 148.257C225.9 148.017 225.785 147.772 225.67 147.532C224.22 144.647 222.305 142.06 220.164 139.732C218.018 137.404 215.618 135.354 213.089 133.526C210.521 131.668 207.698 130.161 204.804 128.97C201.904 127.77 198.919 126.844 195.895 126.162C192.871 125.476 189.823 124.938 186.76 124.612C183.698 124.281 180.63 124.045 177.558 123.988C176.79 123.959 176.022 123.949 175.259 123.949C174.491 123.949 173.728 123.94 172.96 123.949C171.429 123.988 169.898 123.997 168.366 124.084C162.246 124.348 156.164 125.025 150.131 125.985C147.116 126.484 144.111 127.026 141.131 127.684C139.633 127.991 138.155 128.361 136.667 128.701C135.188 129.081 133.7 129.431 132.231 129.849C129.034 130.717 125.857 131.692 122.713 132.772C122.9 131.452 122.89 129.498 121.018 130.079C118.263 130.938 114.461 135.167 114.461 135.167C114.461 135.167 114.769 132.042 112.623 133.022C111.13 133.703 109.844 136.434 109.2 138.033C106.167 139.247 103.128 140.438 100.076 141.59C100.205 141.431 100.335 141.268 100.455 141.1C100.94 140.438 101.357 139.698 101.626 138.882C101.895 138.071 102.015 137.169 101.876 136.276C101.732 135.383 101.424 134.558 100.935 133.79C100.445 133.021 99.7107 132.345 98.8227 131.946C97.9395 131.543 96.9363 131.418 95.9763 131.553C95.0115 131.687 94.0754 132.09 93.2786 132.786C92.8658 133.185 92.4818 133.703 92.3234 134.308C92.1554 134.903 92.1362 135.537 92.2802 136.113C92.2802 136.113 92.2898 136.194 92.3378 136.319C92.3858 136.444 92.4338 136.641 92.5346 136.852C92.7266 137.279 93.0866 137.802 93.5666 138.225C94.0562 138.638 94.6514 138.93 95.141 139.06C95.6258 139.185 95.9811 139.209 96.0339 139.214C96.2691 139.209 96.4803 139.156 96.6483 139.074C96.8115 138.983 96.9315 138.839 97.0131 138.69C97.1763 138.388 97.1715 138.009 97.0611 137.62C96.9507 137.231 96.7731 136.89 96.6051 136.65C96.5187 136.53 96.4371 136.444 96.3555 136.377C96.2739 136.3 96.2019 136.262 96.1155 136.271C96.0963 136.271 95.9811 136.271 95.8179 136.262C95.6595 136.242 95.4627 136.185 95.2803 136.079C95.1075 135.964 94.9491 135.81 94.8675 135.676C94.7907 135.542 94.7379 135.45 94.7427 135.45C94.6083 135.081 94.6274 134.754 94.877 134.423C95.2226 134.034 95.7555 133.698 96.3459 133.545C97.5315 133.228 98.8659 133.593 99.7107 134.663C100.133 135.186 100.469 135.844 100.652 136.497C100.839 137.164 100.829 137.889 100.676 138.604C100.407 139.828 99.7539 141.009 98.9091 142.026C96.6915 142.857 94.4594 143.658 92.2274 144.441C91.925 144.542 91.6274 144.647 91.325 144.748C86.5201 146.361 81.6672 147.844 76.7759 149.121C77.2272 148.675 77.6544 148.199 78.024 147.676C78.9072 146.443 79.536 144.969 79.728 143.404C79.9344 141.839 79.704 140.255 79.2384 138.777C78.9936 137.98 78.6432 137.202 78.2064 136.463C78.6768 134.514 80.2608 134.174 80.3472 134.159C80.736 134.087 80.9952 133.718 80.928 133.329C80.8608 132.935 80.4912 132.671 80.0928 132.743C79.3152 132.878 77.9663 133.53 77.2031 135.042C77.1023 134.922 77.0015 134.802 76.8911 134.682C76.6223 134.38 76.3055 134.121 76.0079 133.838C75.6911 133.578 75.3503 133.348 75.0143 133.108C74.6543 132.911 74.3039 132.69 73.9295 132.518C73.5503 132.369 73.1807 132.167 72.7823 132.061C71.2127 131.557 69.5422 131.389 67.8958 131.62C67.0702 131.73 66.2446 131.956 65.4237 132.282C64.5597 132.666 63.7293 133.252 63.0909 134.025C62.9901 134.145 62.9037 134.274 62.8125 134.404C62.5245 134.634 62.2461 134.87 61.9773 135.119L61.4205 135.657L60.9213 136.156C60.5949 136.492 60.2493 136.804 59.9133 137.121C58.55 138.369 57.0908 139.454 55.5404 140.241C53.9803 141.009 52.3387 141.465 50.6683 141.58C50.6683 141.58 50.4475 141.58 50.1115 141.585C49.9435 141.585 49.7515 141.59 49.5403 141.59C49.3291 141.575 49.1035 141.561 48.8779 141.542C48.4267 141.527 47.9659 141.441 47.6155 141.398C47.2603 141.354 47.0106 141.302 46.9722 141.292C46.2906 141.196 45.7338 142.118 45.5178 143.318C45.3018 144.518 45.6042 145.559 46.4778 145.675C46.5258 145.684 46.8426 145.708 47.2938 145.699C47.745 145.694 48.3211 145.713 48.9019 145.651C49.1899 145.627 49.4779 145.603 49.7419 145.583C50.0107 145.55 50.2603 145.502 50.4715 145.468C50.8939 145.396 51.1723 145.353 51.1723 145.353C53.3035 144.921 55.3244 144.033 57.0668 142.862C58.7996 141.666 60.2637 140.222 61.5357 138.695C61.5933 138.623 61.6557 138.551 61.7133 138.479C61.7469 138.892 61.8093 139.305 61.9197 139.703C61.9197 139.703 61.9485 139.833 62.0205 140.058C62.1117 140.274 62.2125 140.606 62.4141 140.966C62.7741 141.705 63.5085 142.631 64.5021 143.255C64.7421 143.418 65.0061 143.538 65.2605 143.673C65.5197 143.798 65.8414 143.894 66.1198 143.985C66.4414 144.052 66.7534 144.119 67.075 144.129C67.4062 144.134 67.7182 144.134 68.011 144.071C68.1598 144.047 68.299 144.014 68.4334 143.985C68.563 143.946 68.6878 143.903 68.803 143.86C69.043 143.779 69.2302 143.682 69.3838 143.596C69.7102 143.428 69.8686 143.289 69.9214 143.25C70.7518 142.598 70.9198 141.839 70.795 141.282C70.6654 140.716 70.2334 140.294 69.667 140.073C68.5438 139.617 67.4446 139.631 67.2334 139.751C67.219 139.77 67.1662 139.814 67.1758 139.838C67.1758 139.862 67.1566 139.862 67.0654 139.881C67.003 139.857 66.9502 139.866 66.8686 139.838C66.787 139.794 66.6862 139.775 66.6046 139.732C66.2638 139.583 65.9758 139.314 65.8126 139.055C65.7118 138.94 65.6734 138.806 65.6158 138.729C65.5726 138.647 65.563 138.59 65.5582 138.594C65.2318 137.826 65.2941 136.847 65.7789 136.142C66.0142 135.782 66.3454 135.47 66.7678 135.225C67.2526 134.98 67.8046 134.754 68.3902 134.625C70.7326 134.078 73.4207 134.582 75.2639 136.281C76.1903 137.116 76.9487 138.201 77.4576 139.43C77.9616 140.644 78.2832 141.95 78.2304 143.265C78.1632 145.622 76.8815 147.911 75.0431 149.567C72.5615 150.187 70.075 150.758 67.5694 151.257C63.5517 152.054 59.5004 152.668 55.4396 153.004C51.3787 153.335 47.2986 153.393 43.281 152.99C39.2681 152.587 35.308 151.718 31.636 150.177C27.9495 148.655 24.6999 146.327 21.9878 143.433C21.9878 143.433 21.8966 143.337 21.7286 143.159C21.5606 142.977 21.3014 142.732 21.0182 142.372C20.7254 142.022 20.375 141.594 19.967 141.1C19.5638 140.606 19.175 140.006 18.7142 139.372C18.4742 139.06 18.2774 138.705 18.0614 138.345C17.8453 137.985 17.6197 137.61 17.3845 137.226C17.1829 136.828 16.9765 136.415 16.7653 135.998C16.6597 135.786 16.5541 135.575 16.4485 135.359C16.3573 135.138 16.2661 134.913 16.1749 134.687C15.9973 134.231 15.7765 133.785 15.6277 133.305C15.4693 132.825 15.3157 132.34 15.1525 131.855C14.8933 130.861 14.6293 129.849 14.4853 128.807C14.1157 126.551 14.0869 124.247 14.2693 122.092C14.9605 122.087 15.6517 122.154 16.3333 122.284C16.3285 122.495 16.3189 122.711 16.3189 122.922C16.3045 123.297 16.3189 123.666 16.3429 124.031L16.4005 125.135C16.4869 125.874 16.5301 126.613 16.6837 127.353C16.9573 128.817 17.3509 130.338 18.3781 131.663C18.9014 132.306 19.679 132.873 20.5862 133.031C21.0326 133.108 21.4886 133.113 21.9206 133.036C22.3574 132.949 22.7462 132.849 23.2214 132.551C24.0135 131.961 24.4262 131.173 24.6807 130.367C24.9255 129.556 24.9783 128.701 24.8679 127.876C24.6087 126.225 23.7254 124.746 22.5878 123.657C22.295 123.397 22.0166 123.109 21.7046 122.874C21.3926 122.644 21.0854 122.399 20.759 122.188L19.751 121.588C19.4006 121.415 19.0406 121.261 18.6854 121.098C18.2581 120.925 17.8214 120.776 17.3749 120.652C17.5381 118.573 17.9989 116.514 18.7621 114.56C19.271 113.221 19.8902 111.92 20.6342 110.692C21.3686 109.458 22.2038 108.272 23.1542 107.197C23.375 106.952 23.087 106.616 22.8182 106.851C21.8054 107.931 20.9222 109.108 20.1254 110.346C19.3286 111.584 18.6518 112.9 18.0805 114.258C17.2453 116.216 16.7029 118.304 16.4629 120.431C15.8149 120.301 15.1525 120.224 14.4901 120.196C14.6533 119.096 14.8597 118.055 15.1093 117.114C15.5077 115.501 15.9637 114.148 16.3333 113.159C16.6981 112.165 16.9765 111.536 17.0437 111.364C18.3062 108.359 19.4582 106.088 20.1638 104.485C20.6582 103.376 20.9366 102.599 20.9606 102.133C21.0662 101.984 21.1766 101.835 21.2822 101.687C20.7782 101.317 20.159 100.991 19.6214 100.611L19.2182 100.323L18.8774 100.074C18.647 99.9201 18.4405 99.7377 18.2293 99.5601L17.6005 99.0273L17.0101 98.4513L16.7173 98.1633L16.4437 97.8561L15.9013 97.2369C15.2197 96.3729 14.6053 95.4609 14.1013 94.4817C13.6069 93.4977 13.1893 92.4752 12.8773 91.4192C12.2677 89.2976 12.0085 87.0703 12.0661 84.8527C12.1189 82.6351 12.4404 80.4126 13.0117 78.2622C13.2133 77.5182 13.1941 77.0813 13.0357 76.9949C12.8821 76.9085 12.5796 77.2062 12.3396 77.9598C11.7156 80.1726 11.3604 82.4479 11.274 84.7471C11.1828 87.0415 11.4228 89.3648 12.0325 91.6016C12.3541 92.7152 12.7717 93.8048 13.2853 94.8513C13.8133 95.8881 14.4469 96.8721 15.1621 97.7937C15.9061 98.6865 16.6933 99.5553 17.6005 100.29C17.8213 100.482 18.0374 100.674 18.2774 100.837L18.8678 101.274C19.1942 101.519 19.5926 101.72 19.8806 101.955C19.871 101.965 19.8662 101.979 19.8566 101.989C19.4582 102.272 18.9686 102.719 18.4117 103.362C17.2117 104.754 15.6805 107.01 14.3269 110.226C14.2501 110.413 13.9573 111.09 13.5781 112.16C13.1893 113.231 12.7141 114.695 12.2965 116.452C12.0084 117.652 11.7492 118.996 11.5764 120.431L10.5684 120.69C10.1844 120.791 9.82441 120.964 9.45001 121.098C6.49796 122.313 4.16511 124.722 2.72028 127.434C2.53788 127.775 2.34587 128.111 2.17307 128.457L1.72666 129.517C1.40026 130.218 1.20345 130.962 0.968243 131.692L0.800251 132.244L0.680249 132.81L0.44505 133.948C0.368249 134.327 0.349054 134.716 0.301054 135.1C0.272253 135.489 0.195446 135.873 0.205046 136.262C0.205046 136.262 0.205041 136.468 0.200241 136.828C0.209841 137.188 0.161844 137.702 0.233845 138.321C0.262646 138.628 0.291443 138.964 0.320243 139.319C0.344244 139.674 0.440243 140.044 0.497844 140.428C0.608246 141.206 0.86265 142.007 1.09785 142.818C1.62106 144.426 2.42748 145.953 3.17149 147.067C3.3635 147.34 3.54109 147.595 3.70429 147.825C3.8723 148.051 4.0403 148.238 4.1795 148.406C4.4531 148.737 4.63071 148.948 4.69311 148.996C5.60993 149.956 6.61314 150.455 7.36195 150.59C8.13957 150.705 8.61 150.475 8.7348 150.1C8.8692 149.711 8.71078 149.255 8.38918 148.785C8.06757 148.276 7.53958 147.724 6.81477 146.966C6.76677 146.932 6.62276 146.759 6.39236 146.505C6.28196 146.375 6.13795 146.231 5.99875 146.054C5.85955 145.871 5.71074 145.665 5.54754 145.444C4.91393 144.547 4.1891 143.294 3.69949 141.95C3.48349 141.273 3.23871 140.601 3.1235 139.943C3.0611 139.617 2.96989 139.305 2.93629 139.002C2.90269 138.7 2.86908 138.412 2.83548 138.153C2.74908 137.625 2.77789 137.183 2.75869 136.876C2.74909 136.569 2.74908 136.391 2.74908 136.391C2.72508 136.055 2.78748 135.719 2.80188 135.383C2.83548 135.047 2.84027 134.706 2.88827 134.375L3.0659 133.372L3.1523 132.868C3.1859 132.7 3.24349 132.542 3.28669 132.374C3.47869 131.721 3.6227 131.049 3.89631 130.42L4.26112 129.465C4.39552 129.153 4.56352 128.86 4.70752 128.553C5.90274 126.124 7.80356 124.074 10.2084 122.975C10.5876 122.793 10.9812 122.653 11.3844 122.529C11.2644 124.717 11.3748 127.05 11.7732 129.325C12.1716 131.62 12.8437 133.862 13.7413 135.83C13.8469 136.079 13.9477 136.329 14.0629 136.569C14.1829 136.804 14.3029 137.039 14.4229 137.27C14.6629 137.73 14.8885 138.186 15.1285 138.614C15.3877 139.031 15.6373 139.439 15.8821 139.833C16.1221 140.226 16.3573 140.606 16.6213 140.946C16.8709 141.292 17.1109 141.623 17.3413 141.935C17.5669 142.252 17.7877 142.55 18.0133 142.804C18.4597 143.332 18.8486 143.788 19.1654 144.167C19.4774 144.551 19.7702 144.806 19.9478 145.003C20.1302 145.19 20.231 145.291 20.231 145.291C23.1926 148.377 26.8407 150.907 30.8199 152.462C34.7896 154.065 38.9897 154.919 43.1802 155.289C47.3802 155.654 51.5851 155.543 55.742 155.155C57.4076 154.996 59.0636 154.785 60.7149 154.54C61.6317 154.42 62.5485 154.295 63.4605 154.156C69.4894 153.182 75.4415 151.804 81.2976 150.134C93.0194 146.822 104.405 142.497 115.666 138.014C121.244 135.762 126.951 133.91 132.764 132.388C134.214 131.989 135.678 131.658 137.137 131.293C138.606 130.972 140.065 130.617 141.539 130.333C144.476 129.709 147.443 129.21 150.409 128.74C156.352 127.857 162.333 127.237 168.323 127.036C172.907 126.863 177.496 126.93 182.051 127.285C181.994 127.29 181.936 127.295 181.879 127.3C181.879 127.3 181.048 127.391 180.198 127.482C179.349 127.588 178.494 127.765 178.418 127.77C177.779 127.919 177.602 128.634 177.813 129.421C178.024 130.204 178.518 130.765 179.099 130.631C179.166 130.621 179.934 130.367 180.702 130.175C181.475 129.993 182.229 129.82 182.229 129.82C185.128 129.201 188.123 128.941 191.128 129.066C192.631 129.109 194.133 129.277 195.626 129.517C196.135 129.604 196.644 129.705 197.152 129.81C198.127 130.079 199.087 130.386 200.042 130.708C200.628 130.972 201.208 131.245 201.77 131.543C203.186 132.287 204.525 133.151 205.692 134.164C206.868 135.162 207.823 136.348 208.452 137.63C208.452 137.63 208.524 137.802 208.629 138.062C208.754 138.316 208.831 138.681 208.946 139.036C209.114 139.766 209.138 140.519 209.153 140.586C209.177 141.134 209.839 141.465 210.655 141.498C211.461 141.532 212.124 141.114 212.081 140.322C212.066 140.231 211.913 139.19 211.567 138.225C211.385 137.802 211.226 137.385 211.053 137.073C211.831 138.167 212.652 139.564 213.108 141.066C214.149 144.499 214.821 146.764 216.722 146.764C218.191 146.764 218.378 144.177 218.388 142.991C219.953 144.844 221.326 146.841 222.401 148.963C223.01 150.239 223.567 151.54 223.942 152.884C224.316 154.228 224.599 155.591 224.686 156.964C224.858 159.696 224.426 162.456 223.207 164.832C222.017 167.212 220.121 169.2 217.788 170.472C217.788 170.472 217.75 170.501 217.663 170.539C217.582 170.577 217.457 170.64 217.294 170.717C217.13 170.793 216.934 170.894 216.698 171.005C216.454 171.101 216.175 171.206 215.858 171.331C214.62 171.773 212.604 172.315 210.271 172.358C207.953 172.401 205.216 171.893 202.989 170.217C201.866 169.406 200.906 168.312 200.167 167.049C199.807 166.411 199.509 165.729 199.269 165.019C199.053 164.304 198.871 163.564 198.784 162.811C198.703 162.057 198.66 161.289 198.727 160.526C198.732 160.142 198.808 159.768 198.847 159.388C198.928 159.014 198.972 158.635 199.082 158.27C199.231 157.593 199.476 156.94 199.735 156.307C199.888 156.096 200.047 155.884 200.22 155.659C200.954 154.723 201.876 153.681 202.989 152.783C204.093 151.886 205.423 151.161 206.719 150.998C207.377 150.911 207.962 150.959 208.601 151.113C209.234 151.267 209.786 151.502 210.137 151.799C210.501 152.087 210.674 152.404 210.775 152.716C210.861 153.043 210.881 153.393 210.828 153.758C210.737 154.487 210.401 155.15 210.132 155.519C209.858 155.904 209.676 156.043 209.652 156.072C209.551 156.201 209.7 156.46 209.935 156.897C210.175 157.315 210.487 157.92 210.905 158.529C211.322 159.139 211.793 159.624 212.335 159.811C212.858 160.003 213.429 159.892 213.775 159.46C213.861 159.355 214.317 158.76 214.725 157.761C215.124 156.763 215.513 155.356 215.33 153.575C215.239 152.692 214.961 151.699 214.385 150.767C214.087 150.307 213.727 149.87 213.3 149.5C212.873 149.14 212.402 148.819 211.908 148.607C210.919 148.147 209.906 147.993 208.951 147.969C207.996 147.935 206.94 148.084 206.028 148.42C204.17 149.097 202.802 150.359 201.789 151.593C201.65 151.761 201.52 151.929 201.396 152.097C202.365 149.332 203.052 146.577 203.138 143.87C203.167 142.266 202.994 140.644 202.332 139.166C202.005 138.431 201.564 137.754 201.045 137.188C200.522 136.626 199.936 136.209 199.384 135.887C198.256 135.273 197.287 135.081 196.596 134.966C195.924 134.87 195.42 134.865 195.208 134.865C193.365 134.87 191.603 135.537 190.351 136.554C189.074 137.558 188.229 138.834 187.749 140.121C187.509 140.769 187.37 141.426 187.303 142.07C187.25 142.718 187.274 143.351 187.384 143.947C187.61 145.147 188.191 146.179 188.872 146.875C189.559 147.58 190.307 147.964 190.936 148.185C191.258 148.291 191.551 148.367 191.819 148.396C192.088 148.444 192.328 148.454 192.544 148.444C192.971 148.444 193.293 148.353 193.509 148.247C193.725 148.142 193.84 148.012 193.864 147.863C193.888 147.715 193.816 147.547 193.672 147.374C193.528 147.196 193.298 147.023 193.029 146.798C192.491 146.366 191.719 145.785 191.315 144.945C191.119 144.527 190.999 144.057 191.008 143.505C191.018 143.226 191.061 142.934 191.133 142.631C191.219 142.324 191.33 142.007 191.493 141.69C192.136 140.414 193.504 139.266 195.223 139.276C195.352 139.276 196.38 139.266 197.248 139.718C197.666 139.958 198.045 140.279 198.348 140.937C198.66 141.575 198.828 142.578 198.818 143.75C198.784 146.116 198.031 149.078 196.898 152.092C196.62 152.851 196.303 153.614 195.981 154.382C195.616 155.289 195.271 156.22 195.05 157.195C194.565 159.134 194.45 161.193 194.69 163.209C194.824 164.217 195.045 165.216 195.357 166.18C195.688 167.14 196.082 168.081 196.591 168.95C197.1 169.819 197.671 170.649 198.338 171.379C198.655 171.763 199.024 172.089 199.37 172.435C199.749 172.742 200.1 173.083 200.498 173.352C202.044 174.494 203.752 175.277 205.418 175.709C207.089 176.155 208.701 176.289 210.161 176.27C211.625 176.256 212.925 176.04 214.068 175.829C214.629 175.689 215.153 175.589 215.642 175.445C216.132 175.291 216.583 175.161 216.981 175.017C217.773 174.705 218.398 174.456 218.796 174.235C219.204 174.029 219.42 173.923 219.42 173.923C222.415 172.301 224.911 169.733 226.438 166.694C227.993 163.656 228.526 160.219 228.324 156.916C228.199 155.265 227.887 153.643 227.446 152.068C227.134 151.036 226.759 150.028 226.337 149.044C227.407 148.996 228.468 148.895 229.529 148.727C231.223 148.459 232.908 148.046 234.526 147.403C236.139 146.764 237.703 145.9 239.052 144.734C239.729 144.158 240.353 143.505 240.891 142.785C241.174 142.43 241.39 142.065 241.64 141.705C241.76 141.522 241.884 141.345 242 141.158L242.326 140.586C242.83 139.703 243.276 138.767 243.598 137.769C244.985 138.666 246.396 139.463 247.87 140.207C249.425 140.975 251 141.652 252.593 142.281C255.781 143.538 259.04 144.58 262.352 145.454C268.971 147.177 275.816 148.238 282.762 148.175C282.762 148.175 286.419 148.185 290.164 147.667C291.095 147.513 292.036 147.393 292.919 147.196C293.36 147.105 293.788 147.019 294.2 146.937C294.608 146.836 294.992 146.74 295.357 146.649C296.082 146.481 296.692 146.294 297.143 146.155C297.594 146.015 297.887 145.924 297.968 145.9C299.336 145.415 300.306 144.777 300.829 144.09C301.362 143.418 301.477 142.766 301.218 142.214C300.969 141.657 300.388 141.311 299.591 141.225ZM21.3974 124.804C22.391 125.692 23.0966 126.834 23.3462 128.068C23.447 128.687 23.4326 129.321 23.279 129.916C23.1302 130.506 22.8134 131.068 22.4198 131.389C22.3718 131.428 22.3238 131.442 22.2758 131.476L22.2038 131.524L22.0982 131.562C21.9638 131.62 21.815 131.653 21.6758 131.692C21.3878 131.749 21.095 131.769 20.8166 131.725C20.255 131.653 19.7414 131.341 19.3286 130.866C18.5077 129.901 18.0565 128.524 17.7685 127.161C17.6005 126.479 17.5381 125.764 17.4325 125.063L17.3461 123.993C17.3173 123.637 17.2837 123.277 17.2885 122.927C17.2837 122.788 17.2885 122.649 17.2885 122.509C17.5189 122.577 17.7494 122.639 17.975 122.721C19.2374 123.167 20.4086 123.916 21.3974 124.804ZM239.801 131.485C239.806 131.485 239.806 131.485 239.801 131.485V131.485ZM240.084 132.028C240.012 131.922 239.95 131.817 239.902 131.721C240.022 131.73 240.147 131.745 240.271 131.764C240.411 131.821 240.564 131.826 240.694 131.913C241.251 132.167 241.721 132.652 242.009 133.262C242.139 133.53 242.225 133.828 242.292 134.13C241.76 133.727 241.251 133.305 240.795 132.854C240.526 132.585 240.271 132.301 240.084 132.028Z" fill="url(#paint0_linear_1875_8259)"/>
<path d="M319.305 82.2073C318.581 78.6073 317.357 75.1128 315.758 71.8103C314.947 70.1639 314.035 68.5703 313.051 67.0198C312.052 65.4838 310.968 64.0006 309.82 62.575C308.731 61.2357 307.574 59.9589 306.369 58.7349C306.177 57.4341 306.105 56.1237 306.345 54.9428C306.489 54.2084 306.792 53.57 307.209 53.162C307.627 52.754 308.155 52.562 308.764 52.5092C308.764 52.5092 309.086 52.4852 309.427 52.5092C309.768 52.5332 310.118 52.6148 310.147 52.6148C310.396 52.634 310.617 52.01 310.79 51.218C310.963 50.426 310.814 49.7204 310.392 49.682C310.344 49.6772 309.782 49.6772 309.24 49.7732C308.692 49.8596 308.164 50.0372 308.164 50.0372C307.166 50.3492 306.158 51.0116 305.582 51.9524C305.001 52.8836 304.828 53.906 304.838 54.8228C304.857 55.8405 305.04 56.7861 305.304 57.6933C304.862 57.2661 304.416 56.8389 303.959 56.4261C302.5 50.714 299.951 46.7539 298.166 47.4211C296.203 48.1555 296.635 50.426 296.635 50.426C296.635 50.426 292.958 45.0355 291.057 45.7699C290.476 45.9955 290.193 46.4419 290.083 46.9507L289.454 46.6435L288.172 46.0819C286.454 45.3619 284.687 44.7715 282.897 44.2963C279.316 43.3459 275.634 42.8322 271.938 42.7218C271.938 42.7218 271.453 42.7122 270.599 42.7026C269.745 42.7122 268.521 42.717 267.047 42.837C264.104 43.0674 260.14 43.6338 256.276 45.2755C255.311 45.6787 254.36 46.1875 253.448 46.7539C252.536 47.3395 251.672 48.0259 250.895 48.8227C250.707 49.0339 250.52 49.2403 250.338 49.4467C250.184 49.6531 250.031 49.8548 249.882 50.0564C249.733 50.258 249.584 50.4596 249.44 50.6612C249.368 50.762 249.296 50.858 249.224 50.9588L249.037 51.2804C248.792 51.7124 248.543 52.1156 248.331 52.5428C248.144 52.9844 247.967 53.4116 247.789 53.8244C247.175 55.5429 247.074 57.1941 247.151 58.3989C247.237 58.9989 247.309 59.5029 247.391 59.8677C247.501 60.2325 247.573 60.4725 247.607 60.5781C248.197 62.3734 249.296 63.7126 250.391 64.5814C250.674 64.7926 250.947 64.9894 251.211 65.1622C251.495 65.3158 251.768 65.4502 252.032 65.575C252.167 65.6374 252.291 65.6998 252.421 65.7478C252.551 65.7862 252.68 65.8294 252.805 65.8678C253.055 65.9398 253.295 66.0022 253.515 66.055C254.432 66.2038 255.133 66.1654 255.613 65.9734C256.088 65.8006 256.328 65.5558 256.372 65.2534C256.415 64.951 256.261 64.6246 255.968 64.2934C255.671 63.9862 255.253 63.5926 254.744 63.1894C253.77 62.3206 252.445 61.1398 251.792 59.1909C251.773 59.1333 251.73 59.0037 251.663 58.8069C251.615 58.6053 251.586 58.3317 251.514 58.0005C251.475 57.3237 251.49 56.3781 251.855 55.2597C251.965 54.9812 252.08 54.6932 252.2 54.4004C252.335 54.1076 252.517 53.8148 252.68 53.5076C252.824 53.1908 253.074 52.9076 253.28 52.5956C253.386 52.442 253.496 52.2836 253.607 52.13C253.717 52.0004 253.832 51.8708 253.947 51.7412C254.427 51.2276 255.008 50.7236 255.68 50.2724C256.362 49.8308 257.092 49.4083 257.879 49.0627C261.028 47.6275 264.623 46.9987 267.277 46.7395C268.612 46.6003 269.735 46.5715 270.517 46.5475C271.3 46.5331 271.746 46.5379 271.746 46.5379C275.154 46.5619 278.572 46.9699 281.879 47.7763C283.53 48.1795 285.158 48.6883 286.732 49.3027L287.903 49.7924L289.05 50.3252C289.818 50.7044 290.591 51.098 291.345 51.5156C297.403 54.8372 302.942 59.1909 307.406 64.4518C311.875 69.7031 315.177 75.9576 316.68 82.6873C317.462 86.0426 317.755 89.5082 317.693 92.9691C317.625 96.4443 317.165 99.9052 316.363 103.28C315.513 106.64 314.304 109.913 312.614 112.942C311.779 114.459 310.848 115.923 309.792 117.301C309.288 118.006 308.712 118.654 308.16 119.326C307.66 119.869 307.161 120.421 306.638 120.944C308.673 117.742 309.806 113.95 310.099 110.153C310.099 110.153 310.209 108.939 310.19 107.686C310.185 106.438 310.056 105.152 310.036 105.041C309.897 104.081 309.11 103.668 308.328 103.87C307.54 104.076 307.008 104.633 307.128 105.468C307.142 105.564 307.358 106.693 307.454 107.825C307.564 108.953 307.56 110.067 307.56 110.067C307.55 114.277 306.446 118.549 303.974 122.038C302.889 123.627 301.545 125.019 300.033 126.234C296.433 128.504 292.449 130.208 288.316 131.331C284.927 132.224 281.452 132.834 277.929 133.04L276.613 133.155L275.293 133.194C274.415 133.213 273.532 133.251 272.649 133.256L270.004 133.175L269.341 133.155L268.684 133.098L267.368 132.983C263.86 132.651 260.375 132.013 256.996 130.991C253.626 129.963 250.328 128.605 247.362 126.709C246.69 126.253 246.224 126.733 246.906 127.275C249.925 129.291 253.247 130.731 256.66 131.845C260.077 132.954 263.615 133.674 267.186 134.082L268.525 134.226C268.972 134.279 269.418 134.322 269.869 134.331L272.562 134.461C273.46 134.485 274.357 134.451 275.255 134.451L276.604 134.437L277.948 134.351C281.534 134.202 285.119 133.659 288.628 132.805C292.127 131.907 295.555 130.664 298.766 128.96C299.577 128.552 300.35 128.072 301.142 127.621C301.9 127.122 302.683 126.651 303.412 126.104C304.166 125.59 304.872 125.014 305.587 124.448C306.273 123.853 306.984 123.272 307.632 122.629C308.966 121.381 310.19 120.018 311.318 118.582C312.46 117.157 313.473 115.625 314.385 114.046C316.229 110.883 317.577 107.461 318.542 103.942C319.459 100.409 320.006 96.79 320.155 93.1563C320.294 89.4842 320.069 85.7978 319.305 82.2073Z" fill="url(#paint1_linear_1875_8259)"/>
<path d="M180.813 144.949C180.371 144.177 179.843 143.457 179.258 142.804C178.667 142.146 177.995 141.58 177.304 141.061C175.893 140.053 174.347 139.328 172.768 138.815C171.947 138.546 171.121 138.34 170.291 138.167C170.281 136.856 169.974 135.028 168.313 135.104C165.74 135.229 163.105 137.005 163.105 137.005C163.105 137.005 163.288 134.552 161.204 135.292C159.98 135.724 159.016 136.914 158.425 137.821L157.264 137.912L156.092 138.061L153.755 138.359C150.649 138.853 147.572 139.472 144.543 140.274C141.519 141.09 138.538 142.05 135.62 143.169C132.706 144.297 129.841 145.545 127.085 147.037C126.97 147.1 126.937 147.215 126.951 147.335C126.735 147.455 126.514 147.575 126.298 147.695C126.193 147.757 126.404 148.151 126.519 148.127C130.148 146.447 133.959 145.122 137.823 144.229C139.758 143.788 141.711 143.481 143.655 143.332C145.599 143.197 147.543 143.255 149.401 143.572C149.401 143.572 149.641 143.625 150.006 143.706C150.375 143.773 150.846 143.922 151.321 144.057C151.787 144.22 152.262 144.383 152.607 144.541C152.953 144.7 153.198 144.81 153.236 144.829C153.884 145.137 154.566 144.757 154.974 144.052C155.382 143.356 155.257 142.53 154.417 142.141C154.369 142.122 154.057 142.012 153.615 141.853C153.174 141.7 152.593 141.556 152.027 141.417C151.451 141.306 150.884 141.186 150.457 141.148C150.035 141.095 149.751 141.061 149.751 141.061C149.387 141.033 149.027 141.013 148.662 140.999C150.419 140.697 152.18 140.442 153.947 140.236L156.236 140.039L157.384 139.943L158.531 139.9L160.825 139.813C161.584 139.813 162.347 139.799 163.1 139.832C166.115 139.933 169.129 140.317 171.846 141.316C173.2 141.815 174.457 142.482 175.542 143.322C176.617 144.172 177.496 145.204 178.11 146.375C178.715 147.551 179.061 148.866 179.147 150.215C179.19 150.887 179.176 151.573 179.094 152.236C179.08 152.409 179.046 152.553 179.013 152.697C178.979 152.841 178.97 152.985 178.917 153.134C178.821 153.426 178.739 153.719 178.6 154.002C178.11 155.154 177.28 156.206 176.305 157.012C175.331 157.833 174.174 158.361 172.993 158.562C172.993 158.562 172.84 158.596 172.566 158.63C172.288 158.625 171.899 158.697 171.419 158.63C170.473 158.567 169.158 158.202 168.222 157.506C167.286 156.806 166.71 155.778 166.533 154.89C166.336 154.002 166.441 153.35 166.437 153.254C166.528 152.394 166.523 151.703 166.446 151.084C166.345 150.465 166.144 149.865 165.673 149.461C165.443 149.265 165.164 149.149 164.838 149.145C164.675 149.145 164.497 149.169 164.31 149.231C164.214 149.26 164.118 149.298 164.022 149.341C163.931 149.389 163.84 149.452 163.744 149.514C162.956 150.023 162.193 151.218 162.035 152.884C162.04 153.071 161.896 154.305 162.347 155.961C162.745 157.612 164.012 159.638 165.832 160.852C166.293 161.13 166.744 161.438 167.224 161.62C167.459 161.721 167.694 161.822 167.929 161.922C168.165 161.999 168.4 162.062 168.63 162.129C168.861 162.191 169.086 162.263 169.307 162.311C169.533 162.345 169.749 162.383 169.965 162.417C170.176 162.45 170.382 162.479 170.584 162.508C170.79 162.518 170.987 162.522 171.174 162.527C171.928 162.58 172.557 162.479 172.993 162.441C173.214 162.426 173.377 162.369 173.493 162.35C173.608 162.326 173.67 162.311 173.67 162.311C175.537 161.918 177.261 161.025 178.619 159.791C179.982 158.567 181.086 157.074 181.754 155.342C182.109 154.502 182.31 153.527 182.402 152.61C182.474 151.727 182.459 150.853 182.368 149.98C182.205 148.233 181.691 146.5 180.813 144.949Z" fill="url(#paint2_linear_1875_8259)"/>
<path d="M11.5912 100.861C12.0424 101.317 12.5128 100.842 12.1528 100.4C11.3128 99.4641 10.5832 98.4032 9.94957 97.304C9.31116 96.2 8.76874 95.0432 8.32234 93.848C7.87593 92.6528 7.53032 91.4239 7.27112 90.1759C7.01191 88.9279 6.87273 87.6607 6.78153 86.3886C6.51753 81.2862 7.64553 76.1837 9.61356 71.4604C10.5928 69.094 11.7688 66.7995 13.0696 64.5963C14.3608 62.417 15.9689 60.449 17.7497 58.6634C19.5257 56.8682 21.5802 55.3609 23.7306 54.0313C24.7962 53.3449 25.9339 52.7833 27.0619 52.1977L28.7947 51.4105C29.3707 51.1464 29.9755 50.9353 30.5659 50.7C35.318 48.8712 40.3629 47.8104 45.4462 47.2056C45.8686 47.1576 46.291 47.1192 46.7134 47.076C48.931 47.0376 51.1439 47.0856 53.3519 47.2488L53.9663 47.2824L54.5759 47.3544L55.7999 47.4984L58.2384 47.7912L60.6528 48.2328L61.8577 48.4536C62.2561 48.5352 62.6497 48.6456 63.0481 48.7416L65.4193 49.332L67.7474 50.0616C68.5298 50.2872 69.2786 50.5944 70.0418 50.8776L71.1794 51.3097C71.5538 51.4633 71.9186 51.6361 72.2882 51.7993C72.2882 51.7993 72.677 51.9721 73.2578 52.2313C73.8435 52.4857 74.5923 52.8985 75.3651 53.2825C76.1235 53.6905 76.8723 54.1273 77.4435 54.4729C78.0051 54.8281 78.4083 55.0825 78.4707 55.1209C79.5507 55.8121 80.4628 55.6969 80.986 55.0729C81.5092 54.4489 81.2404 53.3977 80.0356 52.6297C79.9636 52.5913 79.5172 52.3369 78.8787 51.9769C78.2403 51.6313 77.4051 51.2089 76.5699 50.8201C75.7251 50.46 74.9043 50.0616 74.2658 49.8312C73.6322 49.5912 73.2146 49.4328 73.2146 49.4328C72.8162 49.284 72.4226 49.1208 72.0194 48.9816L70.805 48.5928C69.9938 48.3384 69.197 48.0552 68.3666 47.8632L65.9089 47.2344L65.6353 47.1816C66.5809 47.2776 67.5265 47.3832 68.4721 47.5128C71.0066 47.8536 73.5458 48.2856 75.9411 48.9144C78.3843 49.572 80.8084 50.4024 83.2036 51.3049C85.6036 52.2025 87.9653 53.2057 90.3029 54.2761C90.3029 54.2761 90.6101 54.4201 91.1478 54.6697C91.6902 54.9145 92.4533 55.2841 93.3702 55.7353C95.2086 56.6233 97.6278 57.9002 100.042 59.249C101.238 59.9402 102.447 60.6218 103.566 61.313C104.127 61.6538 104.67 61.9898 105.188 62.3066C105.702 62.633 106.186 62.9499 106.642 63.2379C107.559 63.8139 108.313 64.3371 108.879 64.7211C109.446 65.1003 109.81 65.3499 109.911 65.4171C111.634 66.5979 113.103 67.3323 114.222 67.6827C115.345 68.0235 116.156 67.9371 116.526 67.4523C116.895 66.9675 116.756 66.1803 116.079 65.1771C115.412 64.1643 114.174 62.9883 112.379 61.7594C112.273 61.6922 111.889 61.4426 111.298 61.0586C110.703 60.6794 109.906 60.1562 108.951 59.585C108.476 59.297 107.962 58.985 107.43 58.6634C106.887 58.3514 106.316 58.025 105.73 57.6842C104.564 57.0025 103.302 56.3353 102.054 55.6537C99.5383 54.3337 97.023 53.0905 95.1126 52.2313C94.1622 51.7945 93.3702 51.4297 92.8038 51.1993C92.2421 50.9593 91.9254 50.8201 91.9254 50.8201C89.4917 49.7736 87.0293 48.7992 84.5188 47.9304C82.0132 47.0568 79.4788 46.2504 76.8675 45.6168C74.2035 44.9784 71.5778 44.6039 68.9378 44.3111C66.2977 44.0231 63.6577 43.8455 61.008 43.7639C55.7183 43.5959 50.4143 43.8503 45.1582 44.5607C42.2061 44.9831 39.2637 45.564 36.374 46.3464C35.4524 44.5559 33.3692 42.4007 30.0523 43.9799C26.0682 45.8808 24.6618 50.292 24.6618 50.292C24.6618 50.292 22.089 48.0264 20.6778 50.5368C19.857 52.0009 19.5593 53.5177 19.4489 54.5401C18.3833 55.3897 17.3705 56.3065 16.4345 57.2954C14.5865 59.2346 12.9256 61.361 11.6152 63.6987C10.3192 66.0075 9.17677 68.3931 8.21675 70.8604C6.30152 75.7805 5.24548 81.1182 5.64869 86.4222C6.0903 91.6927 8.01993 96.92 11.5912 100.861Z" fill="url(#paint3_linear_1875_8259)"/>
<path d="M167.79 58.2841C168.769 58.3513 169.743 58.3897 170.713 58.5145C171.687 58.6009 172.647 58.7737 173.612 58.9225C174.572 59.1193 175.532 59.2825 176.478 59.5321C180.279 60.4393 183.956 61.8409 187.532 63.4778C187.532 63.4778 189.409 64.361 191.296 65.345C193.177 66.3338 195.073 67.4186 195.241 67.5002C196.667 68.2634 197.934 67.8266 198.525 66.7562C199.11 65.6906 198.774 64.385 197.296 63.593C197.123 63.5065 195.102 62.5273 193.091 61.6393C191.07 60.7561 189.054 59.9785 189.054 59.9785C187.124 59.2489 185.18 58.5481 183.184 57.9817C181.196 57.4008 179.175 56.9064 177.131 56.556C176.113 56.3544 175.076 56.244 174.049 56.1C173.012 56.0088 171.985 55.8936 170.943 55.8648C169.907 55.7976 168.87 55.8216 167.838 55.8168C166.801 55.8696 165.774 55.8792 164.737 56.0088C160.59 56.4072 156.625 57.5113 152.78 58.8265C148.945 60.1849 145.22 61.7881 141.624 63.6602C141.408 63.7754 141.701 64.3754 141.927 64.3178C142.1 64.241 142.272 64.1738 142.445 64.1018C142.474 64.1258 142.508 64.1402 142.541 64.1306C145.176 63.1033 147.937 62.3593 150.711 61.8217C153.49 61.2793 156.308 60.9817 159.116 60.9577C160.522 60.9337 161.91 61.0105 163.268 61.1929C164.626 61.3705 165.956 61.6921 167.146 62.2153C168.342 62.7193 169.35 63.5066 169.921 64.4282C170.18 64.9034 170.319 65.4026 170.348 65.9162C170.343 66.0458 170.343 66.1754 170.343 66.305L170.276 66.6986C170.267 66.8378 170.209 66.9482 170.175 67.0634C170.142 67.1834 170.108 67.3034 170.041 67.3994C170.041 67.3994 170.012 67.4522 169.959 67.5482C169.926 67.6538 169.801 67.745 169.705 67.8938C169.465 68.1434 169.071 68.417 168.586 68.5226C168.106 68.6426 167.574 68.5898 167.228 68.4698C167.041 68.4314 166.921 68.3306 166.815 68.297C166.729 68.2346 166.671 68.1962 166.657 68.1866C166.58 68.153 166.518 68.1098 166.46 68.0762C166.398 68.0426 166.321 68.0282 166.254 68.009C166.134 67.9562 165.956 67.9514 165.802 67.9322C165.49 67.8986 165.073 67.913 164.698 68.0618C164.324 68.2106 164.06 68.513 164.031 69.0218C164.017 69.2762 164.113 69.5451 164.262 69.8523C164.343 70.0011 164.458 70.1307 164.588 70.2747C164.718 70.4187 164.871 70.5531 165.054 70.6587C165.097 70.6827 165.246 70.7787 165.486 70.9083C165.735 70.9995 166.062 71.1771 166.47 71.2539C167.271 71.4651 168.342 71.4891 169.34 71.1675C170.343 70.8699 171.212 70.1979 171.697 69.5835C171.913 69.2619 172.119 69.0027 172.201 68.7914C172.292 68.5898 172.345 68.4746 172.345 68.4746C172.393 68.3642 172.446 68.2538 172.484 68.1434L172.575 67.8026C172.628 67.577 172.705 67.3466 172.719 67.1258L172.787 66.4586L172.758 65.777C172.667 64.8698 172.355 63.9818 171.87 63.2329C170.852 61.7641 169.383 60.8761 167.929 60.3433C166.465 59.8009 164.967 59.5465 163.484 59.4361C162.006 59.3209 160.527 59.3305 159.078 59.4457C157.201 59.5753 155.343 59.8297 153.505 60.1849C157.244 59.1769 161.065 58.3993 164.852 58.2793C165.826 58.2169 166.815 58.2745 167.79 58.2841Z" fill="url(#paint4_linear_1875_8259)"/>
<path d="M289.012 58.3562C287.956 57.3578 286.766 56.5658 285.504 55.8698C285.403 55.8122 285.297 55.7594 285.192 55.7018C282.988 54.3338 280.622 53.2057 278.087 52.4521C274.007 51.2233 269.495 51.0841 265.262 52.3033C265.262 52.3033 264.148 52.6009 263.049 53.0569C261.945 53.4938 260.865 54.0842 260.774 54.1466C259.981 54.6314 259.938 55.5146 260.461 56.1386C260.98 56.7626 261.666 57.0506 262.319 56.6522C262.391 56.6042 263.26 56.0234 264.191 55.553C265.113 55.0682 266.078 54.713 266.078 54.713C269.231 53.5177 272.721 53.1769 276.143 53.6473L276.004 53.6521C275.635 53.6713 275.255 53.6522 274.891 53.7194L273.787 53.8682C273.417 53.9162 273.043 53.9642 272.687 54.065C272.687 54.065 271.924 54.2474 271.142 54.4298C270.374 54.6506 269.61 54.953 269.543 54.9722C268.977 55.2122 268.953 55.937 269.313 56.6666C269.673 57.3962 270.23 57.8762 270.719 57.6698C270.777 57.6554 271.41 57.305 272.049 57.017C272.702 56.7674 273.345 56.5226 273.345 56.5226C273.647 56.3882 273.964 56.3114 274.281 56.2298L275.231 55.9754C275.548 55.8746 275.875 55.8554 276.201 55.7978L277.18 55.6442C278.491 55.553 279.835 55.5146 281.164 55.7354C281.836 55.8026 282.484 55.9802 283.151 56.1242C283.799 56.321 284.457 56.5034 285.086 56.7674C285.528 56.945 285.964 57.1418 286.396 57.353C287.217 57.8282 288.028 58.3322 288.816 58.8698C288.931 58.913 289.195 58.553 289.094 58.4762C289.07 58.457 289.046 58.4378 289.022 58.4186C289.012 58.3898 289.017 58.3706 289.012 58.3562Z" fill="url(#paint5_linear_1875_8259)"/>
<path d="M88.8386 45.5783C88.9442 45.6167 90.1443 46.0535 91.3203 46.4759C92.4963 46.9223 93.6435 47.3591 93.6435 47.3591C101.453 50.46 109.095 54.0696 116.42 58.2697C118.786 60.4585 121.95 61.7978 125.42 61.7978C128.684 61.7978 131.675 60.6122 133.993 58.6489C137.286 57.0889 140.689 55.7353 144.136 54.5593C148.888 52.9656 153.755 51.7176 158.689 50.94C163.619 50.148 168.616 49.932 173.613 50.0664C174.237 50.0712 174.861 50.1048 175.48 50.148L177.342 50.2584L179.191 50.4456L180.117 50.5416L181.034 50.6808C183.487 51.012 185.887 51.564 188.229 52.308C190.572 53.0472 192.837 54.0072 195.084 55.0873C197.33 56.1625 199.581 57.3289 201.905 58.4041L208.817 61.5386C211.135 62.5754 213.492 63.5882 215.945 64.4426C218.398 65.297 220.961 65.9691 223.582 66.3339C226.207 66.6939 228.852 66.7563 231.483 66.5739C234.166 66.3867 236.95 65.7722 239.484 64.2938C239.643 64.2026 239.801 64.1162 239.96 64.0202L240.411 63.6938C240.704 63.4682 241.016 63.2666 241.294 63.0122L242.11 62.2298C242.379 61.9658 242.6 61.649 242.84 61.3562C243.761 60.1417 244.433 58.7113 244.764 57.2089C244.764 57.2089 244.827 56.8105 244.937 56.1097C244.99 55.7593 244.98 55.3321 245.004 54.8377C245.024 54.5929 244.985 54.3337 244.971 54.06C244.947 53.7864 244.932 53.4936 244.884 53.2008C244.692 52.0104 244.328 50.6664 243.531 49.26C242.739 47.8727 241.448 46.5815 239.878 45.7847C238.313 44.9831 236.532 44.6279 234.843 44.8007C233.158 44.9639 231.55 45.6311 230.388 46.6631C230.086 46.8983 229.846 47.2007 229.611 47.4743C229.356 47.7623 229.212 48.0023 229.059 48.2375C228.9 48.4679 228.766 48.7032 228.651 48.9336C228.531 49.164 228.415 49.3656 228.334 49.5864C228.247 49.7976 228.171 49.9896 228.103 50.1624C228.046 50.3448 228.003 50.508 227.959 50.652C227.878 50.9304 227.839 51.1272 227.83 51.2136C227.691 51.9432 227.705 52.692 227.83 53.3736C227.897 53.7144 227.998 54.0457 228.113 54.3481C228.252 54.6457 228.367 54.9385 228.54 55.1881C229.188 56.2105 230.023 56.7673 230.705 57.0409C231.401 57.3001 231.967 57.3145 232.366 57.1945C232.769 57.0745 232.999 56.8585 233.1 56.5705C233.311 55.9849 232.947 55.3033 232.582 54.5449C232.409 54.1561 232.251 53.7576 232.174 53.3592C232.087 52.9608 232.087 52.5624 232.174 52.0008C232.174 51.9672 232.188 51.8904 232.222 51.7704C232.236 51.708 232.255 51.6408 232.275 51.5592C232.308 51.4776 232.342 51.3864 232.38 51.2856C232.529 50.9064 232.918 50.2008 233.273 49.884C233.686 49.4856 234.396 49.1256 235.275 49.0056C236.148 48.8712 237.156 49.044 238.011 49.4472C238.875 49.8504 239.595 50.508 240.08 51.2856C240.555 52.0488 240.876 52.98 241.02 53.7624C241.073 53.9592 241.068 54.1464 241.097 54.3288C241.112 54.5065 241.15 54.6793 241.145 54.8377C241.136 55.1593 241.15 55.4377 241.136 55.6633C241.078 56.1145 241.044 56.3737 241.044 56.3737C240.684 58.3177 239.484 60.0457 237.67 61.169C235.865 62.3018 233.614 62.9258 231.286 63.1514C228.895 63.3866 226.457 63.3914 224.071 63.1322C221.681 62.873 219.319 62.3162 216.982 61.577C216.598 61.457 216.218 61.3226 215.834 61.193C215.959 57.9241 214.169 56.6041 214.169 56.6041C208.039 58.3177 205.039 56.4217 205.039 56.4217C205.039 56.4217 207.429 53.9112 205.039 53.4792C203.426 53.1912 200.287 53.5992 198.41 53.892C197.676 53.5512 196.936 53.2104 196.188 52.8744C193.86 51.828 191.45 50.8728 188.964 50.1528C186.482 49.428 183.938 48.9144 181.384 48.6312L180.429 48.5112L179.469 48.4343L177.554 48.2855L175.638 48.2183C175 48.1943 174.362 48.1704 173.723 48.1848C168.635 48.1752 163.523 48.5256 158.512 49.4568C155.709 49.9704 152.934 50.6376 150.203 51.4248C150.275 50.6376 150.323 49.8456 150.323 49.0584C150.323 38.8246 144.112 30.0212 135.265 26.2052C136.139 26.1812 137.012 25.9844 137.79 25.5956C138.836 25.0627 139.7 24.2515 140.291 23.2675C140.363 23.1427 139.969 22.9267 139.887 23.0035C139.287 23.8483 138.433 24.53 137.492 24.9188C136.547 25.3028 135.505 25.37 134.502 25.178C133.508 24.9811 132.505 24.5779 131.689 24.0211C130.859 23.4691 130.273 22.6819 129.999 21.8131C129.745 20.9347 129.798 19.9699 130.124 19.0771C130.187 18.8514 130.307 18.6402 130.398 18.4194C130.518 18.2226 130.623 17.9778 130.758 17.829C130.988 17.469 131.295 17.2242 131.631 17.0514C132.289 16.701 133.187 16.7106 133.988 17.0082C134.382 17.1474 134.766 17.373 134.991 17.589C135.15 17.7618 135.313 18.0498 135.366 18.3954C135.371 18.3954 135.375 18.4386 135.38 18.525C135.385 18.6066 135.409 18.7218 135.395 18.8658C135.39 19.1443 135.313 19.5379 135.155 19.7875C134.991 20.0467 134.838 20.1043 134.732 20.1235C134.655 20.1091 134.617 20.1475 134.55 20.1235C134.487 20.1091 134.449 20.1091 134.439 20.1091C134.243 20.0899 133.988 20.2003 133.715 20.3635C133.451 20.5459 133.182 20.8387 133.004 21.2035C132.827 21.5683 132.793 21.9523 132.971 22.3075C133.134 22.6675 133.561 22.9891 134.262 23.0419C134.305 23.0419 134.454 23.0467 134.689 23.0371C134.915 23.0419 135.265 22.9507 135.639 22.8451C135.827 22.7635 136.023 22.6723 136.225 22.5619C136.422 22.4467 136.599 22.2883 136.787 22.1347C136.964 21.9763 137.103 21.7843 137.257 21.5971C137.396 21.4051 137.492 21.2035 137.603 21.0019C137.982 20.1859 138.035 19.3699 137.996 18.7794C137.987 18.4818 137.934 18.237 137.9 18.069C137.867 17.901 137.843 17.805 137.843 17.805C137.641 17.0754 137.257 16.3506 136.595 15.7746C135.971 15.2754 135.337 15.0114 134.684 14.8194C134.027 14.6418 133.345 14.5602 132.649 14.6178C131.958 14.6802 131.247 14.8914 130.633 15.2706C130.019 15.645 129.5 16.1826 129.169 16.773C128.972 17.0658 128.876 17.3442 128.737 17.6322C128.636 17.9298 128.507 18.2178 128.439 18.525C128.098 19.7347 128.113 21.0739 128.569 22.2787C128.953 23.2435 129.62 24.0643 130.412 24.6595C128.876 24.3475 127.287 24.1795 125.665 24.1651C125.674 21.0643 125.689 17.2626 125.694 13.6674L129.702 7.59525L125.439 0.827148L121.177 7.59525L125.209 13.7058C125.204 17.3874 125.19 21.2323 125.18 24.1699C123.63 24.1843 122.118 24.3427 120.644 24.6307C121.383 24.0403 122.002 23.2435 122.367 22.3219C122.828 21.1027 122.838 19.7443 122.492 18.5298C122.425 18.2178 122.295 17.9298 122.19 17.6322C122.046 17.3442 121.954 17.0658 121.753 16.7682C121.422 16.173 120.898 15.6354 120.279 15.2514C119.66 14.8674 118.945 14.6514 118.249 14.589C117.548 14.5314 116.866 14.613 116.209 14.7906C115.551 14.9778 114.917 15.2466 114.293 15.7458C113.626 16.3122 113.233 17.0418 113.041 17.7714C113.041 17.7714 113.012 17.8674 112.978 18.0402C112.945 18.213 112.887 18.453 112.877 18.7554C112.839 19.3507 112.887 20.1667 113.261 20.9875C113.372 21.1891 113.473 21.3955 113.607 21.5875C113.761 21.7747 113.9 21.9667 114.077 22.1299C114.265 22.2835 114.447 22.4419 114.639 22.5571C114.841 22.6627 115.042 22.7587 115.229 22.8403C115.604 22.9459 115.954 23.0371 116.185 23.0323C116.42 23.0371 116.573 23.0371 116.612 23.0371C117.313 22.9795 117.74 22.6579 117.903 22.3027C118.081 21.9475 118.047 21.5635 117.87 21.1987C117.692 20.8339 117.423 20.5411 117.159 20.3587C116.89 20.1907 116.631 20.0851 116.434 20.1043C116.425 20.1043 116.386 20.1043 116.324 20.1187C116.257 20.1379 116.218 20.0995 116.141 20.1187C116.036 20.0947 115.882 20.0419 115.719 19.7827C115.561 19.5331 115.479 19.1443 115.479 18.8658C115.465 18.7218 115.484 18.6066 115.493 18.5298C115.503 18.4482 115.503 18.4002 115.503 18.4002C115.556 18.0546 115.714 17.7618 115.868 17.5842C116.089 17.3634 116.473 17.1378 116.866 16.989C117.673 16.6818 118.575 16.6626 119.247 17.0082C119.588 17.1762 119.9 17.4306 120.14 17.7858C120.274 17.9394 120.38 18.1794 120.505 18.381C120.596 18.6018 120.721 18.813 120.788 19.0434C121.124 19.9411 121.186 20.9203 120.937 21.8179C120.663 22.7059 120.073 23.5123 119.233 24.0787C118.412 24.65 117.404 25.0627 116.391 25.2692C115.378 25.4708 114.313 25.4084 113.338 25.0196C112.373 24.6259 111.5 23.9395 110.876 23.0707C110.809 22.9747 110.41 23.1715 110.463 23.3203C111.077 24.3283 111.956 25.1492 113.026 25.6916C113.761 26.0564 114.577 26.2484 115.397 26.2916C106.964 30.026 100.978 38.3062 100.575 48.0119C98.6164 46.9799 96.6388 45.9815 94.6419 45.0119C94.6419 45.0119 93.5187 44.4791 92.3715 43.9367C91.2195 43.4039 90.0243 42.8759 89.9187 42.8326C89.0114 42.4774 88.2626 42.9047 87.9842 43.6679C87.7058 44.4407 87.9554 45.2327 88.8386 45.5783ZM136.815 55.3369L137.833 55.9225C137.127 56.2345 136.427 56.5561 135.726 56.8825C136.124 56.3929 136.489 55.8793 136.815 55.3369ZM137.051 54.9193C137.531 54.0504 137.915 53.124 138.193 52.1496L143.588 53.58C141.832 54.2328 140.094 54.9337 138.375 55.6777L137.051 54.9193ZM138.318 51.6888C138.548 50.748 138.678 49.764 138.697 48.7559H145.34C145.321 50.1912 145.158 51.6168 144.841 52.9992L145.072 53.052C144.841 53.1336 144.611 53.2152 144.38 53.2968L138.318 51.6888ZM138.697 48.2759C138.678 47.2439 138.543 46.2407 138.303 45.2807L144.721 43.5479C145.11 45.0599 145.321 46.6487 145.34 48.2759H138.697ZM138.174 44.8199C137.891 43.8503 137.502 42.9239 137.017 42.055L142.758 38.719C143.531 40.0822 144.145 41.5462 144.582 43.0823L138.174 44.8199ZM136.782 41.6422C136.268 40.7974 135.659 40.015 134.977 39.3046L139.671 34.6101C140.761 35.7237 141.721 36.9622 142.523 38.3062L136.782 41.6422ZM134.636 38.9638C133.911 38.263 133.11 37.6438 132.241 37.1254L135.548 31.3653C136.926 32.1813 138.193 33.1557 139.331 34.2645L134.636 38.9638ZM131.823 36.8854C130.955 36.4053 130.028 36.0213 129.054 35.7429L130.758 29.3204C132.299 29.7476 133.767 30.3572 135.131 31.1253L131.823 36.8854ZM128.593 35.6181C127.652 35.3877 126.668 35.2581 125.66 35.2389V28.5956C127.258 28.6148 128.809 28.8212 130.292 29.1956L128.593 35.6181ZM125.18 35.2389C124.148 35.2581 123.145 35.3925 122.185 35.6325L120.452 29.2148C121.964 28.826 123.553 28.6148 125.18 28.5956V35.2389ZM119.991 29.3492L121.724 35.7621C120.754 36.0453 119.828 36.4342 118.959 36.919L115.623 31.1781C116.991 30.4004 118.45 29.786 119.991 29.3492ZM115.21 31.4133L118.546 37.1542C117.702 37.6678 116.919 38.2774 116.209 38.959L111.514 34.2645C112.628 33.1797 113.866 32.2197 115.21 31.4133ZM111.173 34.6053L115.868 39.2998C115.167 40.0246 114.548 40.8262 114.029 41.695L108.269 38.3878C109.085 37.015 110.065 35.7429 111.173 34.6053ZM108.034 38.8054L113.794 42.1126C113.314 42.9815 112.93 43.9079 112.652 44.8823L106.229 43.1783C106.657 41.6374 107.266 40.1734 108.034 38.8054ZM114.653 56.2777C114.322 56.0617 113.991 55.8409 113.66 55.6297L114.063 55.3945C114.245 55.6969 114.447 55.9897 114.653 56.2777ZM113.209 55.3321C111.994 54.5593 110.765 53.8056 109.527 53.0616L112.671 52.212C112.954 53.1816 113.343 54.108 113.828 54.9769L113.209 55.3321ZM106.1 43.6439L112.522 45.3479C112.292 46.2887 112.162 47.2727 112.143 48.2807H105.505C105.524 46.6823 105.725 45.1271 106.1 43.6439ZM105.5 48.7559H112.143C112.162 49.788 112.297 50.7912 112.537 51.7512L108.946 52.7208C107.847 52.0632 106.738 51.42 105.625 50.7864C105.553 50.1144 105.509 49.4376 105.5 48.7559ZM113.578 48.5159C113.578 41.9878 118.892 36.6742 125.42 36.6742C131.948 36.6742 137.262 41.9878 137.262 48.5159C137.262 55.0441 131.948 60.3577 125.42 60.3577C118.892 60.3577 113.578 55.0441 113.578 48.5159ZM125.42 25.1396C138.611 25.1396 149.339 35.8677 149.339 49.0584C149.339 49.9416 149.286 50.8344 149.19 51.7128C148.076 52.0488 146.968 52.404 145.864 52.7784C146.152 51.3816 146.305 49.956 146.305 48.5159C146.305 37.0005 136.935 27.6308 125.42 27.6308C113.905 27.6308 104.535 37.0005 104.535 48.5159C104.535 49.0824 104.559 49.644 104.602 50.2104C103.58 49.6392 102.548 49.0776 101.516 48.5256C101.804 35.5797 112.412 25.1396 125.42 25.1396Z" fill="url(#paint6_linear_1875_8259)"/>
<path d="M246.079 144.354C245.369 144.354 244.793 144.93 244.793 145.641C244.793 146.351 245.369 146.927 246.079 146.927C246.79 146.927 247.366 146.351 247.366 145.641C247.366 144.93 246.79 144.354 246.079 144.354Z" fill="url(#paint7_linear_1875_8259)"/>
<path d="M251.44 146.682C250.307 146.682 249.386 147.599 249.386 148.737C249.386 149.87 250.303 150.791 251.44 150.791C252.573 150.791 253.495 149.874 253.495 148.737C253.49 147.604 252.573 146.682 251.44 146.682Z" fill="url(#paint8_linear_1875_8259)"/>
<path d="M311.971 101.235C311.971 101.902 312.508 102.44 313.176 102.44C313.843 102.44 314.38 101.902 314.38 101.235C314.38 100.568 313.843 100.03 313.176 100.03C312.513 100.03 311.971 100.568 311.971 101.235Z" fill="url(#paint9_linear_1875_8259)"/>
<path d="M312.811 94.2078C311.942 94.2078 311.236 94.9134 311.236 95.7822C311.236 96.651 311.942 97.3566 312.811 97.3566C313.68 97.3566 314.385 96.651 314.385 95.7822C314.38 94.9134 313.68 94.2078 312.811 94.2078Z" fill="url(#paint10_linear_1875_8259)"/>
<path d="M311.029 87.3054C309.844 87.3054 308.884 88.2654 308.884 89.451C308.884 90.6367 309.844 91.5967 311.029 91.5967C312.215 91.5967 313.175 90.6367 313.175 89.451C313.175 88.2654 312.215 87.3054 311.029 87.3054Z" fill="url(#paint11_linear_1875_8259)"/>
<path d="M18.8589 66.7752C19.4686 66.7752 19.9629 66.2809 19.9629 65.6712C19.9629 65.0614 19.4686 64.5671 18.8589 64.5671C18.2492 64.5671 17.7549 65.0614 17.7549 65.6712C17.7549 66.2809 18.2492 66.7752 18.8589 66.7752Z" fill="url(#paint12_linear_1875_8259)"/>
<path d="M21.9834 62.3353C21.9834 63.0649 22.5738 63.6505 23.2986 63.6505C24.0282 63.6505 24.6138 63.0601 24.6138 62.3353C24.6138 61.6105 24.0234 61.02 23.2986 61.02C22.5738 61.0152 21.9834 61.6057 21.9834 62.3353Z" fill="url(#paint13_linear_1875_8259)"/>
<path d="M27.0713 59.2105C27.0713 60.1082 27.7961 60.833 28.6937 60.833C29.5913 60.833 30.3161 60.1082 30.3161 59.2105C30.3161 58.3129 29.5913 57.5881 28.6937 57.5881C27.7961 57.5881 27.0713 58.3129 27.0713 59.2105Z" fill="url(#paint14_linear_1875_8259)"/>
<path d="M121.215 13.6095C121.745 13.6095 122.175 13.1797 122.175 12.6495C122.175 12.1193 121.745 11.6895 121.215 11.6895C120.685 11.6895 120.255 12.1193 120.255 12.6495C120.255 13.1797 120.685 13.6095 121.215 13.6095Z" fill="#956D49"/>
<path d="M129.63 13.6095C130.16 13.6095 130.59 13.1797 130.59 12.6495C130.59 12.1193 130.16 11.6895 129.63 11.6895C129.1 11.6895 128.67 12.1193 128.67 12.6495C128.67 13.1797 129.1 13.6095 129.63 13.6095Z" fill="#956D49"/>
<path d="M122.239 54.581L122.234 54.5886L121.863 55.0513L122.386 55.3372C122.746 55.5335 123.266 55.7016 123.794 55.8208C124.328 55.9415 124.914 56.0222 125.419 56.0234C126.39 56.0259 127.525 55.8349 128.45 55.3391L128.979 55.0551L128.606 54.5886L128.6 54.581C128.594 54.572 128.582 54.5555 128.566 54.5311C128.533 54.4823 128.482 54.4018 128.419 54.2863C128.293 54.0555 128.116 53.6842 127.933 53.1461C127.581 52.1151 127.206 50.4683 127.124 48.0209C128.266 47.4102 129.045 46.2048 129.045 44.8197C129.045 42.8155 127.424 41.1948 125.42 41.1948C123.416 41.1948 121.795 42.8155 121.795 44.8197C121.795 46.2048 122.573 47.4102 123.716 48.0209C123.633 50.4683 123.258 52.1151 122.907 53.1461C122.724 53.6842 122.547 54.0555 122.42 54.2863C122.357 54.4018 122.307 54.4823 122.274 54.5311C122.258 54.5555 122.246 54.572 122.239 54.581Z" stroke="url(#paint15_linear_1875_8259)"/>
<g opacity="0.5">
<path d="M286.567 113.898H284.455L285.535 112.084L288.113 107.754V97.7219H280.202V99.69H285.065V111.249L282.319 115.866H285.065H291.665H294.41L293.239 113.898H289.313H286.567Z" fill="url(#paint16_linear_1875_8259)"/>
<path d="M288.113 81.5312L287.052 79.7551H285.065H282.319L285.065 84.368V88.5393H288.113V81.5312Z" fill="url(#paint17_linear_1875_8259)"/>
<path d="M269.651 113.898H267.544L268.624 112.084L271.197 107.754V81.5312L270.141 79.7551H268.149H265.403L268.149 84.368V111.248L265.403 115.866H268.149H274.754H277.5L276.328 113.898H272.397H269.651Z" fill="url(#paint18_linear_1875_8259)"/>
<path d="M122.341 113.898H120.234L121.309 112.084L123.887 107.754V101.898L115.977 92.293V98.7347L120.839 104.634V111.248L118.093 115.866H120.839H127.444H130.185L129.014 113.898H125.087H122.341Z" fill="url(#paint19_linear_1875_8259)"/>
<path d="M105.431 113.898H103.319L104.399 112.084L106.972 107.754V81.5312L105.915 79.7551H103.923H101.183L103.923 84.368V111.248L101.183 115.866H103.923H110.528H113.274L112.103 113.898H108.172H105.431Z" fill="url(#paint20_linear_1875_8259)"/>
<path d="M123.887 81.5312L122.831 79.7551H120.839H118.094L118.881 81.0751L123.887 87.152V81.5312Z" fill="url(#paint21_linear_1875_8259)"/>
<path d="M69.9973 113.898L71.0725 112.084L73.7029 107.663L78.1574 81.4784L77.135 79.7551H75.959H72.3973L75.143 84.368H75.1766L70.6021 111.248L67.8564 115.866H79.9479L78.7814 113.898H72.1045H69.9973Z" fill="url(#paint22_linear_1875_8259)"/>
<path d="M86.9072 113.898L87.9872 112.084L90.5024 107.85L89.8256 103.871L83.0719 105.704L82.9375 106.515L86.5424 105.536L87.512 111.248L84.7663 115.866H96.8625L95.6913 113.898H89.0192H86.9072Z" fill="url(#paint23_linear_1875_8259)"/>
<path d="M86.606 84.9392L84.8252 95.4322L84.95 96.1906L88.3629 95.2642L86.606 84.9392Z" fill="url(#paint24_linear_1875_8259)"/>
<path d="M250.831 84.9392L249.045 95.4322L249.175 96.1906L252.587 95.2642L250.831 84.9392Z" fill="url(#paint25_linear_1875_8259)"/>
<path d="M251.134 113.898L252.209 112.084L254.729 107.85L254.052 103.871L247.298 105.704L247.164 106.515L250.764 105.536L251.738 111.248L248.993 115.866H261.084L259.918 113.898H253.241H251.134Z" fill="url(#paint26_linear_1875_8259)"/>
<path d="M234.218 113.898L235.298 112.084L237.929 107.663L242.383 81.4784L241.361 79.7551H240.185H236.623L239.369 84.368H239.397L234.828 111.248L232.082 115.866H244.173L243.002 113.898H236.33H234.218Z" fill="url(#paint27_linear_1875_8259)"/>
<path d="M168.962 94.3571C168.962 89.8306 170.21 85.6642 172.293 82.3569C169.783 84.4978 167.829 87.613 166.778 91.2755C166.946 92.4035 167.042 93.6083 167.042 94.9091C167.042 97.362 166.744 99.4884 166.23 101.351C167.618 109.597 173.392 115.785 180.309 115.785C182.829 115.785 185.196 114.959 187.26 113.519C186.381 113.711 185.479 113.817 184.557 113.817C175.96 113.817 168.962 105.085 168.962 94.3571Z" fill="url(#paint28_linear_1875_8259)"/>
<path d="M189.918 94.3569C189.918 87.7712 187.096 83.1775 184.561 83.1775C183.515 83.1775 182.425 83.9695 181.499 85.3519C184.552 86.4031 186.87 91.4528 186.87 97.5249C186.87 100.501 186.313 103.232 185.387 105.368C187.667 104.514 189.918 100.237 189.918 94.3569Z" fill="url(#paint29_linear_1875_8259)"/>
<path d="M52.2803 126.23C51.5123 125.812 50.3411 125.241 48.7906 124.535C46.6882 123.575 44.4562 123.091 42.1521 123.091H39.7569H37.6016L38.7345 121.257L41.4849 116.817V82.2706L40.3041 80.365H38.4369H36.2144C36.2528 80.4514 36.296 80.5378 36.3392 80.629L36.368 80.6914L36.392 80.7586C36.4256 80.8546 36.6128 81.421 36.5792 82.0978L38.4369 85.0979V120.326L35.5088 125.059H37.904C40.3665 125.059 42.8001 125.587 45.0417 126.609C46.3282 127.195 47.6866 127.838 48.6082 128.342C49.6162 128.889 50.8066 128.99 51.8915 128.62L55.1987 127.492L54.9971 126.868C54.9347 126.868 54.8723 126.878 54.8099 126.878C53.9267 126.873 53.0531 126.647 52.2803 126.23Z" fill="url(#paint30_linear_1875_8259)"/>
<path d="M46.5343 72.0755C55.784 74.1635 59.5137 82.1797 56.4848 88.4102C57.3152 87.8582 58.064 87.1381 58.7265 86.2501C60.6273 83.6917 61.0833 80.5188 59.9841 77.5428C58.6161 73.8515 55.1696 71.1299 50.5231 70.0834C49.0543 69.7522 47.5663 69.5842 46.0974 69.5842C42.7374 69.5842 39.7709 70.4722 37.8125 71.9891C40.4381 71.3891 43.4766 71.3843 46.5343 72.0755Z" fill="url(#paint31_linear_1875_8259)"/>
<path d="M50.9316 99.1235V101.447C53.7541 101.341 56.8261 100.559 59.543 98.8259C57.9398 99.2627 56.2549 99.4931 54.5269 99.4931C53.2789 99.4883 52.0597 99.3635 50.9316 99.1235Z" fill="url(#paint32_linear_1875_8259)"/>
<path d="M26.0429 79.7264C24.8573 77.6864 23.9885 74.2303 26.5757 69.3294C26.6141 69.2526 26.6669 69.1806 26.7053 69.1086C25.3229 70.2223 24.19 71.5375 23.3884 73.0591C18.4252 82.4721 26.7581 86.4561 29.2925 86.5425C31.827 86.6241 31.0062 84.3345 31.0062 84.3345C30.9246 84.1713 30.8622 84.0129 30.7902 83.8545C29.0814 83.0913 27.2045 81.7233 26.0429 79.7264Z" fill="url(#paint33_linear_1875_8259)"/>
<path d="M145.78 113.898H141.499H138.753H136.646L137.726 112.084L140.303 107.749V81.5265L139.247 79.7505H137.255H134.51L137.255 84.3682V111.249L134.51 115.866H137.255H141.537H143.86C145.296 115.866 150.177 115.689 154.454 112.977C151.636 113.788 149.164 113.898 148.108 113.898H145.78Z" fill="url(#paint34_linear_1875_8259)"/>
<path d="M157.407 94.477C157.407 87.0416 152.78 85.0784 149.3 84.656V87.8913C151.94 89.2881 154.359 92.0817 154.359 97.645C154.359 100.203 153.903 102.21 153.183 103.794C155.362 102.397 157.407 99.6995 157.407 94.477Z" fill="url(#paint35_linear_1875_8259)"/>
<path d="M203.281 113.898H201.169L202.249 112.084L204.822 107.754V81.5312L203.766 79.7551H201.774H199.033L201.774 84.368V111.248L199.033 115.866H201.774H208.379H211.125L209.953 113.898H206.022H203.281Z" fill="url(#paint36_linear_1875_8259)"/>
<path d="M225.37 123.882C221.785 121.29 220.489 116.533 219.231 111.935C218.497 109.252 217.805 106.717 216.716 104.792C216.082 103.679 214.945 103.127 213.826 102.863V107.749L216.404 112.084L217.484 113.898H215.905C217.191 118.564 218.367 123.575 221.833 126.081C225.231 128.538 230.055 128.634 232.964 125.898C232.58 125.942 232.186 125.97 231.783 125.97C229.508 125.97 227.233 125.226 225.37 123.882Z" fill="url(#paint37_linear_1875_8259)"/>
<path d="M218.805 91.6018C218.805 92.0578 218.762 92.4802 218.695 92.8738C221.853 91.7602 221.853 89.3746 221.853 88.4338C221.853 84.7329 219.463 84.1089 214.11 84.1089C214.019 84.1089 213.923 84.1089 213.832 84.1089V86.2833C216.746 86.7057 218.805 87.9633 218.805 91.6018Z" fill="url(#paint38_linear_1875_8259)"/>
</g>
<path d="M296.391 80.5471L299.137 75.9294H296.391H289.791H287.045L289.791 80.5471V89.0865H279.48V80.5471L282.226 75.9294H279.48H272.876H270.13L272.876 80.5471V107.428L270.13 112.045H272.876H279.48H282.226L279.48 107.428V95.8642H289.791V107.428L287.045 112.045H289.791H296.391H299.137L296.391 107.428V80.5471Z" fill="url(#paint39_linear_1875_8259)"/>
<path d="M295.961 80.2916L295.891 80.4097V80.5471V107.428V107.565L295.961 107.683L298.258 111.545H296.391H289.791H287.924L290.221 107.683L290.291 107.565V107.428V95.8642V95.3642H289.791H279.48H278.98V95.8642V107.428V107.565L279.051 107.683L281.347 111.545H279.48H272.876H271.009L273.305 107.683L273.376 107.565V107.428V80.5471V80.4097L273.305 80.2916L271.009 76.4294H272.876H279.48H281.347L279.051 80.2916L278.98 80.4097V80.5471V89.0865V89.5865H279.48H289.791H290.291V89.0865V80.5471V80.4097L290.221 80.2916L287.924 76.4294H289.791H296.391H298.258L295.961 80.2916Z" stroke="white" stroke-opacity="0.25" style="mix-blend-mode:overlay"/>
<path d="M134.912 75.9294H132.171H125.566H122.821L125.566 80.5471V89.8401L115.256 77.3263L114.104 75.9294H108.651H105.91L108.651 80.5471V107.428L105.91 112.045H108.651H115.256H118.002L115.256 107.428V88.2944L125.566 100.808V107.428L122.821 112.045H125.566H132.171H134.912L132.171 107.428V80.5471L134.912 75.9294Z" fill="url(#paint40_linear_1875_8259)"/>
<path d="M134.034 111.545H132.171H125.566H123.7L125.996 107.683L126.066 107.565V107.428V100.808V100.629L125.952 100.49L115.642 87.9765L114.756 86.9013V88.2944V107.428V107.565L114.826 107.683L117.123 111.545H115.256H108.651H106.788L109.081 107.683L109.151 107.565V107.428V80.5471V80.4099L109.081 80.2919L106.788 76.4294H108.651H113.868L114.87 77.6442L114.87 77.6444L125.181 90.158L126.066 91.2332V89.8401V80.5471V80.4097L125.996 80.2916L123.7 76.4294H125.566H132.171H134.034L131.741 80.2919L131.671 80.4099V80.5471V107.428V107.565L131.741 107.683L134.034 111.545Z" stroke="white" stroke-opacity="0.25" style="mix-blend-mode:overlay"/>
<path d="M93.4874 75.9294H91.7017H87.2905H86.8824H80.6855H77.1239L79.8695 80.5471H79.9031L75.3286 107.428L72.583 112.045H84.6744L81.9288 107.428L82.4952 104.092L91.2649 101.711L92.2393 107.428L89.4937 112.045H101.585L98.8395 107.428L93.4874 75.9294ZM83.6616 97.261L86.5032 80.5471H87.6649L90.2041 95.485L83.6616 97.261Z" fill="url(#paint41_linear_1875_8259)"/>
<path d="M100.706 111.545H90.3727L92.6691 107.683L92.7632 107.525L92.7322 107.344L91.7578 101.627L91.6653 101.084L91.1339 101.228L82.3642 103.609L82.0557 103.693L82.0022 104.008L81.4358 107.344L81.405 107.525L81.499 107.683L83.7954 111.545H73.462L75.7584 107.683L75.8059 107.603L75.8216 107.511L80.396 80.631L80.4954 80.0471H80.1539L78.0029 76.4294H80.6855H86.8824H87.2905H91.7017H93.0651L98.3465 107.511L98.3621 107.603L98.4097 107.683L100.706 111.545ZM83.1687 97.1772L83.0375 97.9485L83.7926 97.7435L90.3351 95.9675L90.7731 95.8486L90.697 95.4012L88.1578 80.4633L88.087 80.0471H87.6649H86.5032H86.0811L86.0103 80.4633L83.1687 97.1772Z" stroke="white" stroke-opacity="0.25" style="mix-blend-mode:overlay"/>
<path d="M263.069 107.428L257.712 75.9294H255.926H251.515H251.107H244.91H241.348L244.094 80.5471H244.128L239.553 107.428L236.808 112.045H248.899L246.153 107.428L246.72 104.092L255.49 101.711L256.464 107.428L253.718 112.045H265.81L263.069 107.428ZM247.886 97.261L250.728 80.5471H251.889L254.429 95.485L247.886 97.261Z" fill="url(#paint42_linear_1875_8259)"/>
<path d="M262.576 107.511L262.591 107.603L262.639 107.683L264.932 111.545H254.597L256.894 107.683L256.988 107.525L256.957 107.344L255.982 101.627L255.89 101.084L255.359 101.228L246.589 103.609L246.28 103.693L246.227 104.008L245.66 107.344L245.63 107.525L245.724 107.683L248.02 111.545H237.687L239.983 107.683L240.031 107.603L240.046 107.511L244.621 80.631L244.72 80.0471H244.379L242.227 76.4294H244.91H251.107H251.515H255.926H257.29L262.576 107.511ZM247.393 97.1772L247.262 97.9485L248.017 97.7435L254.56 95.9675L254.998 95.8486L254.922 95.4012L252.382 80.4633L252.312 80.0471H251.889H250.728H250.306L250.235 80.4633L247.393 97.1772Z" stroke="white" stroke-opacity="0.25" style="mix-blend-mode:overlay"/>
<path d="M185.039 75.4399C177.085 75.4399 170.639 83.6145 170.639 93.6994C170.639 103.784 177.085 111.959 185.039 111.959C192.993 111.959 199.439 103.784 199.439 93.6994C199.439 83.6145 192.993 75.4399 185.039 75.4399ZM185.039 106.079C181.42 106.079 178.482 100.535 178.482 93.6994C178.482 86.8641 181.42 81.32 185.039 81.32C188.658 81.32 191.596 86.8641 191.596 93.6994C191.596 100.535 188.658 106.079 185.039 106.079Z" fill="url(#paint43_linear_1875_8259)"/>
<path d="M171.139 93.6994C171.139 83.7735 177.465 75.9399 185.039 75.9399C192.612 75.9399 198.939 83.7735 198.939 93.6994C198.939 103.625 192.612 111.459 185.039 111.459C177.465 111.459 171.139 103.625 171.139 93.6994ZM177.982 93.6994C177.982 97.1821 178.729 100.361 179.961 102.686C181.182 104.99 182.953 106.579 185.039 106.579C187.125 106.579 188.896 104.99 190.116 102.686C191.349 100.361 192.096 97.1821 192.096 93.6994C192.096 90.2168 191.349 87.0383 190.116 84.7124C188.896 82.409 187.125 80.82 185.039 80.82C182.953 80.82 181.182 82.409 179.961 84.7124C178.729 87.0383 177.982 90.2168 177.982 93.6994Z" stroke="white" stroke-opacity="0.25" style="mix-blend-mode:overlay"/>
<path d="M60.4715 64.5101C48.9513 58.2172 32.8374 60.2813 28.1189 69.2286C23.1556 78.6416 31.4886 82.6256 34.023 82.712C36.5574 82.7936 35.7366 80.504 35.7366 80.504C31.1622 71.2734 41.1271 65.9598 51.2601 68.2494C61.3931 70.539 64.9067 79.9328 60.1642 86.3073C57.073 90.4642 52.8249 90.5794 50.2089 90.1378V81.272L53.1369 76.5391H50.2089H43.1576H40.2295L43.1576 81.272V116.5L40.2295 121.233H42.6248C45.0872 121.233 47.5208 121.761 49.7625 122.783C51.0489 123.369 52.4073 124.012 53.3289 124.516C54.337 125.063 55.5274 125.164 56.6122 124.794L59.9194 123.666L59.4298 122.135C57.8698 122.553 56.1994 122.135 55.0233 121.026L50.2089 116.505V96.8915C54.9274 98.5091 62.9195 97.7507 67.8444 91.861C74.5453 83.8544 71.9916 70.803 60.4715 64.5101Z" fill="url(#paint44_linear_1875_8259)"/>
<path d="M49.7089 90.5604V90.1378V81.272V81.1298L49.7837 81.0089L52.2396 77.0391H50.2089H43.1576H41.1268L43.5828 81.0089L43.6576 81.1298V81.272V116.5V116.642L43.5828 116.763L41.1268 120.733H42.6248C45.1586 120.733 47.6629 121.276 49.9696 122.328C49.9697 122.328 49.9699 122.328 49.97 122.328L49.7625 122.783C51.0489 123.369 52.4073 124.012 53.3289 124.516C54.337 125.063 55.5274 125.164 56.6122 124.794L49.7089 90.5604ZM49.7089 90.5604L50.1257 90.6308C52.8337 91.0879 57.315 90.9765 60.5654 86.6058C63.0492 83.2672 63.3703 79.1312 61.746 75.5405C60.1218 71.9498 56.5712 68.9369 51.3703 67.7617C46.2063 66.5948 41.0293 67.3497 37.6993 69.6449C36.0266 70.7979 34.8075 72.3505 34.3229 74.2495C33.8402 76.1409 34.1015 78.3157 35.2728 80.6939C35.2762 80.7048 35.2805 80.7194 35.2855 80.7371C35.2993 80.7865 35.3175 80.8592 35.3328 80.9467C35.3644 81.1273 35.3791 81.3434 35.3398 81.5413C35.3022 81.7305 35.2203 81.8848 35.0659 81.997C34.9049 82.1141 34.6031 82.2303 34.04 82.2123C33.5012 82.1939 32.5773 81.9581 31.5578 81.4457C30.5471 80.9378 29.4835 80.1783 28.6469 79.1519C27.8138 78.1298 27.2044 76.8421 27.0898 75.2583C26.9751 73.6719 27.3542 71.7509 28.5612 69.4619C30.8166 65.185 35.8417 62.4852 41.8138 61.6495C47.7728 60.8155 54.572 61.8573 60.2318 64.9489C71.526 71.1184 73.9239 83.8179 67.4609 91.5401L67.4608 91.5402C62.6937 97.2413 54.9332 97.9825 50.371 96.4185L49.7089 96.1915V96.8915V116.505V116.721L49.8666 116.869L54.6803 121.39C54.6805 121.39 54.6806 121.39 54.6807 121.39C55.8666 122.508 57.5052 122.991 59.092 122.72L59.2938 123.351L56.4509 124.321M49.7089 90.5604L56.4509 124.321M56.4509 124.321C56.4509 124.321 56.4508 124.321 56.4508 124.321C55.4985 124.646 54.4535 124.557 53.5684 124.077L56.4509 124.321Z" stroke="white" stroke-opacity="0.25" style="mix-blend-mode:overlay"/>
<path d="M148.016 75.9294C147.905 75.9294 147.785 75.9294 147.68 75.9294H147.382H146.422H141.977H139.231L141.977 80.5471V107.428L139.231 112.045H141.977H146.259H148.582C151.289 112.045 166.318 111.412 166.318 94.2562C166.318 76.9903 149.595 75.9294 148.016 75.9294ZM148.582 105.834V82.7119C151.596 82.8079 159.089 84.032 159.089 93.8241C159.085 106.141 148.582 105.834 148.582 105.834Z" fill="url(#paint45_linear_1875_8259)"/>
<path d="M142.477 80.5471V80.4097L142.407 80.2916L140.11 76.4294H141.977H146.422H147.382H147.68H147.68H147.681H147.681H147.682H147.683H147.683H147.684H147.685H147.685H147.686H147.686H147.687H147.688H147.688H147.689H147.69H147.69H147.691H147.691H147.692H147.693H147.693H147.694H147.695H147.695H147.696H147.696H147.697H147.698H147.698H147.699H147.7H147.7H147.701H147.701H147.702H147.703H147.703H147.704H147.705H147.705H147.706H147.707H147.707H147.708H147.708H147.709H147.71H147.71H147.711H147.712H147.712H147.713H147.713H147.714H147.715H147.715H147.716H147.717H147.717H147.718H147.719H147.719H147.72H147.72H147.721H147.722H147.722H147.723H147.724H147.724H147.725H147.726H147.726H147.727H147.728H147.728H147.729H147.729H147.73H147.731H147.731H147.732H147.733H147.733H147.734H147.735H147.735H147.736H147.736H147.737H147.738H147.738H147.739H147.74H147.74H147.741H147.742H147.742H147.743H147.744H147.744H147.745H147.746H147.746H147.747H147.747H147.748H147.749H147.749H147.75H147.751H147.751H147.752H147.753H147.753H147.754H147.755H147.755H147.756H147.757H147.757H147.758H147.759H147.759H147.76H147.76H147.761H147.762H147.762H147.763H147.764H147.764H147.765H147.766H147.766H147.767H147.768H147.768H147.769H147.77H147.77H147.771H147.772H147.772H147.773H147.774H147.774H147.775H147.776H147.776H147.777H147.777H147.778H147.779H147.779H147.78H147.781H147.781H147.782H147.783H147.783H147.784H147.785H147.785H147.786H147.787H147.787H147.788H147.789H147.789H147.79H147.791H147.791H147.792H147.793H147.793H147.794H147.795H147.795H147.796H147.797H147.797H147.798H147.799H147.799H147.8H147.801H147.801H147.802H147.803H147.803H147.804H147.805H147.805H147.806H147.807H147.807H147.808H147.809H147.809H147.81H147.811H147.811H147.812H147.813H147.813H147.814H147.814H147.815H147.816H147.816H147.817H147.818H147.818H147.819H147.82H147.82H147.821H147.822H147.822H147.823H147.824H147.824H147.825H147.826H147.826H147.827H147.828H147.828H147.829H147.83H147.83H147.831H147.832H147.832H147.833H147.834H147.834H147.835H147.836H147.836H147.837H147.838H147.838H147.839H147.84H147.84H147.841H147.842H147.842H147.843H147.844H147.844H147.845H147.846H147.846H147.847H147.848H147.848H147.849H147.85H147.85H147.851H147.852H147.852H147.853H147.854H147.854H147.855H147.856H147.857H147.857H147.858H147.859H147.859H147.86H147.861H147.861H147.862H147.863H147.863H147.864H147.865H147.865H147.866H147.867H147.867H147.868H147.869H147.869H147.87H147.871H147.871H147.872H147.873H147.873H147.874H147.875H147.875H147.876H147.877H147.877H147.878H147.879H147.879H147.88H147.881H147.881H147.882H147.883H147.883H147.884H147.885H147.885H147.886H147.887H147.887H147.888H147.889H147.889H147.89H147.891H147.891H147.892H147.893H147.893H147.894H147.895H147.895H147.896H147.897H147.897H147.898H147.899H147.899H147.9H147.901H147.901H147.902H147.903H147.903H147.904H147.905H147.905H147.906H147.907H147.907H147.908H147.909H147.909H147.91H147.911H147.911H147.912H147.913H147.913H147.914H147.915H147.915H147.916H147.917H147.917H147.918H147.919H147.919H147.92H147.921H147.921H147.922H147.923H147.923H147.924H147.925H147.925H147.926H147.927H147.927H147.928H147.929H147.929H147.93H147.931H147.931H147.932H147.933H147.933H147.934H147.935H147.935H147.936H147.937H147.937H147.938H147.939H147.939H147.94H147.941H147.941H147.942H147.943H147.943H147.944H147.945H147.945H147.946H147.947H147.947H147.948H147.949H147.949H147.95H147.951H147.951H147.952H147.953H147.953H147.954H147.955H147.955H147.956H147.957H147.957H147.958H147.959H147.959H147.96H147.961H147.961H147.962H147.963H147.963H147.964H147.965H147.965H147.966H147.967H147.967H147.968H147.969H147.969H147.97H147.971H147.971H147.972H147.972H147.973H147.974H147.974H147.975H147.976H147.976H147.977H147.978H147.978H147.979H147.98H147.98H147.981H147.982H147.982H147.983H147.984H147.984H147.985H147.986H147.986H147.987H147.988H147.988H147.989H147.99H147.99H147.991H147.992H147.992H147.993H147.994H147.994H147.995H147.995H147.996H147.997H147.997H147.998H147.999H147.999H148H148.001H148.001H148.002H148.003H148.003H148.004H148.005H148.005H148.006H148.007H148.007H148.008H148.008H148.009H148.01H148.01H148.011H148.012H148.012H148.013H148.014H148.014H148.015H148.016C148.758 76.4294 153.24 76.688 157.517 79.0556C161.757 81.4023 165.818 85.8274 165.818 94.2562C165.818 98.4701 164.896 101.636 163.497 104.02C162.097 106.404 160.204 108.033 158.22 109.148C154.238 111.387 149.909 111.545 148.582 111.545H146.259H141.977H140.11L142.407 107.683L142.477 107.565V107.428V80.5471ZM148.082 105.834V106.32L148.567 106.334L148.582 105.834C148.567 106.334 148.568 106.334 148.568 106.334L148.569 106.334L148.572 106.334L148.58 106.334L148.607 106.334C148.63 106.335 148.663 106.335 148.705 106.334C148.789 106.334 148.909 106.331 149.061 106.322C149.363 106.306 149.792 106.268 150.305 106.183C151.329 106.013 152.701 105.652 154.077 104.885C155.457 104.116 156.842 102.94 157.878 101.147C158.915 99.3557 159.588 96.9761 159.589 93.8243V93.8241C159.589 88.7783 157.647 85.8631 155.249 84.2195C152.884 82.5989 150.145 82.2615 148.598 82.2122L148.082 82.1958V82.7119V105.834Z" stroke="white" stroke-opacity="0.25" style="mix-blend-mode:overlay"/>
<path d="M231.23 114.657C229.055 109.938 227.629 101.605 221.917 98.4083C225.877 97.5779 230.649 95.0099 230.649 87.3297C230.649 76.7888 219.465 75.9343 217.444 75.9343C216.916 75.9343 216.373 75.9343 215.85 75.9343H213.104H206.5H203.754L206.5 80.552V107.432L203.754 112.05H206.5H213.104H215.85L213.104 107.432V100.818C214.813 100.952 217.093 101.533 218.241 103.549C221.303 108.94 221.317 118.473 226.554 122.26C231.417 125.774 239.198 124.468 240.119 116.927C240.115 116.927 233.865 120.378 231.23 114.657ZM214.991 94.0066C214.362 94.0066 213.709 94.0066 213.104 94.0066V82.256C218.553 82.2176 223.53 82.1168 223.53 87.7761C223.53 93.8242 217.074 94.0066 214.991 94.0066Z" fill="url(#paint46_linear_1875_8259)"/>
<path d="M220.509 98.1928L221.815 97.9189C223.74 97.5153 225.818 96.6975 227.413 95.086C228.995 93.4864 230.149 91.0569 230.149 87.3297C230.149 84.7883 229.476 82.8593 228.458 81.3865C227.437 79.9093 226.049 78.8639 224.58 78.126C221.629 76.6437 218.415 76.4343 217.444 76.4343H217.441H217.438H217.434H217.431H217.428H217.425H217.422H217.419H217.416H217.413H217.41H217.407H217.403H217.4H217.397H217.394H217.391H217.388H217.385H217.382H217.379H217.376H217.373H217.369H217.366H217.363H217.36H217.357H217.354H217.351H217.348H217.345H217.341H217.338H217.335H217.332H217.329H217.326H217.323H217.32H217.317H217.314H217.31H217.307H217.304H217.301H217.298H217.295H217.292H217.289H217.286H217.282H217.279H217.276H217.273H217.27H217.267H217.264H217.261H217.258H217.254H217.251H217.248H217.245H217.242H217.239H217.236H217.233H217.23H217.226H217.223H217.22H217.217H217.214H217.211H217.208H217.205H217.202H217.198H217.195H217.192H217.189H217.186H217.183H217.18H217.177H217.174H217.17H217.167H217.164H217.161H217.158H217.155H217.152H217.149H217.145H217.142H217.139H217.136H217.133H217.13H217.127H217.124H217.12H217.117H217.114H217.111H217.108H217.105H217.102H217.099H217.096H217.092H217.089H217.086H217.083H217.08H217.077H217.074H217.071H217.067H217.064H217.061H217.058H217.055H217.052H217.049H217.046H217.042H217.039H217.036H217.033H217.03H217.027H217.024H217.021H217.017H217.014H217.011H217.008H217.005H217.002H216.999H216.996H216.992H216.989H216.986H216.983H216.98H216.977H216.974H216.971H216.967H216.964H216.961H216.958H216.955H216.952H216.949H216.946H216.942H216.939H216.936H216.933H216.93H216.927H216.924H216.921H216.917H216.914H216.911H216.908H216.905H216.902H216.899H216.895H216.892H216.889H216.886H216.883H216.88H216.877H216.874H216.87H216.867H216.864H216.861H216.858H216.855H216.852H216.849H216.845H216.842H216.839H216.836H216.833H216.83H216.827H216.824H216.82H216.817H216.814H216.811H216.808H216.805H216.802H216.798H216.795H216.792H216.789H216.786H216.783H216.78H216.777H216.773H216.77H216.767H216.764H216.761H216.758H216.755H216.752H216.748H216.745H216.742H216.739H216.736H216.733H216.73H216.726H216.723H216.72H216.717H216.714H216.711H216.708H216.705H216.701H216.698H216.695H216.692H216.689H216.686H216.683H216.68H216.676H216.673H216.67H216.667H216.664H216.661H216.658H216.655H216.651H216.648H216.645H216.642H216.639H216.636H216.633H216.629H216.626H216.623H216.62H216.617H216.614H216.611H216.608H216.604H216.601H216.598H216.595H216.592H216.589H216.586H216.583H216.579H216.576H216.573H216.57H216.567H216.564H216.561H216.558H216.554H216.551H216.548H216.545H216.542H216.539H216.536H216.533H216.529H216.526H216.523H216.52H216.517H216.514H216.511H216.508H216.504H216.501H216.498H216.495H216.492H216.489H216.486H216.483H216.479H216.476H216.473H216.47H216.467H216.464H216.461H216.458H216.454H216.451H216.448H216.445H216.442H216.439H216.436H216.433H216.429H216.426H216.423H216.42H216.417H216.414H216.411H216.408H216.404H216.401H216.398H216.395H216.392H216.389H216.386H216.383H216.379H216.376H216.373H216.37H216.367H216.364H216.361H216.358H216.355H216.351H216.348H216.345H216.342H216.339H216.336H216.333H216.33H216.327H216.323H216.32H216.317H216.314H216.311H216.308H216.305H216.302H216.298H216.295H216.292H216.289H216.286H216.283H216.28H216.277H216.274H216.27H216.267H216.264H216.261H216.258H216.255H216.252H216.249H216.246H216.242H216.239H216.236H216.233H216.23H216.227H216.224H216.221H216.218H216.214H216.211H216.208H216.205H216.202H216.199H216.196H216.193H216.19H216.187H216.183H216.18H216.177H216.174H216.171H216.168H216.165H216.162H216.159H216.156H216.152H216.149H216.146H216.143H216.14H216.137H216.134H216.131H216.128H216.124H216.121H216.118H216.115H216.112H216.109H216.106H216.103H216.1H216.097H216.094H216.09H216.087H216.084H216.081H216.078H216.075H216.072H216.069H216.066H216.063H216.059H216.056H216.053H216.05H216.047H216.044H216.041H216.038H216.035H216.032H216.029H216.025H216.022H216.019H216.016H216.013H216.01H216.007H216.004H216.001H215.998H215.995H215.992H215.988H215.985H215.982H215.979H215.976H215.973H215.97H215.967H215.964H215.961H215.958H215.955H215.951H215.948H215.945H215.942H215.939H215.936H215.933H215.93H215.927H215.924H215.921H215.918H215.915H215.911H215.908H215.905H215.902H215.899H215.896H215.893H215.89H215.887H215.884H215.881H215.878H215.875H215.872H215.868H215.865H215.862H215.859H215.856H215.853H215.85H213.104H206.5H204.633L206.929 80.2964L207 80.4146V80.552V107.432V107.57L206.929 107.688L204.633 111.55H206.5H213.104H214.971L212.675 107.688L212.604 107.57V107.432V100.818V100.277L213.144 100.319C214.893 100.457 217.399 101.06 218.675 103.302L218.675 103.302C219.469 104.7 220.057 106.349 220.574 108.07C220.833 108.933 221.076 109.82 221.318 110.708L221.353 110.833C221.584 111.681 221.815 112.529 222.062 113.364C223.104 116.899 224.381 120.071 226.847 121.855C229.159 123.525 232.158 124.042 234.666 123.261C236.928 122.558 238.826 120.792 239.473 117.769C239.409 117.794 239.343 117.82 239.274 117.845C238.619 118.09 237.707 118.357 236.7 118.436C235.692 118.515 234.566 118.405 233.505 117.872C232.437 117.335 231.476 116.388 230.775 114.866L220.509 98.1928ZM220.509 98.1928L221.673 98.8446M220.509 98.1928L221.673 98.8446M221.673 98.8446C224.383 100.361 226.112 103.118 227.442 106.162M221.673 98.8446L227.442 106.162M227.442 106.162C228.105 107.679 228.659 109.246 229.189 110.743M227.442 106.162L229.189 110.743M229.189 110.743L229.199 110.77M229.189 110.743L229.199 110.77M229.199 110.77C229.722 112.249 230.224 113.668 230.775 114.866L229.199 110.77ZM212.604 94.0066V94.5066H213.104H213.108H213.112H213.115H213.119H213.122H213.126H213.129H213.133H213.136H213.14H213.144H213.147H213.151H213.154H213.158H213.161H213.165H213.168H213.172H213.176H213.179H213.183H213.186H213.19H213.193H213.197H213.201H213.204H213.208H213.211H213.215H213.218H213.222H213.226H213.229H213.233H213.236H213.24H213.243H213.247H213.251H213.254H213.258H213.261H213.265H213.269H213.272H213.276H213.279H213.283H213.287H213.29H213.294H213.297H213.301H213.305H213.308H213.312H213.315H213.319H213.323H213.326H213.33H213.333H213.337H213.341H213.344H213.348H213.351H213.355H213.359H213.362H213.366H213.369H213.373H213.377H213.38H213.384H213.388H213.391H213.395H213.398H213.402H213.406H213.409H213.413H213.417H213.42H213.424H213.427H213.431H213.435H213.438H213.442H213.446H213.449H213.453H213.457H213.46H213.464H213.467H213.471H213.475H213.478H213.482H213.486H213.489H213.493H213.497H213.5H213.504H213.508H213.511H213.515H213.518H213.522H213.526H213.529H213.533H213.537H213.54H213.544H213.548H213.551H213.555H213.559H213.562H213.566H213.57H213.573H213.577H213.581H213.584H213.588H213.592H213.595H213.599H213.603H213.606H213.61H213.614H213.617H213.621H213.625H213.628H213.632H213.636H213.639H213.643H213.647H213.65H213.654H213.658H213.661H213.665H213.669H213.672H213.676H213.68H213.683H213.687H213.691H213.694H213.698H213.702H213.705H213.709H213.713H213.716H213.72H213.724H213.728H213.731H213.735H213.739H213.742H213.746H213.75H213.753H213.757H213.761H213.764H213.768H213.772H213.775H213.779H213.783H213.787H213.79H213.794H213.798H213.801H213.805H213.809H213.812H213.816H213.82H213.824H213.827H213.831H213.835H213.838H213.842H213.846H213.849H213.853H213.857H213.861H213.864H213.868H213.872H213.875H213.879H213.883H213.886H213.89H213.894H213.898H213.901H213.905H213.909H213.912H213.916H213.92H213.924H213.927H213.931H213.935H213.938H213.942H213.946H213.949H213.953H213.957H213.961H213.964H213.968H213.972H213.975H213.979H213.983H213.987H213.99H213.994H213.998H214.002H214.005H214.009H214.013H214.016H214.02H214.024H214.028H214.031H214.035H214.039H214.042H214.046H214.05H214.054H214.057H214.061H214.065H214.068H214.072H214.076H214.08H214.083H214.087H214.091H214.095H214.098H214.102H214.106H214.109H214.113H214.117H214.121H214.124H214.128H214.132H214.135H214.139H214.143H214.147H214.15H214.154H214.158H214.162H214.165H214.169H214.173H214.176H214.18H214.184H214.188H214.191H214.195H214.199H214.203H214.206H214.21H214.214H214.217H214.221H214.225H214.229H214.232H214.236H214.24H214.244H214.247H214.251H214.255H214.259H214.262H214.266H214.27H214.273H214.277H214.281H214.285H214.288H214.292H214.296H214.3H214.303H214.307H214.311H214.314H214.318H214.322H214.326H214.329H214.333H214.337H214.341H214.344H214.348H214.352H214.356H214.359H214.363H214.367H214.37H214.374H214.378H214.382H214.385H214.389H214.393H214.397H214.4H214.404H214.408H214.411H214.415H214.419H214.423H214.426H214.43H214.434H214.438H214.441H214.445H214.449H214.453H214.456H214.46H214.464H214.467H214.471H214.475H214.479H214.482H214.486H214.49H214.494H214.497H214.501H214.505H214.508H214.512H214.516H214.52H214.523H214.527H214.531H214.535H214.538H214.542H214.546H214.549H214.553H214.557H214.561H214.564H214.568H214.572H214.576H214.579H214.583H214.587H214.59H214.594H214.598H214.602H214.605H214.609H214.613H214.617H214.62H214.624H214.628H214.631H214.635H214.639H214.643H214.646H214.65H214.654H214.657H214.661H214.665H214.669H214.672H214.676H214.68H214.684H214.687H214.691H214.695H214.698H214.702H214.706H214.71H214.713H214.717H214.721H214.724H214.728H214.732H214.736H214.739H214.743H214.747H214.75H214.754H214.758H214.762H214.765H214.769H214.773H214.776H214.78H214.784H214.788H214.791H214.795H214.799H214.802H214.806H214.81H214.813H214.817H214.821H214.825H214.828H214.832H214.836H214.839H214.843H214.847H214.851H214.854H214.858H214.862H214.865H214.869H214.873H214.876H214.88H214.884H214.888H214.891H214.895H214.899H214.902H214.906H214.91H214.913H214.917H214.921H214.925H214.928H214.932H214.936H214.939H214.943H214.947H214.95H214.954H214.958H214.961H214.965H214.969H214.972H214.976H214.98H214.984H214.987H214.991C216.037 94.5066 218.262 94.4643 220.238 93.6191C221.234 93.1933 222.188 92.5552 222.892 91.5973C223.6 90.6346 224.03 89.3825 224.03 87.7761C224.03 86.2883 223.703 85.1248 223.077 84.2334C222.45 83.3407 221.559 82.7712 220.526 82.4078C218.56 81.7162 215.952 81.7352 213.344 81.7543C213.263 81.7549 213.182 81.7555 213.101 81.7561L212.604 81.7596V82.256V94.0066Z" stroke="white" stroke-opacity="0.25" style="mix-blend-mode:overlay"/>
<defs>
<linearGradient id="paint0_linear_1875_8259" x1="110.5" y1="41" x2="191.5" y2="201.5" gradientUnits="userSpaceOnUse">
<stop stop-color="#956D49"/>
<stop offset="0.283553" stop-color="#956D49" stop-opacity="0.37"/>
<stop offset="0.505208" stop-color="#956D49" stop-opacity="0.747396"/>
<stop offset="1" stop-color="#956D49" stop-opacity="0.5"/>
</linearGradient>
<linearGradient id="paint1_linear_1875_8259" x1="250" y1="43.5" x2="320" y2="122.5" gradientUnits="userSpaceOnUse">
<stop stop-color="#956D49"/>
<stop offset="1" stop-color="#956D49" stop-opacity="0.5"/>
</linearGradient>
<linearGradient id="paint2_linear_1875_8259" x1="154.358" y1="135.102" x2="169" y2="167.152" gradientUnits="userSpaceOnUse">
<stop stop-color="#956D49"/>
<stop offset="1" stop-color="#956D49" stop-opacity="0.5"/>
</linearGradient>
<linearGradient id="paint3_linear_1875_8259" x1="35.5" y1="8" x2="19" y2="104" gradientUnits="userSpaceOnUse">
<stop stop-color="#956D49"/>
<stop offset="1" stop-color="#956D49" stop-opacity="0.32"/>
</linearGradient>
<linearGradient id="paint4_linear_1875_8259" x1="200.25" y1="63.75" x2="138.5" y2="67.5" gradientUnits="userSpaceOnUse">
<stop stop-color="#956D49"/>
<stop offset="1" stop-color="#956D49" stop-opacity="0.3"/>
</linearGradient>
<linearGradient id="paint5_linear_1875_8259" x1="268.5" y1="50.5" x2="292.75" y2="62" gradientUnits="userSpaceOnUse">
<stop stop-color="#956D49"/>
<stop offset="1" stop-color="#956D49" stop-opacity="0"/>
</linearGradient>
<linearGradient id="paint6_linear_1875_8259" x1="139" y1="9.25" x2="125" y2="67.75" gradientUnits="userSpaceOnUse">
<stop stop-color="#956D49"/>
<stop offset="0.921875" stop-color="#956D49" stop-opacity="0.5"/>
</linearGradient>
<linearGradient id="paint7_linear_1875_8259" x1="246.079" y1="144.354" x2="247.312" y2="147.156" gradientUnits="userSpaceOnUse">
<stop stop-color="#956D49"/>
<stop offset="1" stop-color="#956D49" stop-opacity="0.5"/>
</linearGradient>
<linearGradient id="paint8_linear_1875_8259" x1="249.938" y1="146.781" x2="252.781" y2="150.969" gradientUnits="userSpaceOnUse">
<stop stop-color="#956D49"/>
<stop offset="1" stop-color="#956D49" stop-opacity="0.5"/>
</linearGradient>
<linearGradient id="paint9_linear_1875_8259" x1="313.176" y1="100.03" x2="314.812" y2="102.5" gradientUnits="userSpaceOnUse">
<stop stop-color="#956D49"/>
<stop offset="1" stop-color="#956D49" stop-opacity="0.5"/>
</linearGradient>
<linearGradient id="paint10_linear_1875_8259" x1="312.811" y1="94.2078" x2="314.5" y2="97.375" gradientUnits="userSpaceOnUse">
<stop stop-color="#956D49"/>
<stop offset="1" stop-color="#956D49" stop-opacity="0.5"/>
</linearGradient>
<linearGradient id="paint11_linear_1875_8259" x1="309.438" y1="87.2812" x2="312.125" y2="92.0625" gradientUnits="userSpaceOnUse">
<stop stop-color="#956D49"/>
<stop offset="1" stop-color="#956D49" stop-opacity="0.5"/>
</linearGradient>
<linearGradient id="paint12_linear_1875_8259" x1="18.8589" y1="64.5671" x2="18.8589" y2="66.7752" gradientUnits="userSpaceOnUse">
<stop stop-color="#956D49"/>
<stop offset="1" stop-color="#956D49" stop-opacity="0.3"/>
</linearGradient>
<linearGradient id="paint13_linear_1875_8259" x1="23.2986" y1="61.02" x2="23.2986" y2="63.6505" gradientUnits="userSpaceOnUse">
<stop stop-color="#956D49"/>
<stop offset="1" stop-color="#956D49" stop-opacity="0.3"/>
</linearGradient>
<linearGradient id="paint14_linear_1875_8259" x1="28.6937" y1="57.5881" x2="28.6937" y2="60.833" gradientUnits="userSpaceOnUse">
<stop stop-color="#956D49"/>
<stop offset="1" stop-color="#956D49" stop-opacity="0.3"/>
</linearGradient>
<linearGradient id="paint15_linear_1875_8259" x1="125.42" y1="41.6948" x2="125.42" y2="60.0625" gradientUnits="userSpaceOnUse">
<stop stop-color="#956D49"/>
<stop offset="1" stop-color="#956D49" stop-opacity="0.5"/>
</linearGradient>
<linearGradient id="paint16_linear_1875_8259" x1="287.306" y1="97.7219" x2="287.306" y2="115.866" gradientUnits="userSpaceOnUse">
<stop stop-color="#956D49"/>
<stop offset="1" stop-color="#956D49" stop-opacity="0.59"/>
</linearGradient>
<linearGradient id="paint17_linear_1875_8259" x1="285.216" y1="79.7551" x2="285.216" y2="88.5393" gradientUnits="userSpaceOnUse">
<stop stop-color="#956D49"/>
<stop offset="1" stop-color="#956D49" stop-opacity="0.59"/>
</linearGradient>
<linearGradient id="paint18_linear_1875_8259" x1="271.451" y1="79.7551" x2="271.451" y2="115.866" gradientUnits="userSpaceOnUse">
<stop stop-color="#956D49"/>
<stop offset="1" stop-color="#956D49" stop-opacity="0.59"/>
</linearGradient>
<linearGradient id="paint19_linear_1875_8259" x1="123.081" y1="92.293" x2="123.081" y2="115.866" gradientUnits="userSpaceOnUse">
<stop stop-color="#956D49"/>
<stop offset="1" stop-color="#956D49" stop-opacity="0.59"/>
</linearGradient>
<linearGradient id="paint20_linear_1875_8259" x1="107.228" y1="79.7551" x2="107.228" y2="115.866" gradientUnits="userSpaceOnUse">
<stop stop-color="#956D49"/>
<stop offset="1" stop-color="#956D49" stop-opacity="0.59"/>
</linearGradient>
<linearGradient id="paint21_linear_1875_8259" x1="120.991" y1="79.7551" x2="120.991" y2="87.152" gradientUnits="userSpaceOnUse">
<stop stop-color="#956D49"/>
<stop offset="1" stop-color="#956D49" stop-opacity="0.59"/>
</linearGradient>
<linearGradient id="paint22_linear_1875_8259" x1="73.9021" y1="79.7551" x2="73.9021" y2="115.866" gradientUnits="userSpaceOnUse">
<stop stop-color="#956D49"/>
<stop offset="1" stop-color="#956D49" stop-opacity="0.59"/>
</linearGradient>
<linearGradient id="paint23_linear_1875_8259" x1="89.9" y1="103.871" x2="89.9" y2="115.866" gradientUnits="userSpaceOnUse">
<stop stop-color="#956D49"/>
<stop offset="1" stop-color="#956D49" stop-opacity="0.59"/>
</linearGradient>
<linearGradient id="paint24_linear_1875_8259" x1="86.594" y1="84.9392" x2="86.594" y2="96.1906" gradientUnits="userSpaceOnUse">
<stop stop-color="#956D49"/>
<stop offset="1" stop-color="#956D49" stop-opacity="0.59"/>
</linearGradient>
<linearGradient id="paint25_linear_1875_8259" x1="250.816" y1="84.9392" x2="250.816" y2="96.1906" gradientUnits="userSpaceOnUse">
<stop stop-color="#956D49"/>
<stop offset="1" stop-color="#956D49" stop-opacity="0.59"/>
</linearGradient>
<linearGradient id="paint26_linear_1875_8259" x1="254.124" y1="103.871" x2="254.124" y2="115.866" gradientUnits="userSpaceOnUse">
<stop stop-color="#956D49"/>
<stop offset="1" stop-color="#956D49" stop-opacity="0.59"/>
</linearGradient>
<linearGradient id="paint27_linear_1875_8259" x1="238.128" y1="79.7551" x2="238.128" y2="115.866" gradientUnits="userSpaceOnUse">
<stop stop-color="#956D49"/>
<stop offset="1" stop-color="#956D49" stop-opacity="0.59"/>
</linearGradient>
<linearGradient id="paint28_linear_1875_8259" x1="176.745" y1="82.3569" x2="176.745" y2="115.785" gradientUnits="userSpaceOnUse">
<stop stop-color="#956D49"/>
<stop offset="1" stop-color="#956D49" stop-opacity="0.59"/>
</linearGradient>
<linearGradient id="paint29_linear_1875_8259" x1="185.709" y1="83.1775" x2="185.709" y2="105.368" gradientUnits="userSpaceOnUse">
<stop stop-color="#956D49"/>
<stop offset="1" stop-color="#956D49" stop-opacity="0.59"/>
</linearGradient>
<linearGradient id="paint30_linear_1875_8259" x1="45.3538" y1="80.365" x2="45.3538" y2="128.839" gradientUnits="userSpaceOnUse">
<stop stop-color="#956D49"/>
<stop offset="1" stop-color="#956D49" stop-opacity="0.59"/>
</linearGradient>
<linearGradient id="paint31_linear_1875_8259" x1="49.1921" y1="69.5842" x2="49.1921" y2="88.4102" gradientUnits="userSpaceOnUse">
<stop stop-color="#956D49"/>
<stop offset="1" stop-color="#956D49" stop-opacity="0.59"/>
</linearGradient>
<linearGradient id="paint32_linear_1875_8259" x1="55.2373" y1="98.8259" x2="55.2373" y2="101.447" gradientUnits="userSpaceOnUse">
<stop stop-color="#956D49"/>
<stop offset="1" stop-color="#956D49" stop-opacity="0.59"/>
</linearGradient>
<linearGradient id="paint33_linear_1875_8259" x1="26.4864" y1="69.1086" x2="26.4864" y2="86.5447" gradientUnits="userSpaceOnUse">
<stop stop-color="#956D49"/>
<stop offset="1" stop-color="#956D49" stop-opacity="0.59"/>
</linearGradient>
<linearGradient id="paint34_linear_1875_8259" x1="144.482" y1="79.7505" x2="144.482" y2="115.866" gradientUnits="userSpaceOnUse">
<stop stop-color="#956D49"/>
<stop offset="1" stop-color="#956D49" stop-opacity="0.59"/>
</linearGradient>
<linearGradient id="paint35_linear_1875_8259" x1="153.353" y1="84.656" x2="153.353" y2="103.794" gradientUnits="userSpaceOnUse">
<stop stop-color="#956D49"/>
<stop offset="1" stop-color="#956D49" stop-opacity="0.59"/>
</linearGradient>
<linearGradient id="paint36_linear_1875_8259" x1="205.079" y1="79.7551" x2="205.079" y2="115.866" gradientUnits="userSpaceOnUse">
<stop stop-color="#956D49"/>
<stop offset="1" stop-color="#956D49" stop-opacity="0.59"/>
</linearGradient>
<linearGradient id="paint37_linear_1875_8259" x1="223.395" y1="102.863" x2="223.395" y2="127.937" gradientUnits="userSpaceOnUse">
<stop stop-color="#956D49"/>
<stop offset="1" stop-color="#956D49" stop-opacity="0.59"/>
</linearGradient>
<linearGradient id="paint38_linear_1875_8259" x1="217.842" y1="84.1089" x2="217.842" y2="92.8738" gradientUnits="userSpaceOnUse">
<stop stop-color="#956D49"/>
<stop offset="1" stop-color="#956D49" stop-opacity="0.59"/>
</linearGradient>
<linearGradient id="paint39_linear_1875_8259" x1="283.189" y1="70.1296" x2="307.245" y2="105.316" gradientUnits="userSpaceOnUse">
<stop stop-color="#CFBB85"/>
<stop offset="1" stop-color="#BC9068"/>
</linearGradient>
<linearGradient id="paint40_linear_1875_8259" x1="118.967" y1="70.1296" x2="143.025" y2="105.313" gradientUnits="userSpaceOnUse">
<stop stop-color="#CFBB85"/>
<stop offset="1" stop-color="#BC9068"/>
</linearGradient>
<linearGradient id="paint41_linear_1875_8259" x1="85.6402" y1="70.1296" x2="109.698" y2="105.313" gradientUnits="userSpaceOnUse">
<stop stop-color="#CFBB85"/>
<stop offset="1" stop-color="#BC9068"/>
</linearGradient>
<linearGradient id="paint42_linear_1875_8259" x1="249.865" y1="70.1296" x2="273.922" y2="105.313" gradientUnits="userSpaceOnUse">
<stop stop-color="#CFBB85"/>
<stop offset="1" stop-color="#BC9068"/>
</linearGradient>
<linearGradient id="paint43_linear_1875_8259" x1="183.605" y1="69.5754" x2="208.088" y2="104.739" gradientUnits="userSpaceOnUse">
<stop stop-color="#CFBB85"/>
<stop offset="1" stop-color="#BC9068"/>
</linearGradient>
<linearGradient id="paint44_linear_1875_8259" x1="46.797" y1="50.5731" x2="91.3203" y2="107.368" gradientUnits="userSpaceOnUse">
<stop stop-color="#CFBB85"/>
<stop offset="1" stop-color="#BC9068"/>
</linearGradient>
<linearGradient id="paint45_linear_1875_8259" x1="151.426" y1="70.1296" x2="176.037" y2="103.745" gradientUnits="userSpaceOnUse">
<stop stop-color="#CFBB85"/>
<stop offset="1" stop-color="#BC9068"/>
</linearGradient>
<linearGradient id="paint46_linear_1875_8259" x1="220.126" y1="68.1966" x2="252.897" y2="113.24" gradientUnits="userSpaceOnUse">
<stop stop-color="#CFBB85"/>
<stop offset="1" stop-color="#BC9068"/>
</linearGradient>
</defs>
</svg>
