<svg width="228" height="228" viewBox="0 0 228 228" fill="none" xmlns="http://www.w3.org/2000/svg">
<path d="M11.8555 114.121L114.43 11.5469L217.005 114.121L114.43 216.696L11.8555 114.121Z" stroke="url(#paint0_linear_1052_4040)"/>
<path d="M24.8712 114.122L113.999 24.9938L203.127 114.122L113.999 203.25L24.8712 114.122Z" stroke="url(#paint1_linear_1052_4040)" stroke-width="2"/>
<path opacity="0.8" d="M53.6427 114.122L113.999 53.7657L174.355 114.122L113.999 174.478L53.6427 114.122Z" stroke="#151533"/>
<path opacity="0.9" d="M167.693 114.122L113.999 60.4282L60.3057 114.122L113.999 167.816L167.693 114.122Z" fill="#141432"/>
<g filter="url(#filter0_d_1052_4040)">
<path d="M34.979 114.122L113.909 35.1919L192.839 114.122L113.909 193.052L34.979 114.122Z" stroke="url(#paint2_linear_1052_4040)" stroke-width="6" shape-rendering="crispEdges"/>
</g>
<path d="M104.555 44.6358L113.999 35.1919L123.443 44.6358L113.999 54.0798L104.555 44.6358Z" stroke="url(#paint3_linear_1052_4040)" stroke-width="6"/>
<path d="M104.555 183.607L113.999 174.164L123.443 183.607L113.999 193.051L104.555 183.607Z" stroke="url(#paint4_linear_1052_4040)" stroke-width="6"/>
<path d="M174.041 114.122L183.485 104.678L192.929 114.122L183.485 123.566L174.041 114.122Z" stroke="url(#paint5_linear_1052_4040)" stroke-width="6"/>
<path d="M35.0688 114.122L44.5128 104.678L53.9568 114.122L44.5128 123.566L35.0688 114.122Z" stroke="url(#paint6_linear_1052_4040)" stroke-width="6"/>
<path d="M56.9166 65.438L7.98828 114.576L56.917 163.715M171.083 65.438L220.012 114.576L171.083 163.715" stroke="url(#paint7_linear_1052_4040)" stroke-width="6"/>
<defs>
<filter id="filter0_d_1052_4040" x="0.736328" y="0.949219" width="226.345" height="226.345" filterUnits="userSpaceOnUse" color-interpolation-filters="sRGB">
<feFlood flood-opacity="0" result="BackgroundImageFix"/>
<feColorMatrix in="SourceAlpha" type="matrix" values="0 0 0 0 0 0 0 0 0 0 0 0 0 0 0 0 0 0 127 0" result="hardAlpha"/>
<feOffset/>
<feGaussianBlur stdDeviation="15"/>
<feComposite in2="hardAlpha" operator="out"/>
<feColorMatrix type="matrix" values="0 0 0 0 0.0760069 0 0 0 0 0.433622 0 0 0 0 0.829167 0 0 0 1 0"/>
<feBlend mode="normal" in2="BackgroundImageFix" result="effect1_dropShadow_1052_4040"/>
<feBlend mode="normal" in="SourceGraphic" in2="effect1_dropShadow_1052_4040" result="shape"/>
</filter>
<linearGradient id="paint0_linear_1052_4040" x1="114.43" y1="10.8398" x2="114.43" y2="217.404" gradientUnits="userSpaceOnUse">
<stop stop-color="#DDD1A1"/>
<stop offset="1" stop-color="#C1A669"/>
</linearGradient>
<linearGradient id="paint1_linear_1052_4040" x1="113.999" y1="23.5796" x2="113.999" y2="204.664" gradientUnits="userSpaceOnUse">
<stop stop-color="#82E8FE"/>
<stop offset="1" stop-color="#107AB4"/>
</linearGradient>
<linearGradient id="paint2_linear_1052_4040" x1="113.909" y1="30.9492" x2="113.909" y2="197.294" gradientUnits="userSpaceOnUse">
<stop stop-color="#82E8FE"/>
<stop offset="1" stop-color="#107AB4"/>
</linearGradient>
<linearGradient id="paint3_linear_1052_4040" x1="113.999" y1="30.9492" x2="113.999" y2="58.3225" gradientUnits="userSpaceOnUse">
<stop stop-color="#82E8FE"/>
<stop offset="1" stop-color="#6FD5F1"/>
</linearGradient>
<linearGradient id="paint4_linear_1052_4040" x1="113.999" y1="169.921" x2="113.999" y2="197.294" gradientUnits="userSpaceOnUse">
<stop stop-color="#228CC0"/>
<stop offset="1" stop-color="#107AB4"/>
</linearGradient>
<linearGradient id="paint5_linear_1052_4040" x1="183.485" y1="100.436" x2="183.485" y2="127.809" gradientUnits="userSpaceOnUse">
<stop stop-color="#52BADF"/>
<stop offset="1" stop-color="#41A9D4"/>
</linearGradient>
<linearGradient id="paint6_linear_1052_4040" x1="44.5128" y1="100.436" x2="44.5128" y2="127.809" gradientUnits="userSpaceOnUse">
<stop stop-color="#52BADF"/>
<stop offset="1" stop-color="#41A9D4"/>
</linearGradient>
<linearGradient id="paint7_linear_1052_4040" x1="114" y1="40.8687" x2="114" y2="190.104" gradientUnits="userSpaceOnUse">
<stop stop-color="#E6DEB2"/>
<stop offset="1" stop-color="#B99957"/>
</linearGradient>
</defs>
</svg>
