<svg width="228" height="228" viewBox="0 0 228 228" fill="none" xmlns="http://www.w3.org/2000/svg">
<path d="M114.001 216.696L11.4259 114.121L114.001 11.547L216.575 114.121L114.001 216.696Z" stroke="url(#paint0_linear_1052_4056)"/>
<path d="M113.999 24.9943L203.127 114.122L113.999 203.25L24.8712 114.122L113.999 24.9943Z" stroke="url(#paint1_linear_1052_4056)" stroke-width="2"/>
<path opacity="0.8" d="M113.999 53.7662L174.355 114.122L113.999 174.479L53.6427 114.122L113.999 53.7662Z" stroke="#151533"/>
<path opacity="0.9" d="M167.693 114.122L113.999 60.4287L60.3057 114.122L113.999 167.816L167.693 114.122Z" fill="#141432"/>
<g filter="url(#filter0_d_1052_4056)">
<path d="M113.909 35.1923L192.839 114.122L113.909 193.052L34.979 114.122L113.909 35.1923Z" stroke="url(#paint2_linear_1052_4056)" stroke-width="6" shape-rendering="crispEdges"/>
</g>
<path d="M113.999 54.0803L104.555 44.6363L113.999 35.1923L123.443 44.6363L113.999 54.0803Z" stroke="url(#paint3_linear_1052_4056)" stroke-width="6"/>
<path d="M113.999 193.052L104.555 183.608L113.999 174.165L123.443 183.608L113.999 193.052Z" stroke="url(#paint4_linear_1052_4056)" stroke-width="6"/>
<path d="M44.5128 123.567L35.0688 114.123L44.5128 104.679L53.9568 114.123L44.5128 123.567Z" stroke="url(#paint5_linear_1052_4056)" stroke-width="6"/>
<path d="M183.485 123.567L174.041 114.123L183.485 104.679L192.929 114.123L183.485 123.567Z" stroke="url(#paint6_linear_1052_4056)" stroke-width="6"/>
<path d="M56.9166 65.4385L7.98828 114.577L56.917 163.715M171.083 65.4385L220.012 114.577L171.083 163.715" stroke="url(#paint7_linear_1052_4056)" stroke-width="6"/>
<defs>
<filter id="filter0_d_1052_4056" x="0.736328" y="0.949707" width="226.345" height="226.345" filterUnits="userSpaceOnUse" color-interpolation-filters="sRGB">
<feFlood flood-opacity="0" result="BackgroundImageFix"/>
<feColorMatrix in="SourceAlpha" type="matrix" values="0 0 0 0 0 0 0 0 0 0 0 0 0 0 0 0 0 0 127 0" result="hardAlpha"/>
<feOffset/>
<feGaussianBlur stdDeviation="15"/>
<feComposite in2="hardAlpha" operator="out"/>
<feColorMatrix type="matrix" values="0 0 0 0 0.842105 0 0 0 0 0.3 0 0 0 0 0.9 0 0 0 1 0"/>
<feBlend mode="normal" in2="BackgroundImageFix" result="effect1_dropShadow_1052_4056"/>
<feBlend mode="normal" in="SourceGraphic" in2="effect1_dropShadow_1052_4056" result="shape"/>
</filter>
<linearGradient id="paint0_linear_1052_4056" x1="114.001" y1="10.8398" x2="114.001" y2="217.404" gradientUnits="userSpaceOnUse">
<stop stop-color="#DDD1A1"/>
<stop offset="1" stop-color="#C1A669"/>
</linearGradient>
<linearGradient id="paint1_linear_1052_4056" x1="113.999" y1="23.5801" x2="113.999" y2="204.665" gradientUnits="userSpaceOnUse">
<stop stop-color="#D660D3"/>
<stop offset="1" stop-color="#9B51C0"/>
</linearGradient>
<linearGradient id="paint2_linear_1052_4056" x1="113.909" y1="30.9497" x2="113.909" y2="197.295" gradientUnits="userSpaceOnUse">
<stop stop-color="#DE62D5"/>
<stop offset="1" stop-color="#954FBE"/>
</linearGradient>
<linearGradient id="paint3_linear_1052_4056" x1="113.999" y1="30.9497" x2="113.999" y2="58.3229" gradientUnits="userSpaceOnUse">
<stop stop-color="#D760D3"/>
<stop offset="1" stop-color="#D35FD2"/>
</linearGradient>
<linearGradient id="paint4_linear_1052_4056" x1="113.999" y1="169.922" x2="113.999" y2="197.295" gradientUnits="userSpaceOnUse">
<stop stop-color="#A353C2"/>
<stop offset="1" stop-color="#9B51C0"/>
</linearGradient>
<linearGradient id="paint5_linear_1052_4056" x1="44.5128" y1="100.436" x2="44.5128" y2="127.809" gradientUnits="userSpaceOnUse">
<stop stop-color="#BF5ACC"/>
<stop offset="1" stop-color="#B257C7"/>
</linearGradient>
<linearGradient id="paint6_linear_1052_4056" x1="183.485" y1="100.436" x2="183.485" y2="127.809" gradientUnits="userSpaceOnUse">
<stop stop-color="#BF5ACC"/>
<stop offset="1" stop-color="#B257C7"/>
</linearGradient>
<linearGradient id="paint7_linear_1052_4056" x1="114" y1="40.8692" x2="114" y2="190.105" gradientUnits="userSpaceOnUse">
<stop stop-color="#E6DEB2"/>
<stop offset="1" stop-color="#B99957"/>
</linearGradient>
</defs>
</svg>
