<svg width="20" height="14" fill="none" xmlns="http://www.w3.org/2000/svg"><path d="M16.707 1.406a.047.047 0 00-.025-.02A17.175 17.175 0 0012.762.29a.065.065 0 00-.036.004.057.057 0 00-.026.023c-.18.293-.343.595-.488.903-1.46-.2-2.944-.2-4.403 0a8.808 8.808 0 00-.495-.903.06.06 0 00-.027-.022A.068.068 0 007.25.29C5.897.5 4.579.869 3.33 1.386a.055.055 0 00-.026.02C.81 4.766.125 8.046.46 11.283a.063.063 0 00.008.023c.005.007.01.013.017.018 1.454.97 3.08 1.71 4.809 2.19a.068.068 0 00.037 0 .063.063 0 00.03-.02c.372-.455.7-.938.984-1.442a.051.051 0 00-.012-.064.063.063 0 00-.021-.012 11.054 11.054 0 01-1.502-.645.059.059 0 01-.022-.02.05.05 0 01-.003-.052.057.057 0 01.019-.02c.1-.069.201-.14.298-.211a.066.066 0 01.062-.008c3.152 1.297 6.563 1.297 9.678 0a.066.066 0 01.063.007c.096.072.197.143.299.211a.058.058 0 01.018.021.051.051 0 01-.003.053.059.059 0 01-.02.019c-.48.252-.983.468-1.504.644a.062.062 0 00-.021.013.055.055 0 00-.014.02.05.05 0 00.003.044c.288.502.616.983.983 1.442a.06.06 0 00.03.02.067.067 0 00.037 0 16.641 16.641 0 004.816-2.19.057.057 0 00.018-.018.052.052 0 00.007-.022c.402-3.744-.672-6.995-2.847-9.878zM6.816 9.312c-.949 0-1.73-.785-1.73-1.75 0-.964.766-1.749 1.73-1.749.971 0 1.745.792 1.73 1.75 0 .964-.766 1.749-1.73 1.749zm6.398 0c-.949 0-1.73-.785-1.73-1.75 0-.964.766-1.749 1.73-1.749.972 0 1.746.792 1.73 1.75a1.73 1.73 0 01-1.73 1.749z" fill="#CFBB85"/></svg>