<svg width="20" height="15" fill="none" xmlns="http://www.w3.org/2000/svg"><path fill-rule="evenodd" clip-rule="evenodd" d="M9.709 4.578v6.065H6.61c-.464 0-1.322.145-1.993 1.007-.67.862-2.032 2.566-3.186 2.47C.278 14.023.051 12.609.11 10.972c.06-1.637.68-4.688 1.648-7.574C2.725.512 4.974.28 5.92.357c.343.028.663.117 1.03.22.645.18 1.436.4 2.758.4v2.478V.976c1.321 0 2.113-.22 2.758-.4.367-.102.687-.191 1.03-.22.947-.077 3.196.156 4.163 3.042.967 2.886 1.588 5.937 1.648 7.574.059 1.637-.168 3.05-1.322 3.148-1.154.097-2.516-1.608-3.187-2.47-.67-.862-1.529-1.007-1.992-1.007H9.709V4.578zm-5.083 3.08a1.82 1.82 0 100-3.642 1.82 1.82 0 000 3.641zm8.395-1.821a.93.93 0 11-1.86 0 .93.93 0 011.86 0zm2.77.93a.93.93 0 100-1.86.93.93 0 000 1.86zm-1.85-1.851a.93.93 0 110-1.86.93.93 0 010 1.86zm-.93 2.77a.93.93 0 101.86 0 .93.93 0 00-1.86 0z" fill="#CFBB85"/></svg>