<svg width="14" height="22" fill="none" xmlns="http://www.w3.org/2000/svg"><path d="M.245.597c2.409 0 4.8-.04 7.189.016a6.919 6.919 0 013.407 1.003c2.458 1.47 3.114 3.406 2.828 5.904-.268 2.34-1.732 3.73-3.824 4.554-1.09.428-2.238.592-3.407.596h-.61v.454c0 4.418.016-.654-.006 3.764-.01 2.109.986 3.523 2.859 4.369.47.212.977.344 1.469.566-.53-.08-1.063-.136-1.586-.245-1.052-.22-2.026-.648-2.944-1.2-1.58-.956-3.28-1.508-5.135-1.56a1.883 1.883 0 01-.177-.014c-.023-.002-.044-.014-.091-.032.032-.037.052-.083.084-.094 1.323-.451 1.768-1.496 1.808-2.766.038-1.255.008-1.392.008-2.648 0-6.124 0-3.876.002-10 0-1.326-.535-2.108-1.781-2.604C.306.648.28.622.245.597zm7.509 9.129c-.094 0-.188-.007-.282 0-.36.029-.684.397-.638.722.041.29.432.485.8.398.058-.014.123-.023.168-.056.369-.267.804-.482 1.086-.822.893-1.08 1.22-2.363 1.122-3.746-.13-1.838-.879-3.38-2.368-4.493-.392-.294-.895-.472-1.375-.605-.4-.112-.438-.033-.438.389 0 2.615 0 5.23-.002 7.846 0 .816-.005 1.633.005 2.45.002.105.073.29.136.302.353.061.67-.064 1.056-.262-.678-.163-.927-.582-.958-1.135-.026-.457.165-.836.576-1.063.37-.206.75-.256 1.112.075z" fill="#CFBB85"/></svg>