<svg width="18" height="18" fill="none" xmlns="http://www.w3.org/2000/svg"><path d="M7.35.831L.81 4.032a.756.756 0 000 1.358l6.54 3.2c.75.367 1.966.367 2.716 0l6.54-3.2a.756.756 0 000-1.358l-6.54-3.2c-.75-.368-1.965-.368-2.715 0z" fill="#CFBB85"/><path d="M2.686 7.355L7.35 9.638c.75.367 1.965.367 2.715 0l4.665-2.283 1.876.918a.756.756 0 010 1.357l-6.54 3.2c-.75.368-1.966.368-2.716 0L.81 9.63a.756.756 0 010-1.357l1.875-.918z" fill="#CFBB85"/><path d="M7.35 13.877l-4.664-2.283-1.876.918a.756.756 0 000 1.358l6.54 3.2c.75.368 1.966.368 2.716 0l6.54-3.2a.756.756 0 000-1.358l-1.875-.918-4.665 2.283c-.75.367-1.965.367-2.715 0z" fill="#CFBB85"/></svg>