<svg width="19" height="20" fill="none" xmlns="http://www.w3.org/2000/svg"><path fill-rule="evenodd" clip-rule="evenodd" d="M13.448.419c1.607 0 3.021.535 4.016 1.568.994.994 1.53 2.37 1.53 3.977v7.878c0 1.644-.536 3.06-1.568 4.054-.995.956-2.371 1.491-4.016 1.491h-7.8c-1.568 0-2.945-.497-3.977-1.491C.56 16.863.025 15.448.025 13.804v-7.84C.025 2.637 2.243.42 5.571.42h7.877zm2.754 16.215c.688-.65 1.109-1.607 1.109-2.792V5.964c0-1.109-.383-2.065-1.033-2.753-.688-.689-1.644-1.033-2.791-1.033H5.609c-1.148 0-2.142.344-2.792.994-.688.689-1.032 1.645-1.032 2.792v7.84c0 1.185.344 2.141 1.032 2.83.688.65 1.644.994 2.792.994h7.801c1.147 0 2.104-.344 2.792-.994zm-1.607-10.67a1.109 1.109 0 100-2.218 1.109 1.109 0 000 2.218zM9.51 4.97c-2.677 0-4.895 2.18-4.895 4.895A4.88 4.88 0 009.51 14.76c2.716 0 4.895-2.218 4.895-4.895 0-2.677-2.218-4.895-4.895-4.895zm0 8.031a3.15 3.15 0 01-3.136-3.136A3.15 3.15 0 019.51 6.73a3.15 3.15 0 013.136 3.136 3.15 3.15 0 01-3.136 3.136z" fill="#CFBB85"/></svg>