<svg width="326" height="72" fill="none" xmlns="http://www.w3.org/2000/svg"><path d="M90.927 21.713v27.3h5.85v-8.97h4.446c6.591 0 11.778-2.106 11.778-9.165 0-7.059-5.187-9.165-11.778-9.165H90.927zm16.107 9.165c0 3.198-2.535 4.017-5.538 4.017h-4.719v-8.034h4.719c3.003 0 5.538.78 5.538 4.017zm10.629 18.135l2.028-5.109h12.48l1.989 5.11h6.045l-11.115-27.3h-6.318l-11.154 27.3h6.045zm7.644-19.734c.234-.546.429-1.092.624-2.145.195 1.053.39 1.6.585 2.145l3.822 9.79h-8.814l3.783-9.79zm23.801 19.734V34.934a57.29 57.29 0 00-.117-3.744l12.714 17.823h5.499v-27.3h-5.85v14.08c0 1.247.039 2.612.117 3.743l-12.714-17.823h-5.499v27.3h5.85zm23.933-27.3v27.3h10.218c9.711 0 14.313-5.733 14.313-13.65 0-7.917-4.602-13.65-14.313-13.65h-10.218zm18.564 13.65c0 5.616-2.925 8.502-8.346 8.502h-4.368V26.861h4.368c5.421 0 8.346 2.886 8.346 8.502zm8.86 0c0 7.41 4.836 14.196 14.508 14.196 9.672 0 14.508-6.786 14.508-14.196s-4.836-14.196-14.508-14.196c-9.672 0-14.508 6.786-14.508 14.196zm23.01 0c0 4.797-2.847 8.775-8.502 8.775-5.694 0-8.541-3.978-8.541-8.775 0-4.797 2.847-8.775 8.541-8.775 5.655 0 8.502 3.978 8.502 8.775zm16.201 13.65v-9.555h4.29l7.371 9.555h6.747l-8.151-10.296c3.315-1.053 5.967-3.432 5.967-8.112 0-6.903-5.538-8.892-10.842-8.892h-11.232v27.3h5.85zm0-22.152h5.655c2.457 0 4.602 1.053 4.602 3.861 0 2.77-2.145 3.861-4.602 3.861h-5.655v-7.722zm24.923 22.152l2.028-5.109h12.48l1.989 5.11h6.045l-11.115-27.3h-6.318l-11.154 27.3h6.045zm7.644-19.734c.234-.546.429-1.092.624-2.145.195 1.053.39 1.6.585 2.145l3.822 9.79h-8.814l3.783-9.79zm36.046-7.566v10.998h-12.246V21.713h-5.85v27.3h5.85V38.015h12.246v10.998h5.85v-27.3h-5.85z" fill="#CFBB85"/><path d="M30.434 3.149l28.433 16.416v32.831L30.434 68.812 2.001 52.396V19.565L30.434 3.149z" stroke="#CFBB85" stroke-width="4"/><path d="M4 18.416L30.433 3.149 56.87 18.416 30.435 33.682 3.998 18.416z" stroke="#CFBB85" stroke-width="4"/><path d="M15.785 11.61l14.65-8.46 14.65 8.46-14.65 8.46-14.65-8.46z" stroke="#CFBB85" stroke-width="4"/></svg>