<svg width="468" height="121" fill="none" xmlns="http://www.w3.org/2000/svg"><path d="M1.698 2.566a1 1 0 01.954-.702c2.654 0 5.305-.012 7.956-.025 6.407-.03 12.805-.06 19.193.087l-28.103.64zm0 0a1 1 0 00.385 1.12m-.385-1.12l.385 1.12m0 0l.062.046.087.068c.071.054.209.156.393.231h0m-.542-.344l.542.344m-.082 101.917c2.285-.781 3.755-2.046 4.688-3.623.947-1.601 1.384-3.6 1.455-5.897l-6.143 9.52zm0 0a1.235 1.235 0 00-.444.268 1.673 1.673 0 00-.196.223l-.079.11-.009.013-.023.032a1 1 0 00.402 1.59c.049.018.072.028.101.04l.088.036c.067.027.208.082.384.104l.005.001c.245.029.5.051.761.058m-.99-2.475l.99 2.475m0 0c6.803.188 13.049 2.215 18.886 5.736l.517-.857-.517.857c3.532 2.13 7.315 3.795 11.42 4.652M3.532 108.423L29.801 1.926c4.72.11 9.263 1.48 13.346 3.924m-9.309 112.961s0 0 0 0l.205-.979-.205.979zm0 0c1.398.293 2.84.489 4.24.68.61.083 1.21.165 1.797.253a1 1 0 00.56-1.901c-.973-.438-1.954-.785-2.88-1.112h0c-.94-.331-1.82-.642-2.66-1.022h0c-3.403-1.537-5.945-3.56-7.637-6.098-1.69-2.535-2.579-5.655-2.56-9.468.056-11.877.043-23.758.03-35.634-.006-4.795-.011-9.59-.012-14.382h-1m0 0h1v-.711m-1 .71v-.71a595.948 595.948 0 011 0m-1 .71c0 4.796.006 9.592.012 14.387.013 11.875.026 23.75-.03 35.625-.038 7.955 3.72 13.29 10.784 16.482.4.181.809.347 1.221.504.844.14 1.694.255 2.56.373.627.085 1.262.172 1.91.269l-.15.989-.41.912c-.884-.399-1.787-.719-2.724-1.05l-.04-.013c-.463-.164-.936-.331-1.41-.51L24.717 48.416m0 1h1.308m-1.308 0v0-1m1.308 1c4.502-.017 8.957-.646 13.215-2.32h0c8.128-3.198 13.99-8.697 15.056-17.996h0c.551-4.823.206-9.2-1.532-13.112-1.743-3.924-4.841-7.28-9.616-10.138M26.024 49.416l-.004-1m.004 1s0 0 0 0l-.004-1M43.147 5.85l-.513.857.513-.857s0 0 0 0zM26.02 48.416h-1.304m1.304 0c4.412-.017 8.739-.633 12.853-2.25l-14.157 2.25m-.001-10.955a5.38 5.38 0 011.588-1.31c.785-.438 1.668-.76 2.611-.745.972.016 1.9.391 2.745 1.161a1 1 0 01-.674 1.739c-.161 0-.295-.003-.413-.006-.211-.004-.376-.008-.569.008h-.006c-.372.03-.789.247-1.105.605-.321.364-.422.736-.388.977h0c.018.124.134.347.503.531.357.178.834.249 1.296.14l.003-.002.14-.03.04-.01c.05-.01.086-.019.114-.027l.018-.005c.417-.3.894-.61 1.343-.902.29-.188.569-.369.812-.535.693-.473 1.278-.934 1.72-1.467 3.178-3.842 4.36-8.42 4.005-13.424h0c-.473-6.68-3.175-12.214-8.536-16.224h0c-1.323-.991-3.07-1.622-4.854-2.12l-.393 31.646zm0 0l.001-1.539-.001 1.54zM2.625 4.031l.009.004m-.009-.004l.009.004m0 0c2.23.888 3.721 1.99 4.667 3.374M2.634 4.035L7.3 7.409m17.423-1.09v0c-.003 6.58-.005 13.157-.006 19.736l-.002 9.867.008-29.603zm0 0c0-.255.004-.448.014-.597m-.014.597l.014-.597m-16 80.88c-.01-1.446-.02-2.896-.02-4.354L8.72 47.59v0c0-11.554.001-23.106.003-34.658l.015 73.672zm0 0c.024 3.287.048 6.552-.052 9.825l.052-9.824zM7.301 7.41c.945 1.382 1.422 3.154 1.422 5.522L7.3 7.409zm17.436-1.687c.098.021.22.051.37.093l-.37-.093zM3.181 107.843l.006-.002-.006.002zm21.545-63.491c.272.349.593.657.96.924a3.3 3.3 0 01-.905.086 1.327 1.327 0 01-.043-.178l-.003-.033h0l-.01-.8zm.054-38.943l-.002.005.002-.005z" fill="url(#paint0_linear_1309_4467)" stroke="url(#paint1_linear_1309_4467)" stroke-width="2" stroke-linejoin="round"/><path d="M291.916 11.053a1 1 0 01.808-.886c.196-.037.332-.067.449-.092l.11-.024c.126-.027.305-.065.509-.062 1.997.008 4.001.002 6.009-.005 4.833-.016 9.691-.032 14.528.164l-22.413.905zm0 0a1 1 0 00.623 1.025m-.623-1.025l.623 1.025m6.148 73.389l-1-.003c-.006 2.063-.34 3.833-1.152 5.254-.797 1.395-2.106 2.544-4.243 3.292a1 1 0 00.33 1.944h23.102a1 1 0 00.302-1.954c-2.064-.655-3.497-1.938-4.212-3.85-.532-1.422-.917-2.924-.929-4.324l-12.198-.36zm0 0l-1-.003c.021-8.363.017-16.727.013-25.092-.001-3.252-.003-6.504-.003-9.757 0-2.894-.006-5.79-.012-8.686-.015-7.248-.031-14.504.05-21.754v-.002c.025-2-.317-3.616-1.103-4.914-.778-1.286-2.055-2.364-4.093-3.181m6.148 73.389l-6.148-73.39m18.294 45.02a144.563 144.563 0 009.427 21.482h0c4.937 9.138 10.928 17.556 19.155 24.214 7.28 5.895 15.468 9.738 25.294 8.977 0 0 0 0 0 0l-53.876-54.673zm0 0l-.003 3.365c-.006 8.457-.012 16.91.055 25.364l-.052-28.73zm.37-12.03h0c1.457-.512 2.828-1.058 3.847-1.887h0c8.022-6.524 9.411-18.995.685-27.047h0c-1.12-1.034-2.68-1.77-4.296-2.402l-.236 31.335zm0 0c-.141.049-.25.08-.332.098m.332-.099l-.358-30.781m0 0v.001a8591.68 8591.68 0 00-.003 11.353v7.601c-.001 3.818-.001 7.636.003 11.454m0-30.409c0-.338.017-.572.045-.73m-.045.73l.045-.73m-.045 31.14h-1l1-.002v.001zm0 0c0 .206.011.36.026.47m0 0a.934.934 0 01-.174.025h-.014c0 .001.073.008.157.078a.27.27 0 01.074.086s-.008-.016-.018-.058a1.098 1.098 0 01-.025-.131zm.019-31.61c.123.026.301.079.549.175l-.549-.176zm11.189 33.3a26.68 26.68 0 002.931-1.196c6.279-3.05 9.468-8.887 9.925-14.816.456-5.905-1.791-12.01-6.507-15.64h0c-4.185-3.22-8.973-4.849-14.098-5.055l7.749 36.707zm-10.276-34.056h-.001.001zm-.867.58l-.001.002.001-.002z" fill="url(#paint2_linear_1309_4467)" stroke="url(#paint3_linear_1309_4467)" stroke-width="2" stroke-linejoin="round"/><mask id="a" maskUnits="userSpaceOnUse" x="409.613" y="9.085" width="58" height="88" fill="#000"><path fill="#fff" d="M409.613 9.085h58v88h-58z"/><path d="M462.245 49.36c.352 2.446-.134 4.718-1.952 6.67-.405.432-.735 1.132-.738 1.711-.043 9.43-.048 18.861-.016 28.292.016 4.43 1.926 7.293 5.901 8.91h-23.035c4.576-1.736 5.919-5.27 5.909-9.659a4409.69 4409.69 0 01.013-27.218c.003-.907-.292-1.35-1.073-1.859-2.239-1.462-4.305-3.189-6.534-4.667-2.888-1.918-5.855-3.72-8.824-5.512-.534-.322-1.245-.36-2.063-.579v1.5c.006 12.917.006 25.831.016 38.748.003 2.578.574 5.024 2.387 6.923.945.987 2.235 1.644 3.2 2.328h-22.823c4.321-1.472 6.003-4.656 6.038-8.674.105-12.156.048-24.314.051-36.47 0-.123-.059-.243-.091-.375-1.626.896-2.141 2.725-2.546 9.077-1.523-1.905-2.186-3.989-2.258-6.223-.118-3.634 1.113-6.762 3.991-9.087.668-.542.925-1.062.923-1.904-.03-7.553-.089-15.109.016-22.66.045-3.26-.673-5.93-3.865-7.53h18.673c-.043.098-.061.257-.139.297-2.661 1.357-3.618 3.575-3.589 6.49.075 7.374.051 14.75 0 22.123-.008 1.073.3 1.572 1.336 1.891 3.535 1.09 6.086 3.659 8.757 6.024 2.307 2.041 4.576 4.128 6.875 6.177.357.32.796.55 1.435.982.035-.681.078-1.137.078-1.59.002-11.98-.033-23.958.026-35.933.014-2.755-1.03-4.729-3.425-6.027-.139-.075-.26-.19-.606-.45h19.183c-.539.335-.861.528-1.172.729-1.73 1.12-2.765 2.7-2.771 4.774-.029 12.067-.018 24.134-.016 36.201 0 .284.075.569.113.853.153.05.303.102.456.155.735-1.502 1.462-3 2.159-4.438z"/></mask><path d="M462.245 49.36c.352 2.446-.134 4.718-1.952 6.67-.405.432-.735 1.132-.738 1.711-.043 9.43-.048 18.861-.016 28.292.016 4.43 1.926 7.293 5.901 8.91h-23.035c4.576-1.736 5.919-5.27 5.909-9.659a4409.69 4409.69 0 01.013-27.218c.003-.907-.292-1.35-1.073-1.859-2.239-1.462-4.305-3.189-6.534-4.667-2.888-1.918-5.855-3.72-8.824-5.512-.534-.322-1.245-.36-2.063-.579v1.5c.006 12.917.006 25.831.016 38.748.003 2.578.574 5.024 2.387 6.923.945.987 2.235 1.644 3.2 2.328h-22.823c4.321-1.472 6.003-4.656 6.038-8.674.105-12.156.048-24.314.051-36.47 0-.123-.059-.243-.091-.375-1.626.896-2.141 2.725-2.546 9.077-1.523-1.905-2.186-3.989-2.258-6.223-.118-3.634 1.113-6.762 3.991-9.087.668-.542.925-1.062.923-1.904-.03-7.553-.089-15.109.016-22.66.045-3.26-.673-5.93-3.865-7.53h18.673c-.043.098-.061.257-.139.297-2.661 1.357-3.618 3.575-3.589 6.49.075 7.374.051 14.75 0 22.123-.008 1.073.3 1.572 1.336 1.891 3.535 1.09 6.086 3.659 8.757 6.024 2.307 2.041 4.576 4.128 6.875 6.177.357.32.796.55 1.435.982.035-.681.078-1.137.078-1.59.002-11.98-.033-23.958.026-35.933.014-2.755-1.03-4.729-3.425-6.027-.139-.075-.26-.19-.606-.45h19.183c-.539.335-.861.528-1.172.729-1.73 1.12-2.765 2.7-2.771 4.774-.029 12.067-.018 24.134-.016 36.201 0 .284.075.569.113.853.153.05.303.102.456.155.735-1.502 1.462-3 2.159-4.438z" fill="url(#paint4_linear_1309_4467)"/><path d="M462.245 49.36l1.98-.285a2 2 0 00-3.779-.588l1.799.873zm-1.952 6.67l1.458 1.368.005-.005-1.463-1.363zm-.738 1.711l-2-.009 2 .01zm-.016 28.292l-2 .007 2-.007zm5.901 8.91v2a2 2 0 00.754-3.853l-.754 1.853zm-23.035 0l-.709-1.87a2 2 0 00.709 3.87v-2zm5.909-9.659l2-.005-2 .005zm.013-27.218l2 .007v-.001l-2-.006zm-1.073-1.859l1.094-1.675h-.001l-1.093 1.675zm-6.534-4.667l-1.106 1.666.001.001 1.105-1.667zm-8.824-5.512l1.033-1.712-1.033 1.712zm-2.063-.579l.519-1.931a2 2 0 00-2.519 1.931h2zm0 1.5h-2 2zm.016 38.748l-2 .002 2-.002zm2.387 6.923l-1.446 1.381.001.001 1.445-1.382zm3.2 2.328v2a2 2 0 001.156-3.632l-1.156 1.632zm-22.823 0l-.645-1.893a2 2 0 00.645 3.893v-2zm6.038-8.674l2 .017-2-.017zm.051-36.47l2 .001h-2zm-.091-.375l1.942-.475a2 2 0 00-2.908-1.276l.966 1.751zm-2.546 9.077l-1.561 1.25a2 2 0 003.557-1.123l-1.996-.127zm-2.258-6.223l1.999-.065-1.999.065zm3.991-9.087l1.257 1.556.003-.003-1.26-1.553zm.923-1.904l2-.007v-.001l-2 .008zm.016-22.66l-2-.027 2 .028zm-3.865-7.53v-2a2 2 0 00-.897 3.787l.897-1.788zm18.673 0l1.836.793a2 2 0 00-1.836-2.794v2zm-.139.297l.909 1.782.01-.005-.919-1.777zm-3.589 6.49l-2 .021 2-.02zm0 22.123l2 .015-2-.015zm1.336 1.891l-.589 1.911.589-1.91zm8.757 6.024l-1.326 1.498h.001l1.325-1.498zm6.875 6.177l1.333-1.49-.002-.003-1.331 1.493zm1.435.982l-1.121 1.657a2 2 0 003.118-1.555l-1.997-.102zm.078-1.59l-2-.001h2zm.026-35.933l2 .01-2-.01zm-3.425-6.027l.953-1.759-.005-.002-.948 1.76zm-.606-.45v-2a2 2 0 00-1.202 3.598l1.202-1.599zm19.183 0l1.057 1.698a1.999 1.999 0 00-1.057-3.699v2zm-1.172.729l-1.086-1.68-.001.001 1.087 1.679zm-2.771 4.774l-2-.005 2 .005zm-.016 36.201h2-2zm.113.853l-1.983.262a2 2 0 001.351 1.635l.632-1.897zm.456.155l-.662 1.888a2 2 0 002.458-1.008l-1.796-.88zm.18-4.154c.281 1.96-.103 3.591-1.437 5.023l2.927 2.726c2.303-2.473 2.89-5.386 2.469-8.318l-3.959.569zm-1.432 5.018c-.673.717-1.274 1.883-1.279 3.07l4 .019c0 .038-.005.044.002.015a1.057 1.057 0 01.194-.367l-2.917-2.737zm-1.279 3.07a3561.54 3561.54 0 00-.016 28.308l4-.014c-.032-9.425-.027-18.85.016-28.276l-4-.018zm-.016 28.308c.009 2.503.556 4.735 1.799 6.609 1.246 1.878 3.077 3.222 5.348 4.146l1.508-3.705c-1.704-.693-2.816-1.588-3.523-2.653-.709-1.069-1.125-2.483-1.132-4.412l-4 .015zm7.901 6.903h-23.035v4h23.035v-4zm-22.326 3.87c2.682-1.017 4.558-2.63 5.718-4.741 1.131-2.059 1.488-4.417 1.482-6.793l-4 .01c.005 2.013-.306 3.616-.987 4.856-.653 1.188-1.738 2.21-3.631 2.928l1.418 3.74zm7.2-11.534c-.024-9.07-.019-18.136.013-27.206l-4-.014c-.032 9.077-.037 18.153-.013 27.23l4-.01zm.013-27.207c.002-.674-.107-1.405-.523-2.106-.399-.672-.963-1.111-1.456-1.434l-2.187 3.35c.137.09.203.144.231.17.023.02.002.006-.027-.042a.41.41 0 01-.047-.11c-.001-.005.01.039.009.16l4 .012zm-1.98-3.54c-1.061-.692-2.09-1.454-3.17-2.257-1.065-.792-2.184-1.627-3.351-2.402l-2.211 3.334c1.061.704 2.09 1.47 3.175 2.278 1.069.795 2.193 1.628 3.371 2.397l2.186-3.35zm-6.52-4.658c-2.929-1.945-5.93-3.767-8.898-5.558l-2.066 3.425c2.97 1.792 5.903 3.574 8.751 5.465l2.213-3.332zm-8.898-5.558c-.558-.337-1.134-.481-1.524-.568-.488-.108-.688-.133-1.053-.23l-1.038 3.862c.259.07.5.123.705.165.227.047.361.073.518.108.304.067.35.102.326.088l2.066-3.425zm-5.096 1.133v1.499h4v-1.499h-4zm0 1.5c.006 12.916.006 25.832.016 38.75l4-.003c-.01-12.917-.01-25.83-.016-38.748l-4 .001zm.016 38.75c.003 2.854.637 5.89 2.941 8.302l2.893-2.762c-1.322-1.385-1.831-3.242-1.834-5.544l-4 .005zm2.942 8.303c.624.653 1.326 1.16 1.93 1.561.705.469 1.082.68 1.559 1.017l2.312-3.264c-.488-.346-1.238-.806-1.656-1.084-.519-.345-.934-.66-1.254-.994l-2.891 2.764zm4.645-1.054h-22.823v4h22.823v-4zm-22.178 3.893c2.522-.86 4.415-2.275 5.658-4.184 1.228-1.887 1.715-4.09 1.735-6.366l-4-.034c-.015 1.742-.386 3.14-1.088 4.218-.687 1.055-1.796 1.967-3.595 2.58l1.29 3.786zm7.393-10.55c.105-12.166.048-24.343.051-36.486h-4c-.003 12.168.054 24.307-.051 36.452l4 .034zm.051-36.486a2.631 2.631 0 00-.144-.843l-.013-.04c-.006-.018 0 0 .008.032l-3.885.951c.024.098.05.18.064.226l.01.032.008.022.004.015s-.012-.04-.024-.102a1.484 1.484 0 01-.028-.293h4zm-3.057-2.127c-1.402.772-2.205 1.973-2.69 3.703-.448 1.594-.684 3.84-.886 6.997l3.992.255c.204-3.194.427-5.038.745-6.17.279-.997.547-1.159.77-1.282l-1.931-3.503zm-.018 9.578c-1.227-1.534-1.761-3.19-1.821-5.038l-3.998.13c.085 2.621.876 5.132 2.696 7.407l3.123-2.499zm-1.821-5.038c-.1-3.085.916-5.581 3.249-7.466l-2.514-3.112c-3.423 2.766-4.869 6.524-4.733 10.708l3.998-.13zm3.252-7.469c.478-.388.936-.87 1.251-1.517.318-.653.414-1.316.412-1.947l-4 .013a.95.95 0 01-.013.188c-.003.018-.003.011.005-.005.019-.04.015.008-.175.162l2.52 3.106zm1.663-3.465c-.03-7.565-.089-15.096.016-22.623l-4-.056c-.105 7.573-.046 15.153-.016 22.695l4-.016zm.016-22.623c.024-1.757-.148-3.576-.894-5.236-.775-1.723-2.095-3.119-4.074-4.111l-1.794 3.575c1.213.608 1.847 1.348 2.219 2.175.4.89.564 2.036.543 3.54l4 .057zm-5.865-5.56h18.673v-4h-18.673v4zm16.838-2.794a2.742 2.742 0 00-.106.291c-.021.07-.011.036-.005.018.008-.02.051-.148.145-.304.093-.152.316-.468.743-.69l1.838 3.553c.466-.24.72-.592.84-.788a2.382 2.382 0 00.249-.57l.01-.032.005-.015c.008-.026-.011.039-.048.125l-3.671-1.588zm.787-.69c-1.658.846-2.886 2.021-3.667 3.517-.767 1.469-1.03 3.105-1.013 4.776l4-.04c-.013-1.245.188-2.175.559-2.884.355-.681.936-1.294 1.939-1.805l-1.818-3.564zm-4.68 8.293c.075 7.356.051 14.72 0 22.088l4 .028c.051-7.377.075-14.766 0-22.157l-4 .041zm0 22.087c-.005.681.076 1.573.629 2.377.571.83 1.401 1.22 2.118 1.44l1.178-3.822a1.467 1.467 0 01-.153-.055c-.03-.013-.037-.018-.027-.012a.714.714 0 01.269.366c0-.002-.004-.022-.008-.068a1.999 1.999 0 01-.006-.196l-4-.03zm2.747 3.818c3.019.93 5.191 3.105 8.02 5.61l2.652-2.995c-2.514-2.226-5.443-5.19-9.494-6.438l-1.178 3.823zm8.021 5.61c2.328 2.06 4.514 4.073 6.869 6.172l2.662-2.986c-2.243-1.999-4.595-4.16-6.88-6.181l-2.651 2.995zm6.866 6.17c.3.268.607.474.86.637.283.183.489.308.788.51l2.241-3.313c-.339-.23-.672-.436-.857-.556a3.078 3.078 0 01-.365-.26l-2.667 2.982zm4.766-.407c.029-.568.081-1.174.081-1.693h-4c0 .389-.035.695-.076 1.489l3.995.204zm.081-1.692c.002-11.987-.033-23.954.026-35.924l-4-.02c-.059 11.983-.024 23.973-.026 35.943h4zm.026-35.924c.008-1.631-.297-3.173-1.063-4.544-.772-1.382-1.933-2.45-3.409-3.25l-1.906 3.516c.92.498 1.478 1.066 1.823 1.684.351.63.561 1.452.555 2.575l4 .02zm-4.477-7.797c.092.049.141.094.055.027-.065-.05-.216-.172-.407-.315l-2.404 3.197c.156.117.237.183.354.274.096.074.275.214.506.339l1.896-3.522zm-1.554 3.31h19.183v-4h-19.183v4zm18.127-3.698c-.504.313-.872.535-1.202.748l2.172 3.36c.293-.19.568-.354 1.143-.711l-2.113-3.397zm-1.203.75c-2.191 1.419-3.676 3.58-3.684 6.447l4 .01c.004-1.279.589-2.278 1.859-3.1l-2.175-3.358zm-3.684 6.447c-.029 12.07-.018 24.141-.016 36.207l4-.001c-.002-12.07-.013-24.133.016-36.196l-4-.01zm-.016 36.206c0 .308.041.579.069.752.039.232.047.258.061.363l3.966-.524a7.216 7.216 0 00-.046-.293l-.034-.197c-.018-.111-.016-.125-.016-.101h-4zm1.481 2.75l.426.146 1.324-3.775a29.057 29.057 0 00-.486-.165l-1.264 3.794zm2.884-.862c.737-1.506 1.466-3.009 2.163-4.445l-3.599-1.746c-.698 1.438-1.423 2.934-2.156 4.432l3.592 1.759z" fill="url(#paint5_linear_1309_4467)" mask="url(#a)"/><path d="M179.268 11.02a1 1 0 01.838-.866c.238-.037.406-.068.546-.094l.099-.018a2.89 2.89 0 01.529-.059h.004v0c2.002.01 4.013 0 6.03-.01 4.783-.023 9.596-.047 14.383.175l-22.429.873zm0 0a1 1 0 00.606 1.044m-.606-1.043l.606 1.043m0 0c1.729.724 2.606 1.692 3.084 2.794m-3.084-2.794l3.084 2.794m-1.509 86.055l.764-.645c.257.305.533.5.865.668a68.213 68.213 0 00-1.629-.023zm0 0v1c.455 0 .92.008 1.391.018-.49-.225-.96-.507-1.391-1.018zm19.129-4.954h-22.152a1 1 0 01-.325-1.946c2.091-.718 3.398-1.824 4.203-3.175.818-1.372 1.172-3.088 1.178-5.103.03-9.665.028-19.33.025-28.995l-.001-10.55v0c.001-2.65-.005-5.302-.011-7.956-.015-6.375-.03-12.758.052-19.136l17.031 76.861zm0 0c-3.044 2.206-6.685 3.457-10.805 3.91h-.001c-1.841.202-3.666.15-5.568.096a95.788 95.788 0 00-2.755-.052 1 1 0 00-.764 1.645c.584.692 1.226 1.053 1.814 1.317h0c5.262 2.354 10.765 2.773 16.308 1.893h0c12.907-2.051 23.329-13.754 23.497-26.914 0 0 0 0 0 0L200.578 95.96zm1.824-1.505c1.338-1.25 2.533-2.729 3.573-4.45v-.001c2.163-3.581 3.008-7.603 3.026-11.801l.019-4.262c.069-15.116.137-30.221-.057-45.322m-6.561 65.836l7.561-65.849m-7.561 65.85a1 1 0 00-.561-.45c-2.727-.863-4.178-2.834-4.845-5.611m5.406 6.06l-5.406-6.06m11.967-59.776l1-.013m-1 .013s0 0 0 0l1-.013m-1 .013c-.078-6.045-2.736-11.005-8.101-14.14m9.101 14.127c-.083-6.373-2.91-11.667-8.596-14.99m-.505.863h.001l.504-.863m-.505.863c-.423-.247-.961-.401-1.621-.514a21.067 21.067 0 00-1.189-.162c-.3-.035-.615-.073-.921-.118h-.001a.613.613 0 00-.239 0c-.026.007-.031.013-.033.014 0 0 0 0 0 0-.005.005-.097.104-.105.442v.003l-.006.206c-.009.335-.018.654-.018.974v.008c0 23.279 0 46.56.016 69.837v.001c0 1.168.017 2.245.251 3.225m3.866-73.916l.505-.863m0 0l-4.371 74.779m-14.038-73.536c.502 1.157.61 2.56.589 4.24l-.589-4.24zm-1.678-2.875v0s0 0 0 0zm41.061 16.252c-.011-4.525-1.716-8.448-4.958-11.628-4.386-4.3-9.846-6.19-15.686-6.459l20.644 18.087z" fill="url(#paint6_linear_1309_4467)" stroke="url(#paint7_linear_1309_4467)" stroke-width="2" stroke-linejoin="round"/><path d="M254.211 59.681V19.417c.001-1.773.628-3.185 1.666-4.157 1.043-.978 2.58-1.584 4.517-1.584 1.951 0 3.517.609 4.585 1.588 1.06.973 1.697 2.372 1.697 4.104v0c.006 22.436.006 44.87 0 67.306v0c0 3.048-2.079 5.297-5.473 5.676h0c-3.34.375-6.211-1.5-6.854-4.142h0c-.123-.505-.133-1.073-.133-1.754v0c-.006-8.926-.006-17.848-.005-26.773zm25.65 16.43h0c-.019-5.44-.015-10.878-.011-16.32.001-2.208.003-4.416.003-6.626a.899.899 0 00.005-.104c0-2.042.003-4.086.006-6.13.008-5.595.016-11.197-.035-16.795h0c-.019-2.019-.143-4.167-.67-6.204-2.05-7.923-7.715-12.106-13.861-13.483-6.085-1.362-12.726.003-16.919 3.234-5.081 3.915-7.344 9.252-7.372 15.473h0a4857.11 4857.11 0 00-.02 25.32c.004 3.58.007 7.158.007 10.735 0 1.229-.012 2.467-.024 3.71-.027 2.83-.054 5.688.057 8.525h0c.28 7.11 3.26 12.877 9.785 16.385h0c4.209 2.263 8.733 2.606 13.263 1.89 5.862-.927 10.448-3.896 13.366-9.198 1.804-3.275 2.431-6.796 2.42-10.412z" fill="url(#paint8_linear_1309_4467)" stroke="url(#paint9_linear_1309_4467)" stroke-width="2" stroke-linejoin="round"/><mask id="b" maskUnits="userSpaceOnUse" x="115.209" y="9.123" width="51" height="88" fill="#000"><path fill="#fff" d="M115.209 9.123h51v88h-51z"/><path d="M155.181 61.432v-1.446c0-13.987-.054-27.972.04-41.957.021-3.111-.931-5.394-3.785-6.906h12.639c-.107.131-.18.287-.298.348-2.518 1.325-3.532 3.39-3.527 6.242.048 25.113.032 50.226.035 75.336v1.325c-.105.04-.209.083-.314.123-10.101-17.852-20.2-35.707-30.301-53.56-.099.017-.201.03-.3.046-.035.354-.102.708-.102 1.065 0 14.612-.011 29.225.04 43.834.005 1.317.239 2.685.646 3.938.816 2.513 2.482 4.289 5.121 5.093h-16.866c4.265-1.392 5.721-4.576 6.019-8.548.045-.622.024-1.25.024-1.875.003-22.12-.021-44.236.032-66.356.008-3.122-.92-5.51-3.868-7.011h14.793c-.005.048.013.18-.027.2-3.736 1.916-4.122 6.231-2.744 9.887 1.03 2.733 2.581 5.281 4.021 7.843 5.93 10.543 11.904 21.06 17.866 31.585.172.3.378.58.569.869.094-.027.19-.051.287-.075z"/></mask><path d="M155.181 61.432v-1.446c0-13.987-.054-27.972.04-41.957.021-3.111-.931-5.394-3.785-6.906h12.639c-.107.131-.18.287-.298.348-2.518 1.325-3.532 3.39-3.527 6.242.048 25.113.032 50.226.035 75.336v1.325c-.105.04-.209.083-.314.123-10.101-17.852-20.2-35.707-30.301-53.56-.099.017-.201.03-.3.046-.035.354-.102.708-.102 1.065 0 14.612-.011 29.225.04 43.834.005 1.317.239 2.685.646 3.938.816 2.513 2.482 4.289 5.121 5.093h-16.866c4.265-1.392 5.721-4.576 6.019-8.548.045-.622.024-1.25.024-1.875.003-22.12-.021-44.236.032-66.356.008-3.122-.92-5.51-3.868-7.011h14.793c-.005.048.013.18-.027.2-3.736 1.916-4.122 6.231-2.744 9.887 1.03 2.733 2.581 5.281 4.021 7.843 5.93 10.543 11.904 21.06 17.866 31.585.172.3.378.58.569.869.094-.027.19-.051.287-.075z" fill="url(#paint10_linear_1309_4467)"/><path d="M155.181 61.432l.485 1.94a2 2 0 001.515-1.94h-2zm.04-43.403l-2-.014 2 .014zm-3.785-6.906v-2a1.999 1.999 0 00-.936 3.767l.936-1.767zm12.639 0l1.549 1.264a2 2 0 00-1.549-3.264v2zm-.298.348l-.926-1.772-.005.002.931 1.77zm-3.527 6.242l-2 .003 2-.003zm.035 75.336h2-2zm0 1.325l.718 1.867a2 2 0 001.282-1.867h-2zm-.314.123l-1.74.985a2 2 0 002.458.882l-.718-1.867zm-30.301-53.56l1.741-.984a2 2 0 00-2.061-.99l.32 1.974zm-.3.046l-.32-1.974a2 2 0 00-1.671 1.778l1.991.196zm-.062 44.9l-2 .006v.001l2-.008zm.646 3.937l1.903-.617-.001-.002-1.902.619zm5.121 5.093v2a2 2 0 00.583-3.913l-.583 1.913zm-16.866 0l-.621-1.901a2 2 0 00.621 3.901v-2zm6.019-8.548l1.994.15.001-.004-1.995-.146zm.024-1.875h-2 2zm.032-66.356l-2-.005 2 .005zm-3.868-7.011v-2a2 2 0 00-.908 3.782l.908-1.782zm14.793 0l1.988.22a1.997 1.997 0 00-1.988-2.22v2zm-.027.2l.912 1.78c.01-.004.02-.01.029-.015l-.941-1.764zm-2.744 9.887l1.872-.705-1.872.705zm4.021 7.843l-1.743.98 1.743-.98zm17.866 31.585l-1.74.986.004.006 1.736-.992zm.569.869l-1.671 1.099a1.999 1.999 0 002.22.824l-.549-1.923zm2.287-.075v-1.446h-4v1.446h4zm0-1.446c0-13.998-.054-27.968.04-41.944l-4-.026c-.094 13.993-.04 27.993-.04 41.97h4zm.04-41.943c.012-1.75-.247-3.45-1.036-4.983-.806-1.562-2.078-2.786-3.812-3.705L150.5 12.89c1.12.594 1.75 1.268 2.129 2.003.395.765.601 1.761.592 3.122l4 .028zm-5.785-4.92h12.639v-4h-12.639v4zm11.09-3.265a3.623 3.623 0 00-.203.274l-.005.008c.003-.005.046-.064.119-.138a1.66 1.66 0 01.414-.303l1.853 3.545c.26-.136.45-.3.576-.428.123-.125.213-.242.262-.31.043-.057.097-.136.099-.139.016-.023.006-.007-.017.02l-3.098-2.53zm.32-.157c-1.556.819-2.751 1.928-3.534 3.36-.772 1.412-1.065 2.997-1.062 4.655l4-.007c-.002-1.193.209-2.066.572-2.73.353-.645.924-1.231 1.886-1.738l-1.862-3.54zm-4.596 8.015c.048 25.111.032 50.22.035 75.333h4c-.003-25.109.013-50.225-.035-75.34l-4 .008zm.035 75.333v1.325h4V93.05h-4zm1.282-.542l-.177.07-.137.054 1.436 3.733.178-.07.136-.053-1.436-3.734zm2.145 1.005l-15.151-26.78-15.15-26.78-3.482 1.97 15.151 26.78 15.151 26.78 3.481-1.97zM129.35 38.964l-.12.018a11.02 11.02 0 00-.18.028l.64 3.948.12-.018.18-.027-.64-3.949zm-1.971 1.824c-.01.104-.111.784-.111 1.26h4c0-.236.033-.264.092-.868l-3.981-.392zm-.111 1.26c0 14.611-.011 29.228.04 43.842l4-.014c-.051-14.605-.04-29.213-.04-43.827h-4zm.04 43.843c.006 1.538.277 3.112.745 4.549l3.803-1.238a11.11 11.11 0 01-.548-3.327l-4 .016zm.744 4.547c1.003 3.091 3.133 5.381 6.44 6.39L135.658 93c-1.972-.601-3.173-1.862-3.801-3.797l-3.805 1.234zm7.023 2.476h-16.866v4h16.866v-4zm-16.245 3.901c2.53-.825 4.356-2.24 5.563-4.133 1.177-1.847 1.667-4 1.829-6.166l-3.989-.3c-.135 1.805-.522 3.231-1.214 4.317-.662 1.04-1.696 1.914-3.431 2.48l1.242 3.802zm7.393-10.303c.052-.72.029-1.488.029-2.02h-4c0 .716.02 1.203-.019 1.728l3.99.292zm.029-2.02c.003-22.123-.021-44.236.032-66.352l-4-.01c-.053 22.123-.029 44.245-.032 66.361h4zm.032-66.352c.005-1.745-.249-3.47-1.044-5.027-.813-1.594-2.111-2.852-3.916-3.771l-1.816 3.564c1.144.582 1.783 1.268 2.169 2.025.405.792.611 1.821.607 3.199l4 .01zm-5.868-5.016h14.793v-4h-14.793v4zm12.805-2.221a2.016 2.016 0 00-.012.308v-.025c.001-.02.003-.175.052-.375a1.967 1.967 0 01.98-1.25l1.882 3.528c.419-.223.665-.54.799-.77a2.08 2.08 0 00.222-.548c.057-.232.063-.427.064-.489l.001-.104-.001-.03v-.014c-.001-.056.005.067-.011.21l-3.976-.441zm1.049-1.358c-2.452 1.257-3.825 3.343-4.331 5.64-.493 2.237-.165 4.63.628 6.732l3.743-1.412c-.587-1.554-.754-3.146-.465-4.46.276-1.253.965-2.282 2.249-2.94l-1.824-3.56zm-3.703 12.371c1.099 2.917 2.759 5.646 4.149 8.118l3.486-1.96c-1.491-2.651-2.931-5.018-3.892-7.568l-3.743 1.41zm4.149 8.118c5.932 10.547 11.908 21.069 17.869 31.59l3.48-1.971c-5.964-10.527-11.935-21.04-17.863-31.58l-3.486 1.961zm17.873 31.597c.209.367.529.816.634.975l3.342-2.197c-.276-.42-.37-.529-.503-.763l-3.473 1.985zm2.854 1.8c.057-.016.12-.032.223-.058l-.97-3.88c-.091.022-.22.054-.352.092l1.099 3.846z" fill="url(#paint11_linear_1309_4467)" mask="url(#b)"/><path d="M356.115 87.447a1 1 0 01-1.348-.05c-2.634-2.588-4.278-5.707-4.959-9.3-2.174-11.456 5.578-20.211 13.835-22.154a1.46 1.46 0 00.397-.651l.001-.002c1.039-4.672 2.038-9.352 3.037-14.036.341-1.597.682-3.195 1.025-4.793.522-2.438 1.046-4.875 1.57-7.312 1.247-5.807 2.495-11.612 3.726-17.42l-17.284 75.718zm0 0a1 1 0 00.172-1.337m-.172 1.337l.172-1.337m0 0c-3.06-4.361-3.951-9.066-2.558-14.158.632-2.305 2.222-4.736 4.172-6.64 1.507-1.47 3.131-2.534 4.577-3.021m-6.191 23.819l6.191-23.82m0 0c-.448 2.121-.892 4.241-1.336 6.36-1.273 6.073-2.543 12.137-3.916 18.18-.746 3.284-2.002 5.994-5.529 7.172a1.001 1.001 0 00.316 1.949h15.608a1 1 0 00.384-1.924c-1.35-.56-2.276-1.312-2.863-2.215-.586-.902-.884-2.037-.84-3.453.024-.702.068-1.351.198-1.954l.001-.001c.67-3.115 1.346-6.23 2.023-9.347 1.122-5.168 2.245-10.34 3.342-15.514.03-.145.06-.238.083-.294.068-.003.174.002.336.024h.001c6.272.82 11.358 5.156 13.025 11.238l.137.499c1.24 4.526 2.474 9.027 3.474 13.575h0c.316 1.434.162 3.102-.131 4.75-.22 1.233-1.203 2.057-3.045 2.65a.999.999 0 00.307 1.952h20.72a.999.999 0 00.31-1.95c-1.522-.496-2.462-1.525-3.073-3.048a56.609 56.609 0 00-.526-1.26c-.365-.853-.704-1.645-.951-2.502h0c-.997-3.458-1.922-6.94-2.828-10.434-5.37-20.73-10.729-41.463-16.085-62.198 0 0 0 0 0 0l-.018-.07c-.246-.952-.45-1.742-.675-2.348-.234-.627-.542-1.212-1.09-1.621-.55-.41-1.197-.537-1.859-.578-.634-.039-1.429-.004-2.383.039l-.095.004h-.001c-.434.018-.951.102-1.383.456-.44.36-.622.856-.716 1.301l-10.922 50.563zm1.141-6.33l.004-.002-.004.003zm7.581-.482l2.73-12.832.767-3.603 2.433 9.543 2.673 10.48c-2.528-1.86-5.378-3.07-8.603-3.588z" fill="url(#paint12_linear_1309_4467)" stroke="url(#paint13_linear_1309_4467)" stroke-width="2" stroke-linejoin="round"/><path d="M110.539 95.131a1 1 0 01-.985.823H89.122a1 1 0 01-.43-1.904c1.638-.779 2.61-1.77 3.088-2.97.487-1.219.524-2.804-.016-4.875h0l-.799-3.075a723.322 723.322 0 00-2.709-10.24h0c-.896-3.26-2.41-5.794-4.479-7.678-2.071-1.886-4.751-3.168-8.052-3.84l34.814 33.76zm0 0a1.002 1.002 0 00-.635-1.114m.635 1.114l-.635-1.114m0 0c-1.411-.527-2.332-1.448-2.92-2.816m2.92 2.816L60.656 87.05M74.65 62.12h0l-.933 4.266c-1.482 6.772-2.963 13.537-4.365 20.318h0c-.236 1.14-.171 2.463.085 3.686.37 1.756 1.352 3.009 3.138 3.575a1 1 0 01-.302 1.954H56.975a1 1 0 01-.324-1.947c3.63-1.242 4.792-4.21 5.594-7.829h0c1.301-5.865 2.536-11.742 3.771-17.626.438-2.085.876-4.17 1.317-6.256a7.02 7.02 0 00-1.246.531c-.965.515-2.003 1.286-3 2.229-2.013 1.9-3.733 4.375-4.383 6.594L74.65 62.12zm0 0c.095-.438.157-.714.217-.904m-.217.904l.217-.904M60.656 87.05a1 1 0 01-1.326-.032c-2.03-1.89-3.302-4.21-4.108-6.69h0c-3.41-10.491 2.483-21.371 13.128-24.303h0c.287-.079.363-.15.385-.173.022-.023.086-.101.147-.388v-.003c1.27-5.957 2.548-11.909 3.826-17.86 1.793-8.354 3.586-16.707 5.358-25.067.138-.653.349-1.394.902-1.921.598-.57 1.387-.71 2.23-.678h0l.273.01c.69.024 1.283.046 1.761.104.548.068 1.1.199 1.574.557.48.364.752.863.953 1.39.197.515.371 1.182.578 1.978h0c1.815 7.011 3.628 14.022 5.44 21.033 3.243 12.546 6.486 25.091 9.746 37.633h0c1.387 5.339 2.866 10.657 4.352 15.982v.001c.108.388.272.78.473 1.211l.198.419c.146.304.303.633.438.947m-46.328-4.15a1 1 0 00.19-1.313m-.19 1.313l.19-1.313m46.138 5.463l-.919.394.919-.394s0 0 0 0zm-46.137-5.463c-2.904-4.413-3.61-9.107-2.143-14.123l2.142 14.123zm14.019-24.523c.186.022.447.072.86.156l-.86-.156zm6.294-50.28h0zm-6.483 50.27h.002-.002zm2.676-11.78l2.21-10.378 2.411 9.492.005.018.014.055 2.595 10.213c-2.573-1.688-5.373-2.805-8.523-3.347l1.288-6.053z" fill="url(#paint14_linear_1309_4467)" stroke="url(#paint15_linear_1309_4467)" stroke-width="2" stroke-linejoin="round"/><defs><linearGradient id="paint0_linear_1309_4467" x1="27.438" y1="15.212" x2="69.743" y2="31.522" gradientUnits="userSpaceOnUse"><stop stop-color="#fff"/><stop offset=".594" stop-color="#E0F4FF"/><stop offset="1" stop-color="#fff"/></linearGradient><linearGradient id="paint1_linear_1309_4467" x1="28.042" y1="2.814" x2="28.042" y2="118.755" gradientUnits="userSpaceOnUse"><stop stop-color="#EBCD8C"/><stop offset=".51" stop-color="#D9A259"/><stop offset="1" stop-color="#D8B762"/></linearGradient><linearGradient id="paint2_linear_1309_4467" x1="333.74" y1="21.657" x2="385.649" y2="60.031" gradientUnits="userSpaceOnUse"><stop stop-color="#fff"/><stop offset=".594" stop-color="#E0F4FF"/><stop offset="1" stop-color="#fff"/></linearGradient><linearGradient id="paint3_linear_1309_4467" x1="334.738" y1="10.975" x2="334.738" y2="110.866" gradientUnits="userSpaceOnUse"><stop stop-color="#EBCD8C"/><stop offset=".51" stop-color="#D9A259"/><stop offset="1" stop-color="#D8B762"/></linearGradient><linearGradient id="paint4_linear_1309_4467" x1="438.4" y1="20.053" x2="476.981" y2="41.358" gradientUnits="userSpaceOnUse"><stop stop-color="#fff"/><stop offset=".594" stop-color="#E0F4FF"/><stop offset="1" stop-color="#fff"/></linearGradient><linearGradient id="paint5_linear_1309_4467" x1="439.027" y1="11.085" x2="439.027" y2="94.948" gradientUnits="userSpaceOnUse"><stop stop-color="#EBCD8C"/><stop offset=".51" stop-color="#D9A259"/><stop offset="1" stop-color="#D8B762"/></linearGradient><linearGradient id="paint6_linear_1309_4467" x1="199.414" y1="20.928" x2="234.635" y2="35.167" gradientUnits="userSpaceOnUse"><stop stop-color="#fff"/><stop offset=".594" stop-color="#E0F4FF"/><stop offset="1" stop-color="#fff"/></linearGradient><linearGradient id="paint7_linear_1309_4467" x1="199.924" y1="10.959" x2="199.924" y2="104.193" gradientUnits="userSpaceOnUse"><stop stop-color="#EBCD8C"/><stop offset=".51" stop-color="#D9A259"/><stop offset="1" stop-color="#D8B762"/></linearGradient><linearGradient id="paint8_linear_1309_4467" x1="259.97" y1="19.921" x2="290.623" y2="31.714" gradientUnits="userSpaceOnUse"><stop stop-color="#fff"/><stop offset=".594" stop-color="#E0F4FF"/><stop offset="1" stop-color="#fff"/></linearGradient><linearGradient id="paint9_linear_1309_4467" x1="260.408" y1="10.924" x2="260.408" y2="95.056" gradientUnits="userSpaceOnUse"><stop stop-color="#EBCD8C"/><stop offset=".51" stop-color="#D9A259"/><stop offset="1" stop-color="#D8B762"/></linearGradient><linearGradient id="paint10_linear_1309_4467" x1="140.598" y1="20.082" x2="176.128" y2="37.133" gradientUnits="userSpaceOnUse"><stop stop-color="#fff"/><stop offset=".594" stop-color="#E0F4FF"/><stop offset="1" stop-color="#fff"/></linearGradient><linearGradient id="paint11_linear_1309_4467" x1="141.142" y1="11.123" x2="141.142" y2="94.913" gradientUnits="userSpaceOnUse"><stop stop-color="#EBCD8C"/><stop offset=".51" stop-color="#D9A259"/><stop offset="1" stop-color="#D8B762"/></linearGradient><linearGradient id="paint12_linear_1309_4467" x1="376.961" y1="19.898" x2="416.154" y2="42.112" gradientUnits="userSpaceOnUse"><stop stop-color="#fff"/><stop offset=".594" stop-color="#E0F4FF"/><stop offset="1" stop-color="#fff"/></linearGradient><linearGradient id="paint13_linear_1309_4467" x1="377.606" y1="10.911" x2="377.606" y2="94.951" gradientUnits="userSpaceOnUse"><stop stop-color="#EBCD8C"/><stop offset=".51" stop-color="#D9A259"/><stop offset="1" stop-color="#D8B762"/></linearGradient><linearGradient id="paint14_linear_1309_4467" x1="81.761" y1="19.916" x2="120.936" y2="42.111" gradientUnits="userSpaceOnUse"><stop stop-color="#fff"/><stop offset=".594" stop-color="#E0F4FF"/><stop offset="1" stop-color="#fff"/></linearGradient><linearGradient id="paint15_linear_1309_4467" x1="82.405" y1="10.931" x2="82.405" y2="94.954" gradientUnits="userSpaceOnUse"><stop stop-color="#EBCD8C"/><stop offset=".51" stop-color="#D9A259"/><stop offset="1" stop-color="#D8B762"/></linearGradient></defs></svg>