<svg width="21" height="16" fill="none" xmlns="http://www.w3.org/2000/svg"><path d="M10.272 4.922C5.518 4.884 2.689 2.152 1.869.79c-1.04 2.748.31 4.704 1.114 5.339L.987 5.757C1.284 7.651 3.246 9.301 4.19 9.89l-1.718.093c.78 1.56 2.523 2.538 3.296 2.832-.48.248-1.55.78-1.996.928-.446.149-2.166.557-2.971.743 2.785 1.207 5.478 1.532 8.403 1.114 2.925-.417 6.22-2.46 7.474-4.967 1.003-2.006 1.316-5.107 1.347-6.407.31-.062 1.021-.232 1.392-.418.372-.185 1.022-.944 1.3-1.3l-2.135-.185L20.16.372l-2.97.557-1.3-.696c-.82-.248-2.813-.465-4.225.65-1.411 1.114-1.516 3.156-1.392 4.039z" fill="#CFBB85"/></svg>