<svg width="25" height="14" fill="none" xmlns="http://www.w3.org/2000/svg"><path fill-rule="evenodd" clip-rule="evenodd" d="M12.318 13.896h1.413s.43-.049.647-.281c.204-.218.197-.619.197-.619s-.028-1.898.85-2.172c.866-.275 1.984 1.828 3.165 2.643.893.612 1.568.478 1.568.478l3.157-.042s1.652-.098.865-1.399c-.064-.105-.457-.963-2.349-2.714-1.976-1.835-1.715-1.54.668-4.718 1.456-1.934 2.032-3.115 1.85-3.621-.176-.485-1.238-.352-1.238-.352l-3.558.021s-.26-.035-.457.078c-.19.112-.316.38-.316.38s-.563 1.497-1.315 2.77c-1.582 2.686-2.215 2.826-2.475 2.665-.605-.394-.45-1.561-.45-2.398 0-2.602.394-3.691-.767-3.973-.386-.091-.668-.154-1.659-.161-1.266-.014-2.341 0-2.953.302-.4.197-.717.64-.527.66.232.029.766.149 1.047.528.366.492.352 1.61.352 1.61s.21 3.066-.492 3.446c-.479.26-1.14-.275-2.546-2.707C6.271 3.068 5.73 1.69 5.73 1.69s-.106-.26-.296-.394a1.44 1.44 0 00-.548-.218L1.51 1.1s-.506.014-.696.232C.653 1.528.8 1.936.8 1.936s2.644 6.188 5.639 9.302c2.763 2.848 5.878 2.658 5.878 2.658z" fill="#182C4F"/></svg>